<?xml version="1.0" encoding="utf-8" ?>
<svg baseProfile="full" height="200mm" version="1.1" viewBox="0,0,200,200" width="200mm" xmlns="http://www.w3.org/2000/svg" xmlns:ev="http://www.w3.org/2001/xml-events" xmlns:xlink="http://www.w3.org/1999/xlink"><defs /><rect fill="#1a1a1a" height="200" width="200" x="0" y="0" /><text alignment-baseline="middle" fill="#e1ed5e" style="dominant-baseline: central; font-size:9.0px; font-family:Arial;" text-anchor="middle" x="100.0" y="100.0">2022</text><line stroke="#e1ed5e" stroke-width="0.3" x1="100.0" x2="100.0" y1="15.0" y2="10.0" /><path d="M 100.0 14.0 a86.0,86.0 0 0,1 42.46469731375804,11.215312516191453" fill="none" id="id49" stroke="none" /><text fill="#e1ed5e" style="font-size:6.75px; font-family:Arial;" text-anchor="middle"><textPath startOffset="22.20632615414155" xlink:href="#id49">January</textPath></text><line stroke="#e1ed5e" stroke-width="0.3" x1="143.23703022742887" x2="145.7803849466894" y1="26.81831364943548" y2="22.513508569990506" /><path d="M 143.74570117128098 25.957352633546492 a86.0,86.0 0 0,1 28.547481713284135,27.462654790039103" fill="none" id="id50" stroke="none" /><text fill="#e1ed5e" style="font-size:6.75px; font-family:Arial;" text-anchor="middle"><textPath startOffset="19.985693538727396" xlink:href="#id50">February</textPath></text><path d="M 116.38621287248628 86.86637796730983 l 6.173074426833015 -4.947746433699835 a28.91119729569483,28.91119729569483 0 0,0 0.3078986333488081,0.39099999675722286 l -6.257327140775787 4.840754042989573" fill="#ff5b08" stroke="none" /><line stroke="#e1ed5e" stroke-width="0.3" x1="172.23445277983987" x2="176.4835382374775" y1="55.19839476539836" y2="52.563006222186495" /><path d="M 173.08426987136738 54.67131705675599 a86.0,86.0 0 0,1 12.851231095245387,41.99856678651699" fill="none" id="id51" stroke="none" /><text fill="#e1ed5e" style="font-size:6.75px; font-family:Arial;" text-anchor="middle"><textPath startOffset="22.20632615414155" xlink:href="#id51">March</textPath></text><path d="M 118.03404312379186 89.2402003453031 l 7.919116851000457 -4.724847898721401 a30.221529122973664,30.221529122973664 0 0,0 0.2626975125767665,0.449035203643529 l -7.99927403804755 4.5878332827239765" fill="#ff6e0a" stroke="none" /><path d="M 119.196687751892 91.48605970444005 l 1.4155921659285944 -0.6278305580289797 a22.548571080006788,22.548571080006788 0 0,0 0.15430662590331587,0.35616096740895437 l -1.426189501674591 0.6033704460334225" fill="#ff0000" stroke="none" /><path d="M 119.34039704204932 91.81776055985345 l 8.199251120335552 -3.468813786532615 a29.90283033759279,29.90283033759279 0 0,0 0.19647343272901396,0.47577600148619953 l -8.257746239950762 3.3271632145931127" fill="#ff6909" stroke="none" /><path d="M 120.28053869075195 94.5502522615342 l 6.259993480750057 -1.6821735277714827 a27.48206958899458,27.48206958899458 0 0,0 0.11883203459411004,0.4579083039287828 l -6.28802184721447 1.5741687982938495" fill="#ff4706" stroke="none" /><path d="M 120.67395015179393 96.31383870115 l 9.576518003204965 -1.7074913009834853 a30.727549722753572,30.727549722753572 0 0,0 0.0883609298953274,0.5215112100676719 l -9.604490794620517 1.5423943025999756" fill="#ff740a" stroke="none" /><path d="M 120.73433829027371 96.67025291283417 l 6.554751152459939 -1.0526337156965635 a27.638734850112336,27.638734850112336 0 0,0 0.07139230849582998,0.4703861127519067 l -6.571899354395069 0.9396484905525747" fill="#ff4a06" stroke="none" /><line stroke="#e1ed5e" stroke-width="0.3" x1="184.98032266829074" x2="189.97916517819016" y1="98.17113171792111" y2="98.06355123074" /><path d="M 185.9800911702706 98.14961562048488 a86.0,86.0 0 0,1 -9.607161424134198,41.387399972396054" fill="none" id="id52" stroke="none" /><text fill="#e1ed5e" style="font-size:6.75px; font-family:Arial;" text-anchor="middle"><textPath startOffset="21.466115282336823" xlink:href="#id52">April</textPath></text><path d="M 120.9764740272857 100.99374915477107 l 24.336888141749117 1.1529469628290316 a45.364182956198334,45.364182956198334 0 0,0 -0.04366550840716747,0.7796769854393575 l -24.31343628245442 -1.5716956646038123" fill="#d0ff1d" stroke="none" /><path d="M 120.92983693683757 101.71520430193887 l 6.665315065425516 0.5462238959862247 a27.687659191820014,27.687659191820014 0 0,0 -0.043015288536946375,0.47467012459902136 l -6.654925180611495 -0.6608754091338166" fill="#ff4a06" stroke="none" /><path d="M 120.89721153311464 102.0752229133903 l 2.805518785714058 0.27860544258906617 a23.819318472545223,23.819318472545223 0 0,0 -0.04402910109131838,0.4076547937728707 l -2.800307383121688 -0.32685655824672827" fill="#ff1302" stroke="none" /><path d="M 120.8583938346157 102.4346265915055 l 8.55125915626235 0.9981172614614626 a29.609313051875162,29.609313051875162 0 0,0 -0.06344639997961826,0.5057302333073396 l -8.532811247035884 -1.1451652490561972" fill="#ff6509" stroke="none" /><path d="M 120.32669344350535 105.2749913415812 l 6.542365614069471 1.6978128815487095 a27.759076594395964,27.759076594395964 0 0,0 -0.12400630353791585,0.4614735869418122 l -6.512171234189778 -1.8101774016660697" fill="#ff4b07" stroke="none" /><path d="M 120.23288151984713 105.62410040840565 l 7.104558491647989 1.9748423018848995 a28.373923886138343,28.373923886138343 0 0,0 -0.13485364401285652,0.4694432259447975 l -7.069512210749033 -2.096843003334279" fill="#ff5407" stroke="none" /><path d="M 120.13307415673323 105.97154293290107 l 6.317562179617298 1.8738118924694864 a27.589595048384304,27.589595048384304 0 0,0 -0.13896383397697276,0.4541418498303703 l -6.284371573134192 -1.9822807148519137" fill="#ff4906" stroke="none" /><path d="M 120.02730092923936 106.31721596034902 l 8.80840674235875 2.7784376863701525 a30.236219211120588,30.236219211120588 0 0,0 -0.16083904694540901,0.4950116869188466 l -8.759275444397094 -2.9296482732667943" fill="#ff6e0a" stroke="none" /><path d="M 119.9155931802556 106.66101706037122 l 6.752117299458044 2.25832934616816 a28.11977102591122,28.11977102591122 0 0,0 -0.15748299544876349,0.45771930093024016 l -6.71224347306605 -2.374221350187701" fill="#ff5007" stroke="none" /><path d="M 119.67450827220406 107.3425965602758 l 12.283742392093025 4.584336410731145 a34.11131066987807,34.11131066987807 0 0,0 -0.21003750477039446,0.5483416469801887 l -12.203010607729123 -4.795101624544476" fill="#ffa20f" stroke="none" /><path d="M 119.54520255179757 107.68017299344265 l 7.685545713652588 3.0199902238636493 a29.257599764391326,29.257599764391326 0 0,0 -0.188220249584419,0.4671472236382077 l -7.6324228498107765 -3.1518368153446708" fill="#ff6008" stroke="none" /><path d="M 119.26925614724726 108.34839909993367 l 6.3497984822656415 2.7510481737863848 a27.920130549337667,27.920130549337667 0 0,0 -0.1948544784510561,0.439345408827141 l -6.301502919083313 -2.859941919106214" fill="#ff4e07" stroke="none" /><path d="M 118.81262510543309 109.33194174019688 l 2.9876451613069293 1.4820117038129605 a24.3350235831429,24.3350235831429 0 0,0 -0.1893743773685584,0.37365361250000173 l -2.9616921141521018 -1.5332195280156566" fill="#ff1a02" stroke="none" /><line stroke="#e1ed5e" stroke-width="0.3" x1="174.80103733775053" x2="179.2010983576182" y1="140.37084112569926" y2="142.7455964860345" /><path d="M 175.68104954172406 140.8457921977663 a86.0,86.0 0 0,1 -30.038265399797805,32.042727171017184" fill="none" id="id53" stroke="none" /><text fill="#e1ed5e" style="font-size:6.75px; font-family:Arial;" text-anchor="middle"><textPath startOffset="22.206326154141568" xlink:href="#id53">May</textPath></text><path d="M 118.48025628344425 109.97397251340804 l 2.177173287579449 1.1750414168605092 a23.474026243896184,23.474026243896184 0 0,0 -0.19497256867094603,0.35393184574862707 l -2.1566243094569932 -1.2123437810069413" fill="#ff0e01" stroke="none" /><path d="M 118.30583269289576 110.29060199501025 l 5.809931048993312 3.266045803360003 a27.665009676189676,27.665009676189676 0 0,0 -0.23692841746132468,0.41310466659956013 l -5.752850635379608 -3.365570315817878" fill="#ff4a06" stroke="none" /><path d="M 118.12598468904814 110.60418214915192 l 6.124355435138742 3.58291048428389 a28.09541944033648,28.09541944033648 0 0,0 -0.24780042788714887,0.4153277705928429 l -6.061774131553366 -3.687800348762837" fill="#ff5007" stroke="none" /><path d="M 117.94076556474637 110.91462005526583 l 5.741794993568821 3.493134702856652 a27.72087790399985,27.72087790399985 0 0,0 -0.2515146409599532,0.40552168523257526 l -5.6808157129409045 -3.5914527194545007" fill="#ff4b07" stroke="none" /><path d="M 117.55443506779139 111.5257021239791 l 6.093219207429488 4.000620315591628 a28.289189476156597,28.289189476156597 0 0,0 -0.27076377310262795,0.40475510307726786 l -6.0234523289161395 -4.104912332874703" fill="#ff5307" stroke="none" /><path d="M 116.93607887273984 112.41649034213515 l 5.940833286694591 4.355453212207739 a28.366374469440796,28.366374469440796 0 0,0 -0.29209089922497894,0.3913034923244184 l -5.86498112077452 -4.457069584041472" fill="#ff5407" stroke="none" /><path d="M 116.498646956653 112.99209946851258 l 8.304100385344427 6.539184606250586 a31.569721780846557,31.569721780846557 0 0,0 -0.33987374362195927,0.42404475314548984 l -8.190308729667615 -6.681157192974327" fill="#ff800b" stroke="none" /><path d="M 116.0416608686014 113.55231037782055 l 7.497089427033636 6.333688492586552 a30.814375160857814,30.814375160857814 0 0,0 -0.3457923009310611,0.4022345669818715 l -7.386954616531796 -6.461800158729952" fill="#ff760a" stroke="none" /><path d="M 115.80600337817218 113.82643327865902 l 3.9724880872795496 3.474967085284156 a26.277883841786043,26.277883841786043 0 0,0 -0.3007455633972477,0.3378908286586355 l -3.9120836742339633 -3.5428320836836584" fill="#ff3605" stroke="none" /><path d="M 115.56566222782051 114.09645910891815 l 1.6057284411467514 1.4541678329750969 a23.16632590188251,23.16632590188251 0 0,0 -0.2702226068194222,0.2932732700894667 l -1.5804594263316072 -1.4815923578658983" fill="#ff0901" stroke="none" /><path d="M 115.32070863581623 114.36230785411682 l 5.458151715697118 5.116712099860483 a28.481454595493183,28.481454595493183 0 0,0 -0.33837792041776354,0.3547878967409269 l -5.36926724390039 -5.209907113183917" fill="#ff5507" stroke="none" /><path d="M 115.07121518719521 114.62390073753431 l 6.196822951578245 6.012900924468828 a29.634558021154586,29.634558021154586 0 0,0 -0.35837970627656585,0.3630367503630267 l -6.092402620246143 -6.11867816881252" fill="#ff6509" stroke="none" /><path d="M 114.0293411484842 115.62618273729858 l 6.222136676234054 6.930350020733933 a30.31368542670536,30.31368542670536 0 0,0 -0.39127410697583886,0.34525390674583534 l -6.101920216351628 -7.036427069252056" fill="#ff6f0a" stroke="none" /><path d="M 113.48314897796784 116.09983520530334 l 4.1587400533259515 4.965830284130971 a27.47723623484043,27.47723623484043 0 0,0 -0.365224638960865,0.3005550134979644 l -4.072645285820395 -5.036680416486114" fill="#ff4706" stroke="none" /><path d="M 112.92097659922987 116.55440617244103 l 10.274559704090954 13.163806410318468 a37.69887350455926,37.69887350455926 0 0,0 -0.5149868465055168,0.39486995373473915 l -10.046444129091944 -13.33871570588058" fill="#ffd013" stroke="none" /><path d="M 112.63410532772338 116.77436683061366 l 1.1727264020146406 1.5570348947600612 a22.94926777982982,22.94926777982982 0 0,0 -0.3175905778432158,0.2349459169700181 l -1.1457508537528605 -1.5769907604698483" fill="#ff0601" stroke="none" /><path d="M 112.34349029814194 116.9893568818739 l 5.154908940982823 7.095123468043959 a29.77005491525639,29.77005491525639 0 0,0 -0.41716731476180696,0.29763780260337064 l -5.032014298372132 -7.18280553249155" fill="#ff6709" stroke="none" /><path d="M 112.04921762599082 117.19931262002967 l 8.303547698362598 11.852662733172462 a35.47185261966546,35.47185261966546 0 0,0 -0.503097480592338,0.34603503463916113 l -8.098293333147376 -11.993838557176717" fill="#ffb410" stroke="none" /><path d="M 111.7513745106137 117.40417183066458 l 4.023332392290839 5.958687490051891 a28.18979555640893,28.18979555640893 0 0,0 -0.4044904113568448,0.2680741884593344 l -3.920167282194029 -6.027059699602543" fill="#ff5107" stroke="none" /><path d="M 111.1453310114006 117.79835938074945 l 1.5828544325317109 2.527714251716182 a23.98240967891978,23.98240967891978 0 0,0 -0.35176576270723875,0.2160832621189693 l -1.5391094698921635 -2.5545859806635294" fill="#ff1502" stroke="none" /><line stroke="#e1ed5e" stroke-width="0.3" x1="143.8653032363475" x2="146.44561519142675" y1="172.8068346515853" y2="177.08958963109032" /><path d="M 144.38136562736335 173.6633856474863 a86.0,86.0 0 0,1 -40.68145358897372,12.25698825130547" fill="none" id="id54" stroke="none" /><text fill="#e1ed5e" style="font-size:6.75px; font-family:Arial;" text-anchor="middle"><textPath startOffset="21.466115282336833" xlink:href="#id54">June</textPath></text><path d="M 110.8373102113329 117.98757091392108 l 4.074686434760753 6.7630906348519755 a28.895724442813705,28.895724442813705 0 0,0 -0.42825132554829176,0.25301843167385635 l -3.9576672381840794 -6.832227638819582" fill="#ff5b08" stroke="none" /><path d="M 109.89434966115114 118.52300852407294 l 4.460300076323032 8.350036047143556 a30.466645591731215,30.466645591731215 0 0,0 -0.46470208345393077,0.24311016688627538 l -4.315907090342606 -8.42557563297455" fill="#ff710a" stroke="none" /><path d="M 109.2508944713604 118.85261126421891 l 6.416867163627723 13.077081631892666 a35.56661416399941,35.56661416399941 0 0,0 -0.5519385237224239,0.26496403263561347 l -6.190815971905066 -13.185599941027839" fill="#ffb510" stroke="none" /><path d="M 108.59647513512805 119.15986991738527 l 3.6427575695955365 8.118997621340924 a29.89875300737048,29.89875300737048 0 0,0 -0.47137423686927016,0.20663661303159453 l -3.5024626580685125 -8.180498787666973" fill="#ff6909" stroke="none" /><path d="M 108.2653958097858 119.30500536409082 l 3.3385780834704244 7.797723096760305 a29.482369310114844,29.482369310114844 0 0,0 -0.4682481717409261,0.19572777376375827 l -3.203858452232037 -7.8540359135440365" fill="#ff6309" stroke="none" /><path d="M 106.91757812671514 119.82793768551818 l 2.2087404573908564 6.330939434351585 a27.705171774797655,27.705171774797655 0 0,0 -0.4516342310803087,0.15321885225711557 l -2.0994364933733207 -6.368021273506824" fill="#ff4b06" stroke="none" /><path d="M 106.2309692047433 120.05430185196036 l 2.471746193373779 7.95528635025469 a29.33043277141148,29.33043277141148 0 0,0 -0.4834284186992119,0.1456530169302846 l -2.3344428002343216 -7.996654736290701" fill="#ff6109" stroke="none" /><path d="M 105.88484417918355 120.15858648285463 l 0.5280291066927232 1.8087684378087476 a22.884265904570746,22.884265904570746 0 0,0 -0.3790820404288868,0.10713237117335891 l -0.4968158981592306 -1.8175896023206257" fill="#ff0500" stroke="none" /><path d="M 103.7750983002368 120.6578951692458 l 1.3884793883261315 7.597964176694547 a28.723790173363085,28.723790173363085 0 0,0 -0.4871432101649661,0.08469609132376174 l -1.2574872066891154 -7.620738846539314" fill="#ff5908" stroke="none" /><path d="M 102.70371172650421 120.8252237178851 l 1.0956415658205367 8.439132211897476 a29.50995786891094,29.50995786891094 0 0,0 -0.5043006964791079,0.061063791263366425 l -0.9502134462900484 -8.456741531886193" fill="#ff6409" stroke="none" /><path d="M 101.62511606390274 120.93702456842531 l 0.6329439405632932 8.154471627204817 a29.17899905555589,29.17899905555589 0 0,0 -0.5010968410776131,0.034558571993782226 l -0.49248433870674974 -8.164158543714885" fill="#ff5f08" stroke="none" /><path d="M 100.90346689309514 120.98055641714683 l 0.3476417007667386 8.073031089055467 a29.08051271374336,29.08051271374336 0 0,0 -0.5002951145877145,0.01723117531284053 l -0.20862623450437187 -8.0778190627944" fill="#ff5e08" stroke="none" /><line stroke="#e1ed5e" stroke-width="0.3" x1="102.19456741930631" x2="102.32365962044197" y1="184.97166512339345" y2="189.96999836594603" /><path d="M 102.22038585953345 185.97133177190398 a86.0,86.0 0 0,1 -42.740103519485714,-10.115201625700543" fill="none" id="id55" stroke="none" /><text fill="#e1ed5e" style="font-size:6.75px; font-family:Arial;" text-anchor="middle"><textPath startOffset="22.20632615414155" xlink:href="#id55">July</textPath></text><path d="M 100.54218724476979 120.99299961872073 l 0.3437741968046758 13.310625899196065 a34.31506449577837,34.31506449577837 0 0,0 -0.590611788224154,0.010167917547242028 l -0.1146027186878538 -13.314571294022468" fill="#ffa50f" stroke="none" /><path d="M 99.09653310690486 120.98055641714683 l -0.32826795133288716 7.623128556804357 a28.630193237490015,28.630193237490015 0 0,0 -0.49218292201720654,-0.02544023515462211 l 0.45943894176358263 -7.616348514887533" fill="#ff5808" stroke="none" /><path d="M 98.01472825383883 120.90594882070398 l -0.7870692849768257 8.288250826059821 a29.325537809357137,29.325537809357137 0 0,0 -0.5021194039645258,-0.05204672926329559 l 0.9296212855469448 -8.273474728340764" fill="#ff6109" stroke="none" /><path d="M 97.65516085044442 120.86867818915974 l -1.062970742901552 9.460262705997913 a30.519793971865127,30.519793971865127 0 0,0 -0.5215579576487577,-0.06315340525993773 l 1.225656123601699 -9.440563772012625" fill="#ff720a" stroke="none" /><path d="M 97.2962882734958 120.8252237178851 l -3.230361283099071 24.881719360338074 a46.090539897458726,46.090539897458726 0 0,0 -0.7858906930496484,-0.10891728900437231 l 3.6581805673355503 -24.822427505841098" fill="#c7ff1e" stroke="none" /><path d="M 96.22490169976321 120.6578951692458 l -3.08571900090563 16.88550987889772 a38.165142167279086,38.165142167279086 0 0,0 -0.6452314982790229,-0.12366015230908028 l 3.375918113756348 -16.829892528240173" fill="#ffd614" stroke="none" /><path d="M 95.16358092515715 120.4354850818985 l -4.03255964801244 17.03891065963959 a38.509597761855005,38.509597761855005 0 0,0 -0.6437460857218767,-0.15821712560598564 l 4.325259018477527 -16.966972275719574" fill="#ffdb14" stroke="none" /><path d="M 94.46302465271185 120.25689768951611 l -13.297273583012835 48.64777132383689 a71.43236202596323,71.43236202596323 0 0,0 -1.1832901113095315,-0.3344096050215252 l 14.13269486242698 -48.41167292547684" fill="#3dffaf" stroke="none" /><path d="M 93.08242187328487 119.8279376855182 l -7.290853777847256 20.897862190105418 a43.133169518317686,43.133169518317686 0 0,0 -0.6989225654821726,-0.25060876550810857 l 7.6494959039591555 -20.76926588355735" fill="#eaff1a" stroke="none" /><path d="M 92.7421414339146 119.70592522655815 l -3.6669184324358532 9.956107546532548 a31.609918391215842,31.609918391215842 0 0,0 -0.5089645108289184,-0.19244682763349824 l 3.837753164025054 -9.891512468792417" fill="#ff800b" stroke="none" /><path d="M 92.40401165467489 119.57807347666478 l -9.677689714320831 24.94349802786943 a47.755107401634504,47.755107401634504 0 0,0 -0.763806385122214,-0.3039343238074123 l 10.105617175484902 -24.773216859655953" fill="#b4ff20" stroke="none" /><path d="M 91.07499286063937 119.00905698771935 l -6.060537104087152 12.908123589023067 a35.26007589669532,35.26007589669532 0 0,0 -0.5471815266706196,-0.26268038496851626 l 6.281831298758014 -12.80188892755499" fill="#ffb110" stroke="none" /><path d="M 90.42595943632237 118.69057910512821 l -16.96899596543262 33.12711694890611 a58.220326455061766,58.220326455061766 0 0,0 -0.8880238200682679,-0.4645720920620465 l 17.53671068802738 -32.830115437899344" fill="#44ff2d" stroke="none" /><line stroke="#e1ed5e" stroke-width="0.3" x1="58.666819895761336" x2="56.23545636021788" y1="174.27360380694188" y2="178.64263932499728" /><path d="M 58.180547188652646 175.14741091055294 a86.0,86.0 0 0,1 -31.652253787137756,-30.449443065178592" fill="none" id="id56" stroke="none" /><text fill="#e1ed5e" style="font-size:6.75px; font-family:Arial;" text-anchor="middle"><textPath startOffset="22.20632615414155" xlink:href="#id56">August</textPath></text><path d="M 86.79598089348748 116.32954008644616 l -11.21585288314282 13.870755395122822 a38.837971048514234,38.837971048514234 0 0,0 -0.5162303745884227,-0.4248224535012961 l 11.45295338627593 -13.675637822764346" fill="#ffdf14" stroke="none" /><path d="M 84.19399662182784 113.82643327865904 l -5.00816809372256 4.3809368085920015 a27.65389772808817,27.65389772808817 0 0,0 -0.31032610186607623,-0.360979364986376 l 5.082836705159415 -4.294080344444096" fill="#ff4a06" stroke="none" /><path d="M 82.6465618267979 111.8261652097733 l -28.811923833578586 19.63498920885209 a55.86631262728641,55.86631262728641 0 0,0 -0.5347121595351366,-0.7993221278065138 l 29.145639098524452 -19.136130166839756" fill="#5cff2a" stroke="none" /><line stroke="#e1ed5e" stroke-width="0.3" x1="26.63291911575756" x2="22.317208475507996" y1="142.92168965132927" y2="145.44649492493687" /><path d="M 25.769776987707644 143.4266507060508 a86.0,86.0 0 0,1 -11.730757126820373,-40.83630448921669" fill="none" id="id57" stroke="none" /><text fill="#e1ed5e" style="font-size:6.75px; font-family:Arial;" text-anchor="middle"><textPath startOffset="21.46611528233685" xlink:href="#id57">September</textPath></text><path d="M 81.18737489456691 109.33194174019688 l -28.29182073012916 14.03406602204662 a52.58135730675503,52.58135730675503 0 0,0 -0.3952283816023397,-0.8142875288805812 l 28.529202368346215 -13.544989537200754" fill="#7fff26" stroke="none" /><path d="M 80.73074385275274 108.34839909993369 l -6.2062096774219615 2.6888383697359757 a27.763644752549503,27.763644752549503 0 0,0 -0.18621343437723634,-0.44015355230851444 l 6.251574092991504 -2.581610291761302" fill="#ff4b07" stroke="none" /><path d="M 80.58989483394504 108.01547362559985 l -47.89951906661036 19.780280862608354 a72.82300104988363,72.82300104988363 0 0,0 -0.46848557446527533,-1.1627427756004776 l 48.232907255333025 -18.952838719165072" fill="#3fffbe" stroke="none" /><path d="M 79.76711848015287 105.62410040840567 l -50.144472768310806 13.938575654629487 a73.04567263943943,73.04567263943943 0 0,0 -0.32631214596260927,-1.214328886224751 l 50.376972990615194 -13.073355835229197" fill="#3fffc0" stroke="none" /><path d="M 79.67330655649465 105.27499134158121 l -8.677424092723259 2.2518830759937787 a29.964857292390175,29.964857292390175 0 0,0 -0.12526549709690785,-0.5003733928033943 l 8.714900904115225 -2.102181843792992" fill="#ff6a09" stroke="none" /><path d="M 79.50377843672027 104.57218783832718 l -7.940026078534794 1.7712186882931162 a29.135184679499993,29.135184679499993 0 0,0 -0.10497817884358636,-0.49042310252195964 l 7.969338296102821 -1.634281766354993" fill="#ff5f08" stroke="none" /><path d="M 79.4281124754447 104.21870165774334 l -50.67741267226037 10.392477821756408 a72.73203794971037,72.73203794971037 0 0,0 -0.2409510835703677,-1.2286043840491583 l 50.8487936888064 -9.518609710639295" fill="#3fffbd" stroke="none" /><path d="M 79.35854240842038 103.8639653848113 l -7.3007922111241745 1.366667458454658 a28.427607074422443,28.427607074422443 0 0,0 -0.08589680022170244,-0.48175487234813297 l 7.323235453685066 -1.2407938353733114" fill="#ff5507" stroke="none" /><path d="M 79.10278846688536 102.07522291339032 l -51.07577990109082 5.072142213905523 a72.32700964543673,72.32700964543673 0 0,0 -0.1123665661787733,-1.2399556944278378 l 51.155521063546665 -4.192205130929119" fill="#3effb9" stroke="none" /><path d="M 79.0235259727143 100.99374915477108 l -51.7817054097219 2.4531303934388946 a72.8397807081245,72.8397807081245 0 0,0 -0.048552455880951854,-1.2529231482993093 l 51.81625999845406 -1.5614299981255886" fill="#3fffbe" stroke="none" /><path d="M 79.0095281055655 100.63252640178507 l -51.69222126666244 1.557692217808085 a72.7156856720184,72.7156856720184 0 0,0 -0.0269322878558886,-1.25143758827006 l 51.71137561720334 -0.6676648137478961" fill="#3fffbd" stroke="none" /><line stroke="#e1ed5e" stroke-width="0.3" x1="15.007084014347285" x2="10.007500721073583" y1="101.09737516637583" y2="101.16192664675087" /><path d="M 14.007167355692545 101.11028546245083 a86.0,86.0 0 0,1 10.666146001902534,-42.60595125391555" fill="none" id="id58" stroke="none" /><text fill="#e1ed5e" style="font-size:6.75px; font-family:Arial;" text-anchor="middle"><textPath startOffset="22.20632615414155" xlink:href="#id58">October</textPath></text><path d="M 79.00175016825051 100.2711162175752 l -8.104183222453921 0.10463612536345737 a29.104858692280494,29.104858692280494 0 0,0 -0.0021561194074386928,-0.5010062169276557 l 8.104783639150861 0.03487956976787372" fill="#ff5e08" stroke="none" /><path d="M 79.54389044137918 95.25157060432595 l -7.0440704120199085 -1.6351237713985067 a28.231359327075843,28.231359327075843 0 0,0 0.11395682261842609,-0.4724245998983183 l 7.014880789140667 1.7561336029562218" fill="#ff5207" stroke="none" /><path d="M 80.38941819471856 92.48833698450439 l -2.998601648721306 -1.1485883145413778 a24.211053871241518,24.211053871241518 0 0,0 0.152421785044761,-0.3878968175000709 l 2.978386313794854 1.200034136937212" fill="#ff1902" stroke="none" /><path d="M 81.26839172434947 90.50648371742162 l -19.582374660183557 -9.924700001850033 a42.95379391946916,42.95379391946916 0 0,0 0.3399293028285823,-0.6566352157408447 l 19.40863592419486 10.260307939851213" fill="#ecff1a" stroke="none" /><path d="M 81.43458229118936 90.18545643968196 l -1.3483652195598967 -0.7128085879968168 a22.525183545820248,22.525183545820248 0 0,0 0.18416150373498483,-0.3412232971358049 l 1.33589561660644 0.7359128684650944" fill="#ff0000" stroke="none" /><path d="M 81.6062741919709 89.86733742301443 l -45.770690522736736 -25.21397610374712 a73.25610683822967,73.25610683822967 0 0,0 0.6179409311932239,-1.0992479648907314 l 45.32989195025108 25.998107578572636" fill="#40ffc3" stroke="none" /><line stroke="#e1ed5e" stroke-width="0.3" x1="26.266209847984243" x2="21.928928074336255" y1="57.711370442889674" y2="55.22380399835377" /><path d="M 25.398753493254645 57.213857153982495 a86.0,86.0 0 0,1 29.58750427330803,-30.492523968695096" fill="none" id="id59" stroke="none" /><text fill="#e1ed5e" style="font-size:6.75px; font-family:Arial;" text-anchor="middle"><textPath startOffset="21.46611528233685" xlink:href="#id59">November</textPath></text><path d="M 81.78341655067845 89.55222093294921 l -11.551448105134194 -6.6251159578136685 a34.31646029469114,34.31646029469114 0 0,0 0.2982922777723376,-0.5098781955754224 l 11.43569615289153 6.822973565742982" fill="#ffa50f" stroke="none" /><path d="M 81.96595687620814 89.24020034530311 l -44.8514220278578 -26.76007326451033 a73.22788124213893,73.22788124213893 0 0,0 0.6551600957319516,-1.076910934635127 l 44.38414613383963 27.52815197235253" fill="#40ffc2" stroke="none" /><path d="M 82.7489923806493 88.02491185347247 l -51.75302285805211 -35.92526443958256 a84.0,84.0 0 0,0 0.834749520784487,-1.1806939986728553 l 51.12696071746375 36.810784938587204" fill="#4dd2ff" stroke="none" /><path d="M 83.17141714833178 87.43820079747576 l -41.8852663200468 -31.265514731356088 a73.26765678809306,73.26765678809306 0 0,0 0.7631142544265879,-1.0041689075779539 l 41.3408761253961 31.981868414815068" fill="#40ffc3" stroke="none" /><path d="M 85.83668400450813 84.49514656593479 l -4.259002153888514 -4.662411273774322 a27.314837941914654,27.314837941914654 0 0,0 0.34987577533198627,-0.31412192563232866 l 4.178115390960556 4.735032208175929" fill="#ff4506" stroke="none" /><path d="M 86.10567301691215 84.25364557470407 l -37.908839676228354 -42.96185242510775 a78.29573186018939,78.29573186018939 0 0,0 1.0182404719289102,-0.8830081033485181 l 37.16370540565267 43.60802552187595" fill="#46fff6" stroke="none" /><path d="M 87.51073957382395 83.11751280151077 l -2.2841695783718463 -3.0876498968040407 a24.840704694192645,24.840704694192645 0 0,0 0.3459419253756781,-0.2513415210054878 l 2.2306823366423867 3.1265106526261963" fill="#ff2203" stroke="none" /><path d="M 87.80319425747018 82.90503203632743 l -11.715728504023435 -16.42069306302034 a41.1716993594965,41.1716993594965 0 0,0 0.5804599100366796,-0.4066492617297929 l 11.431337454403096 16.619927167514074" fill="#fffc17" stroke="none" /><line stroke="#e1ed5e" stroke-width="0.3" x1="56.762969772571076" x2="54.21961505331055" y1="26.818313649435495" y2="22.513508569990535" /><path d="M 56.25429882871897 25.957352633546506 a86.0,86.0 0 0,1 42.265352541879196,-11.944610805530505" fill="none" id="id60" stroke="none" /><text fill="#e1ed5e" style="font-size:6.75px; font-family:Arial;" text-anchor="middle"><textPath startOffset="22.20632615414155" xlink:href="#id60">December</textPath></text></svg>