<?xml version="1.0" encoding="utf-8" ?>
<svg baseProfile="full" height="200mm" version="1.1" viewBox="0,0,200,200" width="200mm" xmlns="http://www.w3.org/2000/svg" xmlns:ev="http://www.w3.org/2001/xml-events" xmlns:xlink="http://www.w3.org/1999/xlink"><defs /><rect fill="#1a1a1a" height="200" width="200" x="0" y="0" /><text alignment-baseline="middle" fill="#e1ed5e" style="dominant-baseline: central; font-size:9.0px; font-family:Arial;" text-anchor="middle" x="100.0" y="100.0">2021</text><line stroke="#e1ed5e" stroke-width="0.3" x1="100.0" x2="100.0" y1="15.0" y2="10.0" /><path d="M 100.0 14.0 a86.0,86.0 0 0,1 42.46469731375804,11.215312516191453" fill="none" id="id37" stroke="none" /><text fill="#e1ed5e" style="font-size:6.75px; font-family:Arial;" text-anchor="middle"><textPath startOffset="22.20632615414155" xlink:href="#id37">January</textPath></text><line stroke="#e1ed5e" stroke-width="0.3" x1="143.23703022742887" x2="145.7803849466894" y1="26.81831364943548" y2="22.513508569990506" /><path d="M 143.74570117128098 25.957352633546492 a86.0,86.0 0 0,1 28.547481713284135,27.462654790039103" fill="none" id="id38" stroke="none" /><text fill="#e1ed5e" style="font-size:6.75px; font-family:Arial;" text-anchor="middle"><textPath startOffset="19.985693538727396" xlink:href="#id38">February</textPath></text><line stroke="#e1ed5e" stroke-width="0.3" x1="172.23445277983987" x2="176.4835382374775" y1="55.19839476539836" y2="52.563006222186495" /><path d="M 173.08426987136738 54.67131705675599 a86.0,86.0 0 0,1 12.851231095245387,41.99856678651699" fill="none" id="id39" stroke="none" /><text fill="#e1ed5e" style="font-size:6.75px; font-family:Arial;" text-anchor="middle"><textPath startOffset="22.20632615414155" xlink:href="#id39">March</textPath></text><line stroke="#e1ed5e" stroke-width="0.3" x1="184.98032266829074" x2="189.97916517819016" y1="98.17113171792111" y2="98.06355123074" /><path d="M 185.9800911702706 98.14961562048488 a86.0,86.0 0 0,1 -9.607161424134198,41.387399972396054" fill="none" id="id40" stroke="none" /><text fill="#e1ed5e" style="font-size:6.75px; font-family:Arial;" text-anchor="middle"><textPath startOffset="21.466115282336823" xlink:href="#id40">April</textPath></text><line stroke="#e1ed5e" stroke-width="0.3" x1="174.80103733775053" x2="179.2010983576182" y1="140.37084112569926" y2="142.7455964860345" /><path d="M 175.68104954172406 140.8457921977663 a86.0,86.0 0 0,1 -30.038265399797805,32.042727171017184" fill="none" id="id41" stroke="none" /><text fill="#e1ed5e" style="font-size:6.75px; font-family:Arial;" text-anchor="middle"><textPath startOffset="22.206326154141568" xlink:href="#id41">May</textPath></text><line stroke="#e1ed5e" stroke-width="0.3" x1="143.8653032363475" x2="146.44561519142675" y1="172.8068346515853" y2="177.08958963109032" /><path d="M 144.38136562736335 173.6633856474863 a86.0,86.0 0 0,1 -40.68145358897372,12.25698825130547" fill="none" id="id42" stroke="none" /><text fill="#e1ed5e" style="font-size:6.75px; font-family:Arial;" text-anchor="middle"><textPath startOffset="21.466115282336833" xlink:href="#id42">June</textPath></text><path d="M 104.13013068566511 120.58985236759428 l 0.34434123794116384 1.7166370250440317 a22.750832248931598,22.750832248931598 0 0,0 -0.38463248780081816,0.07371573172006321 l -0.3147411355686413 -1.7223099551125631" fill="#ff1101" stroke="none" /><line stroke="#e1ed5e" stroke-width="0.3" x1="102.19456741930631" x2="102.32365962044197" y1="184.97166512339345" y2="189.96999836594603" /><path d="M 102.22038585953345 185.97133177190398 a86.0,86.0 0 0,1 -42.740103519485714,-10.115201625700543" fill="none" id="id43" stroke="none" /><text fill="#e1ed5e" style="font-size:6.75px; font-family:Arial;" text-anchor="middle"><textPath startOffset="22.20632615414155" xlink:href="#id43">July</textPath></text><path d="M 100.54218724476979 120.99299961872073 l 0.057785673623928294 2.2374090059416853 a23.238155098277403,23.238155098277403 0 0,0 -0.399962189763984,0.006885711813782996 l -0.019263793967276354 -2.238072195034628" fill="#ff1802" stroke="none" /><path d="M 99.09653310690486 120.98055641714683 l -0.0742975232727688 1.725357498533662 a22.726956461440416,22.726956461440416 0 0,0 -0.3907001167251021,-0.020194733298928687 l 0.10398570841135979 -1.7238229584725315" fill="#ff1001" stroke="none" /><line stroke="#e1ed5e" stroke-width="0.3" x1="58.666819895761336" x2="56.23545636021788" y1="174.27360380694188" y2="178.64263932499728" /><path d="M 58.180547188652646 175.14741091055294 a86.0,86.0 0 0,1 -31.652253787137756,-30.449443065178592" fill="none" id="id44" stroke="none" /><text fill="#e1ed5e" style="font-size:6.75px; font-family:Arial;" text-anchor="middle"><textPath startOffset="22.20632615414155" xlink:href="#id44">August</textPath></text><path d="M 84.9287848128048 114.62390073753433 l -0.8321291314804293 0.8074314956314507 a22.1594759642166,22.1594759642166 0 0,0 -0.26326876561654766,-0.2760362482142954 l 0.8459044484759345 -0.7929881308346551" fill="#ff0801" stroke="none" /><path d="M 84.19399662182784 113.82643327865904 l -2.5835879583489367 2.2600151139401703 a24.432578484720143,24.432578484720143 0 0,0 -0.2741771490678159,-0.3189299661521461 l 2.6221076169875315 -2.215208048626494" fill="#ff2903" stroke="none" /><path d="M 83.72743513129214 113.27417163493432 l -0.7062891710407525 0.5761478756381755 a21.91147724476907,21.91147724476907 0 0,0 -0.2358948821647521,-0.2943151359967942 l 0.7161019652603656 -0.5639049060631217" fill="#ff0500" stroke="none" /><path d="M 82.85270091963577 112.12312394758628 l -0.758462665970398 0.5362323749111721 a21.928876081925786,21.928876081925786 0 0,0 -0.21525707726105534,-0.31009387442600433 l 0.7675806503935872 -0.5230972382981552" fill="#ff0500" stroke="none" /><line stroke="#e1ed5e" stroke-width="0.3" x1="26.63291911575756" x2="22.317208475507996" y1="142.92168965132927" y2="145.44649492493687" /><path d="M 25.769776987707644 143.4266507060508 a86.0,86.0 0 0,1 -11.730757126820373,-40.83630448921669" fill="none" id="id45" stroke="none" /><text fill="#e1ed5e" style="font-size:6.75px; font-family:Arial;" text-anchor="middle"><textPath startOffset="21.46611528233685" xlink:href="#id45">September</textPath></text><path d="M 81.51974371655577 109.97397251340807 l -1.3281859865758046 0.7168347840862249 a22.509281326530044,22.509281326530044 0 0,0 -0.18108983913226953,-0.34255373015053553 l 1.3403283339329601 -0.6938660388495633" fill="#ff0d01" stroke="none" /><path d="M 81.35079622478065 109.6543875284942 l -3.130649951609494 1.6206862348225992 a24.52527913664379,24.52527913664379 0 0,0 -0.19085494001778325,-0.37657490306794283 l 3.1580835614135436 -1.5665571200519715" fill="#ff2a04" stroke="none" /><path d="M 81.02952815118164 109.00673069616217 l -1.601547663492703 0.7603768961099937 a22.77288689503217,22.77288689503217 0 0,0 -0.16507673491712196,-0.3555606010957156 l 1.614399015249652 -0.7326962277354511" fill="#ff1101" stroke="none" /><path d="M 80.87730276802145 108.67885076344099 l -1.5836209126020158 0.7187275623102618 a22.73908726165621,22.73908726165621 0 0,0 -0.15869599825090977,-0.3578175815358116 l 1.5957579955842054 -0.6913616442817543" fill="#ff1001" stroke="none" /><path d="M 80.73074385275274 108.34839909993369 l -2.614024026176131 1.1325250783202339 a23.848812851426068,23.848812851426068 0 0,0 -0.15995628046912716,-0.37808939670762054 l 2.633131287837565 -1.0873611559464544" fill="#ff2003" stroke="none" /><path d="M 80.58989483394504 108.01547362559985 l -1.6091448658532082 0.6645022333301085 a22.740951009477993,22.740951009477993 0 0,0 -0.14629728717529975,-0.3630978690158935 l 1.6203447672858957 -0.6367049964714097" fill="#ff1001" stroke="none" /><path d="M 80.45479744820244 107.68017299344265 l -0.5580813427654504 0.21929479858254153 a21.599620708305046,21.599620708305046 0 0,0 -0.13299783410449253,-0.3472153769745847 l 0.561773456463452 -0.209655854774799" fill="#ff0000" stroke="none" /><path d="M 80.32549172779594 107.34259656027581 l -2.0420518256832074 0.7621010143541822 a23.179626943964447,23.179626943964447 0 0,0 -0.1362915031680582,-0.37501568184706124 l 2.05486758985649 -0.7268375355010038" fill="#ff1702" stroke="none" /><path d="M 80.20201598880116 107.00284435728193 l -1.6744118270141943 0.592264616838755 a22.776072167116013,22.776072167116013 0 0,0 -0.12755594866436076,-0.3707372944346841 l 1.6843586066217835 -0.5633546193147739" fill="#ff1101" stroke="none" /><path d="M 79.97269907076064 106.31721596034903 l -0.9899047958126778 0.3122458886211684 a22.03798314038994,22.03798314038994 0 0,0 -0.11100136210545375,-0.36275887385645333 l 0.9951329304242619 -0.2951600422126673" fill="#ff0601" stroke="none" /><path d="M 79.29508885075956 103.50808413554451 l -1.358753077959183 0.2302168834511394 a22.37811818807006,22.37811818807006 0 0,0 -0.06107973691599366,-0.38034358008106056 l 1.3625145692364675 -0.20679407367686514" fill="#ff0b01" stroke="none" /><path d="M 79.1416061653843 102.43462659150553 l -0.6164609605031665 0.07195435367488845 a21.62064607050819,21.62064607050819 0 0,0 -0.039964939072259724,-0.3700257009984751 l 0.6176082010764781 -0.061332330791631286" fill="#ff0000" stroke="none" /><path d="M 79.0235259727143 100.99374915477108 l -62.92942208185711 2.9812474643132365 a84.0,84.0 0 0,0 -0.05599146859519655,-1.4448910119440128 l 62.97141568330351 -1.8975792053552267" fill="#4dd2ff" stroke="none" /><path d="M 79.0095281055655 100.63252640178507 l -1.8271456414304166 0.05505916512613977 a22.827975029004104,22.827975029004104 0 0,0 -0.008454978990657573,-0.3928696504938435 l 1.8278226831060815 -0.023599698842167487" fill="#ff1202" stroke="none" /><line stroke="#e1ed5e" stroke-width="0.3" x1="15.007084014347285" x2="10.007500721073583" y1="101.09737516637583" y2="101.16192664675087" /><path d="M 14.007167355692545 101.11028546245083 a86.0,86.0 0 0,1 10.666146001902534,-42.60595125391555" fill="none" id="id46" stroke="none" /><text fill="#e1ed5e" style="font-size:6.75px; font-family:Arial;" text-anchor="middle"><textPath startOffset="22.20632615414155" xlink:href="#id46">October</textPath></text><path d="M 80.38941819471856 92.48833698450439 l -3.6067124044607475 -1.3815198572446563 a24.862249536792298,24.862249536792298 0 0,0 0.15652141681975615,-0.3983299331992197 l 3.5823974377593 1.4433987953396394" fill="#ff2f04" stroke="none" /><line stroke="#e1ed5e" stroke-width="0.3" x1="26.266209847984243" x2="21.928928074336255" y1="57.711370442889674" y2="55.22380399835377" /><path d="M 25.398753493254645 57.213857153982495 a86.0,86.0 0 0,1 29.58750427330803,-30.492523968695096" fill="none" id="id47" stroke="none" /><text fill="#e1ed5e" style="font-size:6.75px; font-family:Arial;" text-anchor="middle"><textPath startOffset="21.46611528233685" xlink:href="#id47">November</textPath></text><path d="M 88.39885842347998 82.49532879139004 l -2.7954381395598324 -4.217966412550376 a26.060208992671036,26.060208992671036 0 0,0 0.3760525066539129,-0.2445950109087058 l 2.7224186071216323 4.265460347618617" fill="#ff4006" stroke="none" /><line stroke="#e1ed5e" stroke-width="0.3" x1="56.762969772571076" x2="54.21961505331055" y1="26.818313649435495" y2="22.513508569990535" /><path d="M 56.25429882871897 25.957352633546506 a86.0,86.0 0 0,1 42.265352541879196,-11.944610805530505" fill="none" id="id48" stroke="none" /><text fill="#e1ed5e" style="font-size:6.75px; font-family:Arial;" text-anchor="middle"><textPath startOffset="22.20632615414155" xlink:href="#id48">December</textPath></text><path d="M 90.26544431104013 81.39251694778311 l -1.066288106665827 -2.03819655539767 a23.300264229355385,23.300264229355385 0 0,0 0.35698169772408433,-0.18285989081863943 l 1.0310459213529788 2.0562489715288153" fill="#ff1902" stroke="none" /></svg>