<?xml version="1.0" encoding="utf-8" ?>
<svg baseProfile="full" height="200mm" version="1.1" viewBox="0,0,200,200" width="200mm" xmlns="http://www.w3.org/2000/svg" xmlns:ev="http://www.w3.org/2001/xml-events" xmlns:xlink="http://www.w3.org/1999/xlink"><defs /><rect fill="#1a1a1a" height="200" width="200" x="0" y="0" /><text alignment-baseline="middle" fill="#e1ed5e" style="dominant-baseline: central; font-size:9.0px; font-family:Arial;" text-anchor="middle" x="100.0" y="100.0">2023</text><line stroke="#e1ed5e" stroke-width="0.3" x1="100.0" x2="100.0" y1="15.0" y2="10.0" /><path d="M 100.0 14.0 a86.0,86.0 0 0,1 42.46469731375804,11.215312516191453" fill="none" id="id61" stroke="none" /><text fill="#e1ed5e" style="font-size:6.75px; font-family:Arial;" text-anchor="middle"><textPath startOffset="22.20632615414155" xlink:href="#id61">January</textPath></text><line stroke="#e1ed5e" stroke-width="0.3" x1="143.23703022742887" x2="145.7803849466894" y1="26.81831364943548" y2="22.513508569990506" /><path d="M 143.74570117128098 25.957352633546492 a86.0,86.0 0 0,1 28.547481713284135,27.462654790039103" fill="none" id="id62" stroke="none" /><text fill="#e1ed5e" style="font-size:6.75px; font-family:Arial;" text-anchor="middle"><textPath startOffset="19.985693538727396" xlink:href="#id62">February</textPath></text><line stroke="#e1ed5e" stroke-width="0.3" x1="172.23445277983987" x2="176.4835382374775" y1="55.19839476539836" y2="52.563006222186495" /><path d="M 173.08426987136738 54.67131705675599 a86.0,86.0 0 0,1 12.851231095245387,41.99856678651699" fill="none" id="id63" stroke="none" /><text fill="#e1ed5e" style="font-size:6.75px; font-family:Arial;" text-anchor="middle"><textPath startOffset="22.20632615414155" xlink:href="#id63">March</textPath></text><path d="M 118.89224826269711 90.83032412892265 l 3.026671332966551 -1.4690467066529378 a24.364348017689217,24.364348017689217 0 0,0 0.17988059631097922,0.37887441110237047 l -3.0515101231192867 1.4167298799100272" fill="#ff1b02" stroke="none" /><path d="M 119.04729006885535 91.15688171328212 l 8.202679307040354 -3.8082721015929817 a30.043610131685213,30.043610131685213 0 0,0 0.21373551160620402,0.4709378681085899 l -8.267017135609905 3.666512224642329" fill="#ff6b09" stroke="none" /><path d="M 119.196687751892 91.48605970444005 l 2.6994606950543387 -1.1972402471170163 a23.953044573564725,23.953044573564725 0 0,0 0.16391785870350545,0.3783450178479358 l -2.7196692636005246 1.1505960846824779" fill="#ff1502" stroke="none" /><path d="M 119.61058180528143 92.48833698450437 l 57.03227736682544 -21.84571844117826 a82.0730388621505,82.0730388621505 0 0,0 0.4939835961858864,1.3236304445858453 l -57.399865551512946 20.860764859563083" fill="#4be4ff" stroke="none" /><path d="M 119.7369772167798 92.82701384747503 l 8.05896013423336 -2.9288582953554294 a29.574674883599663,29.574674883599663 0 0,0 0.1697683782509259,0.47995806657104534 l -8.108181593294095 2.7897026023577696" fill="#ff6509" stroke="none" /><path d="M 120.37134235888165 94.90015583598534 l 61.11402707664495 -15.299532492043943 a84.0,84.0 0 0,0 0.33906879895672226,1.4056590733623755 l -61.36832867586249 14.245288187022162" fill="#4dd2ff" stroke="none" /><line stroke="#e1ed5e" stroke-width="0.3" x1="184.98032266829074" x2="189.97916517819016" y1="98.17113171792111" y2="98.06355123074" /><path d="M 185.9800911702706 98.14961562048488 a86.0,86.0 0 0,1 -9.607161424134198,41.387399972396054" fill="none" id="id64" stroke="none" /><text fill="#e1ed5e" style="font-size:6.75px; font-family:Arial;" text-anchor="middle"><textPath startOffset="21.466115282336823" xlink:href="#id64">April</textPath></text><path d="M 120.92983693683757 101.71520430193887 l 8.167011383998455 0.6692882081256413 a29.194389644866565,29.194389644866565 0 0,0 -0.04535613088610204,0.5005011248627071 l -8.154280656835278 -0.809770721536919" fill="#ff5f08" stroke="none" /><path d="M 120.8583938346157 102.4346265915055 l 9.881456320926885 1.1533800978387765 a30.948540831321772,30.948540831321772 0 0,0 -0.0663160775438941,0.5286043869955593 l -9.860138734136143 -1.3233022391217306" fill="#ff770b" stroke="none" /><path d="M 120.64145759157962 103.86396538481128 l 7.256572749237792 1.3583898225703699 a28.38261951986172,28.38261951986172 0 0,0 -0.09402765439633351,0.4794449840249686 l -7.232115161865795 -1.4830985336632834" fill="#ff5407" stroke="none" /><path d="M 120.32669344350535 105.2749913415812 l 7.295198357303693 1.8931809188173678 a28.536846360632588,28.536846360632588 0 0,0 -0.1274807834395284,0.4744034191939617 l -7.261529497522388 -2.018475271186878" fill="#ff5608" stroke="none" /><path d="M 120.02730092923936 106.31721596034902 l 51.6215213833848 16.28298790400221 a75.12870924950212,75.12870924950212 0 0,0 -0.39964090449127365,1.2299682325346295 l -51.333588227877286 -17.169155036514635" fill="#42ffd6" stroke="none" /><path d="M 119.41010516605496 108.01547362559984 l 50.05014945088671 20.668391513019817 a75.14979102260288,75.14979102260288 0 0,0 -0.5040368728160308,1.1913942772518453 l -49.68696159687836 -21.526860315937824" fill="#42ffd6" stroke="none" /><path d="M 119.26925614724726 108.34839909993367 l 7.1300384449282035 3.0890868895649874 a28.770450825881113,28.770450825881113 0 0,0 -0.20078886023016143,0.4527258731079877 l -7.075808499966769 -3.211361099165663" fill="#ff5908" stroke="none" /><line stroke="#e1ed5e" stroke-width="0.3" x1="174.80103733775053" x2="179.2010983576182" y1="140.37084112569926" y2="142.7455964860345" /><path d="M 175.68104954172406 140.8457921977663 a86.0,86.0 0 0,1 -30.038265399797805,32.042727171017184" fill="none" id="id65" stroke="none" /><text fill="#e1ed5e" style="font-size:6.75px; font-family:Arial;" text-anchor="middle"><textPath startOffset="22.206326154141568" xlink:href="#id65">May</textPath></text><path d="M 117.55443506779139 111.5257021239791 l 5.769295337570762 3.7879418659337216 a27.90168619047615,27.90168619047615 0 0,0 -0.26705487038525116,0.3992107967453185 l -5.703237361774789 -3.886689576884847" fill="#ff4d07" stroke="none" /><path d="M 117.14729908036423 112.12312394758627 l 44.29355524591714 31.315500931596706 a75.2455494480418,75.2455494480418 0 0,0 -0.7568276465346302,1.051167407020031 l -43.74794780700691 -32.073301944067865" fill="#42ffd7" stroke="none" /><path d="M 116.71984013943494 112.70617746262583 l 43.786000526019784 33.27500074298185 a75.99490445950468,75.99490445950468 0 0,0 -0.8004549901241259,1.0346959771539666 l -43.20673871867759 -34.02377471424907" fill="#43ffdf" stroke="none" /><path d="M 116.498646956653 112.99209946851258 l 6.702942222042518 5.278329326596831 a29.531716996715986,29.531716996715986 0 0,0 -0.3179329637725099,0.3966702567341755 l -6.611091346215154 -5.392927416909257" fill="#ff6409" stroke="none" /><path d="M 115.07121518719521 114.62390073753431 l 5.364113251466165 5.204906091512874 a28.47427310151447,28.47427310151447 0 0,0 -0.34434802851707574,0.34882273487406 l -5.273724597893554 -5.296469320367598" fill="#ff5507" stroke="none" /><path d="M 114.55890576462653 115.13401014063108 l 6.695548669944755 6.9600355346919995 a30.657767166160838,30.657767166160838 0 0,0 -0.3834617539114538,0.3625870227991666 l -6.574751081642494 -7.074257194237088" fill="#ff730a" stroke="none" /><path d="M 114.29624159901734 115.38237550388516 l 1.2513418826058675 1.3464105645294284 a22.838118036318683,22.838118036318683 0 0,0 -0.2902620949153522,0.26514754165732946 l -1.2279802382236513 -1.3677508727733407" fill="#ff0400" stroke="none" /><path d="M 113.48314897796784 116.09983520530334 l 35.20506777294101 42.037345316146784 a75.8318812200196,75.8318812200196 0 0,0 -1.007949678912301,0.8294739648800556 l -34.47624796548401 -42.63711439988402" fill="#43ffdd" stroke="none" /><path d="M 113.20401910651253 116.32954008644616 l 10.85781901496225 13.427971394615247 a38.268545090316124,38.268545090316124 0 0,0 -0.5157916644010562,0.4097760929132257 l -10.625069857843842 -13.612881401533599" fill="#ffd814" stroke="none" /><line stroke="#e1ed5e" stroke-width="0.3" x1="143.8653032363475" x2="146.44561519142675" y1="172.8068346515853" y2="177.08958963109032" /><path d="M 144.38136562736335 173.6633856474863 a86.0,86.0 0 0,1 -40.68145358897372,12.25698825130547" fill="none" id="id66" stroke="none" /><text fill="#e1ed5e" style="font-size:6.75px; font-family:Arial;" text-anchor="middle"><textPath startOffset="21.466115282336833" xlink:href="#id66">June</textPath></text><path d="M 108.59647513512805 119.15986991738527 l 3.953054159676287 8.810588326636072 a30.65676466787867,30.65676466787867 0 0,0 -0.4833248077817753,0.2118753921247311 l -3.800808677236758 -8.877328272055257" fill="#ff730a" stroke="none" /><path d="M 107.93186726928326 119.44442032107085 l 1.1515965198404465 2.823058683643787 a24.04890716090294,24.04890716090294 0 0,0 -0.38464385997967315,0.153057730030484 l -1.1028315838189071 -2.8424632580803397" fill="#ff1602" stroke="none" /><path d="M 107.59598834532513 119.57807347666477 l 8.926983861146129 23.00861165302891 a45.67969309081985,45.67969309081985 0 0,0 -0.7355078352636818,0.2781061283930172 l -8.529605805122172 -23.158866031528557" fill="#ccff1d" stroke="none" /><path d="M 107.2578585660854 119.70592522655815 l 18.514064128176603 50.267824872526944 a74.56887891264175,74.56887891264175 0 0,0 -1.208301470463897,0.43325391800118496 l -17.64604309708297 -50.579066331568086" fill="#41ffd0" stroke="none" /><path d="M 106.91757812671514 119.82793768551818 l 4.299681218666669 12.32422817778843 a34.05273376578061,34.05273376578061 0 0,0 -0.5551086402027231,0.18832298988148527 l -4.086902845526719 -12.396414154568038" fill="#ffa10e" stroke="none" /><path d="M 106.2309692047433 120.05430185196036 l 6.4725413753337095 20.83179907091071 a42.8141615558839,42.8141615558839 0 0,0 -0.7056691791833218,0.2126123349953898 l -6.112997221710142 -20.940126775011823" fill="#eeff19" stroke="none" /><path d="M 105.88484417918355 120.15858648285463 l 3.0915233221729763 10.590040850059045 a32.032066064770405,32.032066064770405 0 0,0 -0.5306170192927514,0.1499576698422788 l -2.9087751347756194 -10.641687313239844" fill="#ff860c" stroke="none" /><path d="M 104.83641907484287 120.43548508189849 l 2.4112658738523565 10.188403244440044 a31.469850227473238,31.469850227473238 0 0,0 -0.5282137193718464,0.12021972281280735 l -2.235532005087648 -10.228399700830536" fill="#ff7e0b" stroke="none" /><path d="M 103.7750983002368 120.6578951692458 l 5.985715603403551 32.754719377843166 a54.29715352407895,54.29715352407895 0 0,0 -0.920856527320987,0.16010271087972036 l -5.421010104610514 -32.852900667243894" fill="#6cff28" stroke="none" /><path d="M 102.70371172650421 120.8252237178851 l 1.8451718385112275 14.212357019518903 a35.331634629863515,35.331634629863515 0 0,0 -0.603788322258391,0.07311035724332383 l -1.6002560932014562 -14.242012905487579" fill="#ffb210" stroke="none" /><path d="M 101.98527174616119 120.90594882070398 l 0.6787573368653236 7.147669417862982 a28.179825180977755,28.179825180977755 0 0,0 -0.4832916268561489,0.04170043515025871 l -0.555621392267633 -7.158294105291905" fill="#ff5107" stroke="none" /><line stroke="#e1ed5e" stroke-width="0.3" x1="102.19456741930631" x2="102.32365962044197" y1="184.97166512339345" y2="189.96999836594603" /><path d="M 102.22038585953345 185.97133177190398 a86.0,86.0 0 0,1 -42.740103519485714,-10.115201625700543" fill="none" id="id67" stroke="none" /><text fill="#e1ed5e" style="font-size:6.75px; font-family:Arial;" text-anchor="middle"><textPath startOffset="22.20632615414155" xlink:href="#id67">July</textPath></text><path d="M 96.93821686468263 120.77559828337769 l -2.353984002869705 15.972857595627591 a37.145383874530964,37.145383874530964 0 0,0 -0.6317618548798555,-0.09866820889346951 l 2.6285817213580778 -15.929971079387016" fill="#ffc912" stroke="none" /><path d="M 95.51606077576429 120.51570834832081 l -0.8227692108946346 3.7644785811229466 a24.853342466240136,24.853342466240136 0 0,0 -0.4171572590280165,-0.09494363400734164 l 0.8874466193155137 -3.749758213537918" fill="#ff2203" stroke="none" /><path d="M 93.76903079525671 120.05430185196036 l -0.45514542943153524 1.4648802663655884 a22.533959437768722,22.533959437768722 0 0,0 -0.3694267259528726,-0.11827877153861358 l 0.48029350047534825 -1.4568286481672683" fill="#ff0000" stroke="none" /><path d="M 92.7421414339146 119.70592522655815 l -5.655149952090627 15.35438601981164 a37.362698158495064,37.362698158495064 0 0,0 -0.6015924228634342,-0.22747077810958413 l 5.918612595714345 -15.254766991595423" fill="#ffcc13" stroke="none" /><path d="M 90.42595943632237 118.69057910512821 l -8.525803038362051 16.644194795644065 a39.70076302839776,39.70076302839776 0 0,0 -0.6055483606969313,-0.31679428233365325 l 8.811042301585477 -16.494971094365695" fill="#ffea16" stroke="none" /><line stroke="#e1ed5e" stroke-width="0.3" x1="58.666819895761336" x2="56.23545636021788" y1="174.27360380694188" y2="178.64263932499728" /><path d="M 58.180547188652646 175.14741091055294 a86.0,86.0 0 0,1 -31.652253787137756,-30.449443065178592" fill="none" id="id68" stroke="none" /><text fill="#e1ed5e" style="font-size:6.75px; font-family:Arial;" text-anchor="middle"><textPath startOffset="22.20632615414155" xlink:href="#id68">August</textPath></text><path d="M 87.65650970185807 116.9893568818739 l -3.3093832460113353 4.554975267720209 a26.63025906673248,26.63025906673248 0 0,0 -0.3685311203066551,-0.27263051246810044 l 3.3872993367365547 -4.497334806512343" fill="#ff3b05" stroke="none" /><path d="M 87.36589467227662 116.77436683061367 l -2.9051962425527513 3.8572440409028825 a25.828922943972437,25.828922943972437 0 0,0 -0.35283695078957744,-0.27054032812601925 l 2.9711619218358156 -3.8066643709494965" fill="#ff3004" stroke="none" /><path d="M 87.07902340077011 116.55440617244103 l -3.1443525045779563 4.028556828530918 a26.110403388554445,26.110403388554445 0 0,0 -0.35192162101226854,-0.2795878197014958 l 3.213231618307583 -3.9738350948242913" fill="#ff3404" stroke="none" /><path d="M 85.70375840098266 115.38237550388516 l -4.374753972473262 4.707118851875203 a27.426152830842845,27.426152830842845 0 0,0 -0.34304131186586995,-0.32436697192828107 l 4.455131118729949 -4.631117243200991" fill="#ff4706" stroke="none" /><path d="M 82.85270091963577 112.12312394758628 l -5.567109511342442 3.9359410668398596 a27.817942533705896,27.817942533705896 0 0,0 -0.2730650208816202,-0.3933705287315962 l 5.634035439386196 -3.8395292759212505" fill="#ff4c07" stroke="none" /><line stroke="#e1ed5e" stroke-width="0.3" x1="26.63291911575756" x2="22.317208475507996" y1="142.92168965132927" y2="145.44649492493687" /><path d="M 25.769776987707644 143.4266507060508 a86.0,86.0 0 0,1 -11.730757126820373,-40.83630448921669" fill="none" id="id69" stroke="none" /><text fill="#e1ed5e" style="font-size:6.75px; font-family:Arial;" text-anchor="middle"><textPath startOffset="21.46611528233685" xlink:href="#id69">September</textPath></text><path d="M 81.35079622478065 109.6543875284942 l -6.334138752375572 3.2790799495656877 a28.13257870969467,28.13257870969467 0 0,0 -0.21892683024194548,-0.4319634056611314 l 6.389644252403785 -3.1695623322018713" fill="#ff5007" stroke="none" /><path d="M 80.32549172779594 107.34259656027581 l -12.452655393924045 4.647375344618137 a34.29160351325566,34.29160351325566 0 0,0 -0.20162767071976598,-0.5547927541819706 l 12.530807325649036 -4.43233479343005" fill="#ffa40f" stroke="none" /><path d="M 79.76711848015287 105.62410040840567 l -31.521253419983882 8.761910361551385 a53.71636425935356,53.71636425935356 0 0,0 -0.23996359348075658,-0.8929937999897979 l 31.66740508980641 -8.218025628386048" fill="#73ff27" stroke="none" /><path d="M 79.0095281055655 100.63252640178507 l -1.692546475149982 0.051003156916376365 a22.693314764761137,22.693314764761137 0 0,0 -0.008405103795700329,-0.3905521461649958 l 1.6931736416306897 -0.021861194961251735" fill="#ff0200" stroke="none" /><line stroke="#e1ed5e" stroke-width="0.3" x1="15.007084014347285" x2="10.007500721073583" y1="101.09737516637583" y2="101.16192664675087" /><path d="M 14.007167355692545 101.11028546245083 a86.0,86.0 0 0,1 10.666146001902534,-42.60595125391555" fill="none" id="id70" stroke="none" /><text fill="#e1ed5e" style="font-size:6.75px; font-family:Arial;" text-anchor="middle"><textPath startOffset="22.20632615414155" xlink:href="#id70">October</textPath></text><path d="M 79.00019446554 99.90962569577889 l -2.2017192556221126 -0.009475270877655198 a23.20173964431206,23.20173964431206 0 0,0 0.00515630256079149,-0.3993613157780824 l 2.2012299459436058 0.0473728447162096" fill="#ff0a01" stroke="none" /><path d="M 79.46518482838121 95.60439243477599 l -1.9475113341744321 -0.41687716603790576 a22.99162922460524,22.99162922460524 0 0,0 0.08617001294973442,-0.3862832718120892 l 1.94004693422266 0.4503386073999542" fill="#ff0701" stroke="none" /><path d="M 80.14247586403 93.16781622104843 l -12.86423526173509 -4.426071391480144 a34.60436168409777,34.60436168409777 0 0,0 0.19864043769338363,-0.5615832665682169 l 12.786141743231896 4.6468522844749724" fill="#ffa80f" stroke="none" /><path d="M 80.2630227832202 92.82701384747504 l -3.656030158402249 -1.3287066915767385 a24.889989459032964,24.889989459032964 0 0,0 0.1498085933268868,-0.40141254996943065 l 3.632616976573735 1.3914423785755106" fill="#ff2203" stroke="none" /><path d="M 80.38941819471856 92.48833698450439 l -50.5927957497333 -19.379130943552415 a75.17731718996043,75.17731718996043 0 0,0 0.47328220167156143,-1.20445157989662 l 50.25171999818004 20.2471315283448" fill="#42ffd7" stroke="none" /><path d="M 80.65960295795068 91.81776055985345 l -51.45752752184445 -21.76986388988053 a76.87310723814547,76.87310723814547 0 0,0 0.526065698732446,-1.214232163294235 l 51.07517111326932 22.65239519776136" fill="#44ffe8" stroke="none" /><path d="M 81.10775173730289 90.83032412892265 l -17.21320912354045 -8.354725502712803 a40.133635476730916,40.133635476730916 0 0,0 0.30700317538640515,-0.618899667991296 l 17.066845935200632 8.64978475920306" fill="#ffef16" stroke="none" /><path d="M 81.26839172434947 90.50648371742162 l -1.7142846584188909 -0.8688303256282387 a22.92188397798141,22.92188397798141 0 0,0 0.18140004244470623,-0.35040714352932395 l 1.6990751828140707 0.8982101914178982" fill="#ff0600" stroke="none" /><path d="M 81.43458229118936 90.18545643968196 l -48.48315307665388 -25.63045040384772 a75.8410076508296,75.8410076508296 0 0,0 0.6200612743217788,-1.1488793703312536 l 48.034783703113625 26.46121075751145" fill="#43ffdd" stroke="none" /><line stroke="#e1ed5e" stroke-width="0.3" x1="26.266209847984243" x2="21.928928074336255" y1="57.711370442889674" y2="55.22380399835377" /><path d="M 25.398753493254645 57.213857153982495 a86.0,86.0 0 0,1 29.58750427330803,-30.492523968695096" fill="none" id="id71" stroke="none" /><text fill="#e1ed5e" style="font-size:6.75px; font-family:Arial;" text-anchor="middle"><textPath startOffset="21.46611528233685" xlink:href="#id71">November</textPath></text><path d="M 86.37877921826538 84.01681056812374 l -2.6472153814241675 -3.1062520449720568 a25.08124381072018,25.08124381072018 0 0,0 0.3310036993253362,-0.2772060790281791 l 2.5933541451397213 3.1513592813940483" fill="#ff2503" stroke="none" /><path d="M 87.51073957382395 83.11751280151077 l -1.7492886156577192 -2.364619012860684 a23.941331966448523,23.941331966448523 0 0,0 0.33341688887222837,-0.24224154932091202 l 1.708326410431709 2.3943797969982636" fill="#ff1502" stroke="none" /><line stroke="#e1ed5e" stroke-width="0.3" x1="56.762969772571076" x2="54.21961505331055" y1="26.818313649435495" y2="22.513508569990535" /><path d="M 56.25429882871897 25.957352633546506 a86.0,86.0 0 0,1 42.265352541879196,-11.944610805530505" fill="none" id="id72" stroke="none" /><text fill="#e1ed5e" style="font-size:6.75px; font-family:Arial;" text-anchor="middle"><textPath startOffset="22.20632615414155" xlink:href="#id72">December</textPath></text></svg>