<?xml version="1.0" encoding="utf-8" ?>
<svg baseProfile="full" height="200mm" version="1.1" viewBox="0,0,200,200" width="200mm" xmlns="http://www.w3.org/2000/svg" xmlns:ev="http://www.w3.org/2001/xml-events" xmlns:xlink="http://www.w3.org/1999/xlink"><defs /><rect fill="#1a1a1a" height="200" width="200" x="0" y="0" /><text alignment-baseline="middle" fill="#e1ed5e" style="dominant-baseline: central; font-size:9.0px; font-family:Arial;" text-anchor="middle" x="100.0" y="100.0">2025</text><line stroke="#e1ed5e" stroke-width="0.3" x1="100.0" x2="100.0" y1="15.0" y2="10.0" /><path d="M 100.0 14.0 a86.0,86.0 0 0,1 42.46469731375804,11.215312516191453" fill="none" id="id85" stroke="none" /><text fill="#e1ed5e" style="font-size:6.75px; font-family:Arial;" text-anchor="middle"><textPath startOffset="22.20632615414155" xlink:href="#id85">January</textPath></text><path d="M 108.09893153111575 80.62456947434976 l 0.5859155486541465 -1.4017115669185933 a22.519240713971314,22.519240713971314 0 0,0 0.3563575929277279,0.1525737237477799 l -0.6099568993721897 1.3914183152080226" fill="#ff0000" stroke="none" /><path d="M 110.36928655335952 81.73862282372117 l 0.8026140398010932 -1.41348564651596 a22.62546330927292,22.62546330927292 0 0,0 0.3370151834583998,0.19522094708401072 l -0.8268259557248213 1.3994605420418997" fill="#ff0200" stroke="none" /><line stroke="#e1ed5e" stroke-width="0.3" x1="143.23703022742887" x2="145.7803849466894" y1="26.81831364943548" y2="22.513508569990506" /><path d="M 143.74570117128098 25.957352633546492 a86.0,86.0 0 0,1 28.547481713284135,27.462654790039103" fill="none" id="id86" stroke="none" /><text fill="#e1ed5e" style="font-size:6.75px; font-family:Arial;" text-anchor="middle"><textPath startOffset="19.985693538727396" xlink:href="#id86">February</textPath></text><path d="M 110.99172775467656 82.1063720568725 l 1.3357138663252601 -2.174432218113452 a23.551918298822155,23.551918298822155 0 0,0 0.34361222341201597,0.21516994277755846 l -1.3729452421095394 2.1511179340129494" fill="#ff0f01" stroke="none" /><path d="M 111.90073688211348 82.69761687909136 l 3.662113087687417 -5.324315990087548 a27.462152352685088,27.462152352685088 0 0,0 0.38717562626855395,0.2712412689653778 l -3.753219853539622 5.260489878358235" fill="#ff4706" stroke="none" /><path d="M 115.4437574822437 85.77008943001954 l 43.32724340262973 -39.921813041422155 a79.91520327882257,79.91520327882257 0 0,0 0.9234253470032636,1.0196693320641859 l -44.008012390249036 39.17009092208842" fill="#48f8ff" stroke="none" /><line stroke="#e1ed5e" stroke-width="0.3" x1="172.23445277983987" x2="176.4835382374775" y1="55.19839476539836" y2="52.563006222186495" /><path d="M 173.08426987136738 54.67131705675599 a86.0,86.0 0 0,1 12.851231095245387,41.99856678651699" fill="none" id="id87" stroke="none" /><text fill="#e1ed5e" style="font-size:6.75px; font-family:Arial;" text-anchor="middle"><textPath startOffset="22.20632615414155" xlink:href="#id87">March</textPath></text><path d="M 117.84615892207809 88.93136811851018 l 10.615648510743128 -6.584089386503065 a33.491686289412854,33.491686289412854 0 0,0 0.2996456544064073,0.4925386693242491 l -10.72740996343576 6.400382943971734" fill="#ff9a0e" stroke="none" /><path d="M 120.18372546131832 94.20196356495316 l 57.4025833715494 -16.489635200989255 a80.7240709160836,80.7240709160836 0 0,0 0.37215038087695135,1.3388229258132787 l -57.677920522992714 15.499100971757025" fill="#49f1ff" stroke="none" /><path d="M 120.28053869075195 94.5502522615342 l 54.63144224256528 -14.680457129391268 a77.56951743678428,77.56951743678428 0 0,0 0.3354093675385966,1.292469115218171 l -54.87604794197418 13.737891588624246" fill="#45ffef" stroke="none" /><path d="M 120.37134235888165 94.90015583598534 l 56.60454893508383 -14.170611511882543 a79.3513598021931,79.3513598021931 0 0,0 0.32030440790133746,1.3278685582094667 l -56.84008614324598 13.19415772201367" fill="#47feff" stroke="none" /><path d="M 120.6074358757038 95.95851677861258 l 12.742777605326491 -2.499084417703649 a33.98552286300477,33.98552286300477 0 0,0 0.10764392622750897,0.5750381581963276 l -12.783907255463859 2.279368182044758" fill="#ffa00e" stroke="none" /><path d="M 120.73433829027371 96.67025291283417 l 57.70893498153497 -9.267532701940484 a79.44833906181225,79.44833906181225 0 0,0 0.2052192461971227,1.3521384237936434 l -57.859910121171396 8.272795165754758" fill="#47fdff" stroke="none" /><path d="M 120.78858239683441 97.02765380044208 l 62.36574719050324 -8.917038598673738 a84.0,84.0 0 0,0 0.19233600376865523,1.4331266317413425 l -62.50999919332973 7.84219362486773" fill="#4dd2ff" stroke="none" /><path d="M 120.83666639777658 97.38593545837742 l 59.63858579134876 -7.481960379531554 a81.10607828092718,81.10607828092718 0 0,0 0.1618631957150925,1.3867450126991223 l -59.758539340067436 6.454271628507579" fill="#49edff" stroke="none" /><path d="M 120.91429891909075 98.10471618934814 l 7.981116074228345 -0.7232602032196623 a29.01382050659156,29.01382050659156 0 0,0 0.040792763182173536,0.497775035102704 l -7.9923833212300135 0.5857712509091896" fill="#ff5d08" stroke="none" /><path d="M 120.98425023603335 99.18683210126433 l 59.329809373834976 -2.299109850399349 a80.374339461082,80.374339461082 0 0,0 0.041673350760855474,1.3829356299183733 l -59.36059441905147 1.2775040730559764" fill="#48f4ff" stroke="none" /><line stroke="#e1ed5e" stroke-width="0.3" x1="184.98032266829074" x2="189.97916517819016" y1="98.17113171792111" y2="98.06355123074" /><path d="M 185.9800911702706 98.14961562048488 a86.0,86.0 0 0,1 -9.607161424134198,41.387399972396054" fill="none" id="id88" stroke="none" /><text fill="#e1ed5e" style="font-size:6.75px; font-family:Arial;" text-anchor="middle"><textPath startOffset="21.466115282336823" xlink:href="#id88">April</textPath></text><path d="M 120.99980553446 99.90962569577887 l 60.70693905318254 -0.26125705637240326 a81.70750122065908,81.70750122065908 0 0,0 -0.006052980053186437,1.4064993929013867 l -60.70244177583985 -0.7837518147326681" fill="#4ae7ff" stroke="none" /><path d="M 120.9904718944345 100.63252640178507 l 2.3862734278523043 0.07190790910207917 a23.3873566176559,23.3873566176559 0 0,0 -0.015589195756927672,0.40228787345213646 l -2.3846820992441735 -0.11297302956822179" fill="#ff0d01" stroke="none" /><path d="M 120.64145759157962 103.86396538481128 l 3.8824959294185284 0.7267815177966728 a24.949934938269525,24.949934938269525 0 0,0 -0.08265564980515383,0.42145937761423785 l -3.8694103466377103 -0.7935046224788556" fill="#ff2303" stroke="none" /><path d="M 120.5718875245553 104.21870165774334 l 2.250216420941461 0.4614545813540865 a23.297044682135564,23.297044682135564 0 0,0 -0.08394253717873279,0.39215158778947384 l -2.241939845038285 -0.5001199885597294" fill="#ff0b01" stroke="none" /><path d="M 120.49622156327973 104.57218783832717 l 1.9946594557709185 0.4449579976057175 a23.043686366380523,23.043686366380523 0 0,0 -0.08969418487913235,0.38640020094438776 l -1.9867047049612334 -0.4792268558986702" fill="#ff0801" stroke="none" /><path d="M 120.41448212921028 104.9243191809786 l 1.8078762396373704 0.4360903983424319 a22.85972883329044,22.85972883329044 0 0,0 -0.09556312142123188,0.3817271667028383 l -1.8001018039210779 -0.4671454044426661" fill="#ff0500" stroke="none" /><path d="M 119.41010516605496 108.01547362559984 l 4.3665838774056285 1.8031967165496794 a25.724253714291212,25.724253714291212 0 0,0 -0.1725350426294295,0.4078218747483027 l -4.33489785358389 -1.8780931169641457" fill="#ff2f04" stroke="none" /><path d="M 119.26925614724726 108.34839909993367 l 1.6372140432354076 0.709322463747404 a22.784266846899285,22.784266846899285 0 0,0 -0.15901130639403716,0.3585285181596369 l -1.6247616521100976 -0.7373993183997286" fill="#ff0400" stroke="none" /><line stroke="#e1ed5e" stroke-width="0.3" x1="174.80103733775053" x2="179.2010983576182" y1="140.37084112569926" y2="142.7455964860345" /><path d="M 175.68104954172406 140.8457921977663 a86.0,86.0 0 0,1 -30.038265399797805,32.042727171017184" fill="none" id="id89" stroke="none" /><text fill="#e1ed5e" style="font-size:6.75px; font-family:Arial;" text-anchor="middle"><textPath startOffset="22.206326154141568" xlink:href="#id89">May</textPath></text><line stroke="#e1ed5e" stroke-width="0.3" x1="143.8653032363475" x2="146.44561519142675" y1="172.8068346515853" y2="177.08958963109032" /><path d="M 144.38136562736335 173.6633856474863 a86.0,86.0 0 0,1 -40.68145358897372,12.25698825130547" fill="none" id="id90" stroke="none" /><text fill="#e1ed5e" style="font-size:6.75px; font-family:Arial;" text-anchor="middle"><textPath startOffset="21.466115282336833" xlink:href="#id90">June</textPath></text><line stroke="#e1ed5e" stroke-width="0.3" x1="102.19456741930631" x2="102.32365962044197" y1="184.97166512339345" y2="189.96999836594603" /><path d="M 102.22038585953345 185.97133177190398 a86.0,86.0 0 0,1 -42.740103519485714,-10.115201625700543" fill="none" id="id91" stroke="none" /><text fill="#e1ed5e" style="font-size:6.75px; font-family:Arial;" text-anchor="middle"><textPath startOffset="22.20632615414155" xlink:href="#id91">July</textPath></text><line stroke="#e1ed5e" stroke-width="0.3" x1="58.666819895761336" x2="56.23545636021788" y1="174.27360380694188" y2="178.64263932499728" /><path d="M 58.180547188652646 175.14741091055294 a86.0,86.0 0 0,1 -31.652253787137756,-30.449443065178592" fill="none" id="id92" stroke="none" /><text fill="#e1ed5e" style="font-size:6.75px; font-family:Arial;" text-anchor="middle"><textPath startOffset="22.20632615414155" xlink:href="#id92">August</textPath></text><line stroke="#e1ed5e" stroke-width="0.3" x1="26.63291911575756" x2="22.317208475507996" y1="142.92168965132927" y2="145.44649492493687" /><path d="M 25.769776987707644 143.4266507060508 a86.0,86.0 0 0,1 -11.730757126820373,-40.83630448921669" fill="none" id="id93" stroke="none" /><text fill="#e1ed5e" style="font-size:6.75px; font-family:Arial;" text-anchor="middle"><textPath startOffset="21.46611528233685" xlink:href="#id93">September</textPath></text><line stroke="#e1ed5e" stroke-width="0.3" x1="15.007084014347285" x2="10.007500721073583" y1="101.09737516637583" y2="101.16192664675087" /><path d="M 14.007167355692545 101.11028546245083 a86.0,86.0 0 0,1 10.666146001902534,-42.60595125391555" fill="none" id="id94" stroke="none" /><text fill="#e1ed5e" style="font-size:6.75px; font-family:Arial;" text-anchor="middle"><textPath startOffset="22.20632615414155" xlink:href="#id94">October</textPath></text><line stroke="#e1ed5e" stroke-width="0.3" x1="26.266209847984243" x2="21.928928074336255" y1="57.711370442889674" y2="55.22380399835377" /><path d="M 25.398753493254645 57.213857153982495 a86.0,86.0 0 0,1 29.58750427330803,-30.492523968695096" fill="none" id="id95" stroke="none" /><text fill="#e1ed5e" style="font-size:6.75px; font-family:Arial;" text-anchor="middle"><textPath startOffset="21.46611528233685" xlink:href="#id95">November</textPath></text><line stroke="#e1ed5e" stroke-width="0.3" x1="56.762969772571076" x2="54.21961505331055" y1="26.818313649435495" y2="22.513508569990535" /><path d="M 56.25429882871897 25.957352633546506 a86.0,86.0 0 0,1 42.265352541879196,-11.944610805530505" fill="none" id="id96" stroke="none" /><text fill="#e1ed5e" style="font-size:6.75px; font-family:Arial;" text-anchor="middle"><textPath startOffset="22.20632615414155" xlink:href="#id96">December</textPath></text></svg>