<?xml version="1.0" encoding="utf-8" ?>
<svg baseProfile="full" height="200mm" version="1.1" viewBox="0,0,200,200" width="200mm" xmlns="http://www.w3.org/2000/svg" xmlns:ev="http://www.w3.org/2001/xml-events" xmlns:xlink="http://www.w3.org/1999/xlink"><defs /><rect fill="#1a1a1a" height="200" width="200" x="0" y="0" /><text alignment-baseline="middle" fill="#e1ed5e" style="dominant-baseline: central; font-size:9.0px; font-family:Arial;" text-anchor="middle" x="100.0" y="100.0">2024</text><line stroke="#e1ed5e" stroke-width="0.3" x1="100.0" x2="100.0" y1="15.0" y2="10.0" /><path d="M 100.0 14.0 a86.0,86.0 0 0,1 42.35913384403234,11.155469271406648" fill="none" id="id73" stroke="none" /><text fill="#e1ed5e" style="font-size:6.75px; font-family:Arial;" text-anchor="middle"><textPath startOffset="22.145653131862478" xlink:href="#id73">January</textPath></text><path d="M 104.64783097203109 79.52079915486377 l 0.18771489849264977 -0.827106478481814 a21.848140324393725,21.848140324393725 0 0,0 0.3650385685908951,0.08614810823896014 l -0.20188562082342984 0.8237622265966263" fill="#ff0a01" stroke="none" /><path d="M 109.3889696526874 81.21577127319529 l 0.8954947177297902 -1.7915893035895687 a23.0029236186681,23.0029236186681 0 0,0 0.35169583785505254,0.1795784007408474 l -0.9261177772984216 1.7759529511758874" fill="#ff1b02" stroke="none" /><line stroke="#e1ed5e" stroke-width="0.3" x1="143.13028292997686" x2="145.6673583964461" y1="26.7553504044142" y2="22.446841604673864" /><path d="M 143.63769802327073 25.89364864446614 a86.0,86.0 0 0,1 29.32050498858742,28.57503671076993" fill="none" id="id74" stroke="none" /><text fill="#e1ed5e" style="font-size:6.75px; font-family:Arial;" text-anchor="middle"><textPath startOffset="20.669276256404974" xlink:href="#id74">February</textPath></text><path d="M 115.16444852881244 85.47280134310134 l 1.3316899803628692 -1.27572887714156 a22.844148142577414,22.844148142577414 0 0,0 0.26884752127155526,0.2855067509672642 l -1.3533933353706844 1.2526806662298011" fill="#ff1902" stroke="none" /><line stroke="#e1ed5e" stroke-width="0.3" x1="172.87174338648825" x2="177.1583165268699" y1="56.24261187166439" y2="53.66864786411523" /><path d="M 173.72905801456457 55.72781907015455 a86.0,86.0 0 0,1 12.242430191666344,42.057860355516425" fill="none" id="id75" stroke="none" /><text fill="#e1ed5e" style="font-size:6.75px; font-family:Arial;" text-anchor="middle"><textPath startOffset="22.145653131862474" xlink:href="#id75">March</textPath></text><path d="M 118.18653347947321 89.5 l 0.11387989919745432 -0.06574859045693772 a21.131497180913875,21.131497180913875 0 0,0 0.17867851649881697,0.31570781800863335 l -0.11499178071764729 0.0637840023491863" fill="#ff0000" stroke="none" /><path d="M 119.0197475246899 91.09779779509293 l 2.514443981784264 -1.1768867451945924 a23.776236832214757,23.776236832214757 0 0,0 0.16984785200560637,0.371148209289192 l -2.534276298644922 1.1335495536907163" fill="#ff2603" stroke="none" /><path d="M 119.16976305983485 91.42560881287824 l 2.5133259530453205 -1.1241787305816524 a23.753286248202926,23.753286248202926 0 0,0 0.1632937964282257,0.3736481626311017 l -2.5322536314905166 1.0808684981747014" fill="#ff2503" stroke="none" /><path d="M 119.71291397450082 92.76114493625339 l 2.579113403567086 -0.9470861662328698 a23.74750762596377,23.74750762596377 0 0,0 0.13723778511272022,0.3838785100996334 l -2.5949913587237496 0.9026726997523196" fill="#ff2503" stroke="none" /><path d="M 120.43855184770803 95.1765574152323 l 61.3156555431241 -14.470327754303117 a84.0,84.0 0 0,0 0.3191565537693344,1.406262664243895 l -61.555022958451104 13.415630756120196" fill="#4dd2ff" stroke="none" /><path d="M 120.98066250479742 99.09900007780936 l 2.053344092537727 -0.08817943032943178 a23.055236622458057,23.055236622458057 0 0,0 0.013586465217364205,0.39555511066969123 l -2.054555244751939 0.052918055095620586" fill="#ff1c02" stroke="none" /><line stroke="#e1ed5e" stroke-width="0.3" x1="184.99686870605535" x2="189.99668451229388" y1="99.2704041080226" y2="99.22748670261217" /><path d="M 185.99683186730306 99.26182062694052 a86.0,86.0 0 0,1 -10.086455211305974,41.156179273409016" fill="none" id="id76" stroke="none" /><text fill="#e1ed5e" style="font-size:6.75px; font-family:Arial;" text-anchor="middle"><textPath startOffset="21.40746469413373" xlink:href="#id76">April</textPath></text><path d="M 120.99922638620191 99.81974689727618 l 2.7519717949025213 -0.023622368058548362 a23.752073177844604,23.752073177844604 0 0,0 0.0,0.4077509415647501 l -2.7519717949025213 -0.02362236805854803" fill="#ff2503" stroke="none" /><path d="M 120.9064616781168 101.97986365728391 l 1.3595978513366926 0.12875533009014106 a22.36568087501655,22.36568087501655 0 0,0 -0.03947820383597243,0.3819158103735269 l -1.357187255019054 -0.15207566274659937" fill="#ff1202" stroke="none" /><path d="M 120.86939407059847 102.33845913500097 l 1.423239296854837 0.15947693180567388 a22.432146287182285,22.432146287182285 0 0,0 -0.04616526491666906,0.382314618874363 l -1.4202919456785044 -0.1838852276034455" fill="#ff1302" stroke="none" /><path d="M 120.82617615685814 102.69636545807757 l 2.700880072416782 0.3496829988771843 a23.723422729816622,23.723422729816622 0 0,0 -0.05575623799024829,0.40342436315854147 l -2.6944793178713238 -0.3959956702358108" fill="#ff2503" stroke="none" /><path d="M 120.77682067341334 103.0534771498775 l 2.7426857721943096 0.40308035894086414 a23.77214700561875,23.77214700561875 0 0,0 -0.06280205926388,0.4032342716316323 l -2.735362220792162 -0.450102812503947" fill="#ff2603" stroke="none" /><path d="M 120.65975698304385 103.76489593502545 l 2.7091374393973027 0.49369508757452124 a23.75375389333168,23.75375389333168 0 0,0 -0.07654783800851667,0.4005306344980317 l -2.7002633091066266 -0.5401282871058676" fill="#ff2503" stroke="none" /><path d="M 120.43855184770803 104.8234425847677 l 2.5991906424136384 0.6134019143804251 a23.670590553449966,23.670590553449966 0 0,0 -0.09672532972435918,0.3946723528750974 l -2.5882777861729833 -0.6579300918636221" fill="#ff2403" stroke="none" /><path d="M 120.16314734710363 105.8691983318838 l 2.5438810369138327 0.7404866949261375 a23.649462450259,23.649462450259 0 0,0 -0.11680996548937338,0.3888223847317916 l -2.5307947514208298 -0.7840466832486526" fill="#ff2403" stroke="none" /><path d="M 119.94978838288452 106.5578916946017 l 1.8678633809779357 0.6140037938083998 a22.966192836119955,22.966192836119955 0 0,0 -0.12633000397867467,0.37347220939230935 l -1.857047955426896 -0.6459776776748696" fill="#ff1a02" stroke="none" /><path d="M 119.83427380445688 106.89939002012753 l 5.32741761692411 1.8531523917451667 a26.64052765724486,26.64052765724486 0 0,0 -0.15395666221061255,0.43064418491437595 l -5.294820784669554 -1.944331533040464" fill="#ff4e07" stroke="none" /><path d="M 119.31412917781788 108.2440532568976 l 0.4601966707816264 0.19643059377111083 a21.500365820143386,21.500365820143386 0 0,0 -0.1478059213652009,0.33820887352801615 l -0.45675686739945986 -0.2043015370749717" fill="#ff0500" stroke="none" /><line stroke="#e1ed5e" stroke-width="0.3" x1="174.33088141563837" x2="178.70328620479359" y1="141.23008692659167" y2="143.65538615756765" /><path d="M 175.20536237346943 141.71514677278685 a86.0,86.0 0 0,1 -30.301960400862466,31.631185727798858" fill="none" id="id77" stroke="none" /><text fill="#e1ed5e" style="font-size:6.75px; font-family:Arial;" text-anchor="middle"><textPath startOffset="22.145653131862474" xlink:href="#id77">May</textPath></text><path d="M 118.18653347947321 110.5 l 2.7213381373077707 1.5711653061306354 a24.142330612261272,24.142330612261272 0 0,0 -0.21029842703435925,0.3571327047318972 l -2.693966000143646 -1.617649179156082" fill="#ff2b04" stroke="none" /><path d="M 113.86319453409587 115.77377054828091 l 1.8392713117616397 2.092753122406925 a23.786132550618028,23.786132550618028 0 0,0 -0.30901643128044215,0.2669210334059576 l -1.8030754007183418 -2.1240182882776004" fill="#ff2603" stroke="none" /><path d="M 112.45986205192187 116.90419585922612 l 1.7809231532573169 2.4161642935885226 a24.00158910769281,24.00158910769281 0 0,0 -0.33375808574512533,0.24161511538983885 l -1.7391840571382238 -2.4463801803514387" fill="#ff2904" stroke="none" /><path d="M 111.8722381534696 117.32195027204791 l 1.5614461486056912 2.278196595199204 a23.76193660343115,23.76193660343115 0 0,0 -0.3384420685757115,0.22771892792735915 l -1.5221077919329764 -2.3046651971836845" fill="#ff2503" stroke="none" /><path d="M 110.96478420261333 117.91015095944535 l 0.7064198247034165 1.1538836941421644 a22.352951051716644,22.352951051716644 0 0,0 -0.328979284017172,0.19754260770973409 l -0.6865077841288079 -1.1658403023878219" fill="#ff1201" stroke="none" /><line stroke="#e1ed5e" stroke-width="0.3" x1="143.1302829299769" x2="145.66735839644613" y1="173.24464959558577" y2="177.55315839532614" /><path d="M 143.63769802327073 174.10635135553383 a86.0,86.0 0 0,1 -40.68552437913181,11.842963189579606" fill="none" id="id78" stroke="none" /><text fill="#e1ed5e" style="font-size:6.75px; font-family:Arial;" text-anchor="middle"><textPath startOffset="21.407464694133747" xlink:href="#id78">June</textPath></text><path d="M 110.34350942703117 118.27599006163325 l 3.6657991892615285 6.477115917331015 a28.442520695472286,28.442520695472286 0 0,0 -0.42698428346372386,0.23684098436903392 l -3.5540707176417103 -6.539089817133193" fill="#ff6609" stroke="none" /><path d="M 109.06512990194946 118.94263497670748 l 1.1779899212671945 2.461545871505511 a23.728895075324978,23.728895075324978 0 0,0 -0.3689405737834496,0.1726828174323129 l -1.1355606336122386 -2.4814049205083575" fill="#ff2503" stroke="none" /><path d="M 107.407793817531 119.65005319985036 l 0.973453088254394 2.582199969778983 a23.759595549887447,23.759595549887447 0 0,0 -0.3828811850662971,0.14059927461336488 l -0.9289827515339699 -2.5985300934010698" fill="#ff2503" stroke="none" /><line stroke="#e1ed5e" stroke-width="0.3" x1="101.45913802915013" x2="101.54496967792366" y1="184.9874750549273" y2="189.98673829345242" /><path d="M 101.47630435890484 185.9873277026323 a86.0,86.0 0 0,1 -42.54439059252881,-10.42667462771756" fill="none" id="id79" stroke="none" /><text fill="#e1ed5e" style="font-size:6.75px; font-family:Arial;" text-anchor="middle"><textPath startOffset="22.145653131862474" xlink:href="#id79">July</textPath></text><line stroke="#e1ed5e" stroke-width="0.3" x1="58.13341422392154" x2="55.67067388415222" y1="173.97424548756322" y2="178.32567169271397" /><path d="M 57.64086615596768 174.84453072859336 a86.0,86.0 0 0,1 -31.369924170532247,-30.572349798747897" fill="none" id="id80" stroke="none" /><text fill="#e1ed5e" style="font-size:6.75px; font-family:Arial;" text-anchor="middle"><textPath startOffset="22.145653131862474" xlink:href="#id80">August</textPath></text><path d="M 82.37810715431573 111.42229804090323 l -2.501399901723193 1.6213771952407352 a23.980916885387366,23.980916885387366 0 0,0 -0.22094681694821056,-0.34736509453343667 l 2.528864410297294 -1.5781984260286266" fill="#ff2903" stroke="none" /><line stroke="#e1ed5e" stroke-width="0.3" x1="26.387840678322732" x2="22.057713659400548" y1="142.50000000000003" y2="145.00000000000006" /><path d="M 25.521815274538298 143.00000000000003 a86.0,86.0 0 0,1 -11.493303480769221,-40.785679425670985" fill="none" id="id81" stroke="none" /><text fill="#e1ed5e" style="font-size:6.75px; font-family:Arial;" text-anchor="middle"><textPath startOffset="21.40746469413373" xlink:href="#id81">September</textPath></text><path d="M 81.4637452351635 109.86951160357371 l -1.409259818296326 0.7503514763678564 a22.596571505931387,22.596571505931387 0 0,0 -0.17936505423187343,-0.34395614165850996 l 1.4219329415031488 -0.7260490916048435" fill="#ff1502" stroke="none" /><path d="M 80.9802524753101 108.90220220490708 l -2.511923567355798 1.1757070639788854 a23.773454003319205,23.773454003319205 0 0,0 -0.16982797259769714,-0.3711047691952547 l 2.531736004808551 -1.132413312568942" fill="#ff2603" stroke="none" /><path d="M 80.5471966667186 107.91128576633889 l -2.614836143900593 1.0634310958748443 a23.82280954992052,23.82280954992052 0 0,0 -0.15081123179029043,-0.3801428212996823 l 2.6327060506570077 -1.0183872573615966" fill="#ff2603" stroke="none" /><path d="M 79.56144815229197 104.8234425847677 l -2.672561713573562 0.6307172873950974 a23.745977132002064,23.745977132002064 0 0,0 -0.09022243127780002,-0.3975366793657598 l 2.682995006409028 -0.5847462740903112" fill="#ff2503" stroke="none" /><path d="M 79.22317932658666 103.0534771498775 l -2.7215403527576325 0.39997271046618366 a23.75077444746126,23.75077444746126 0 0,0 -0.05582052166869311,-0.40388948783290796 l 2.7280053909815383 -0.35319491443319007" fill="#ff2503" stroke="none" /><line stroke="#e1ed5e" stroke-width="0.3" x1="15.003131293944662" x2="10.003315487706104" y1="100.72959589197737" y2="100.7725132973878" /><path d="M 14.003168132696942 100.73817937305945 a86.0,86.0 0 0,1 10.791469493833604,-42.45332614584628" fill="none" id="id82" stroke="none" /><text fill="#e1ed5e" style="font-size:6.75px; font-family:Arial;" text-anchor="middle"><textPath startOffset="22.145653131862435" xlink:href="#id82">October</textPath></text><line stroke="#e1ed5e" stroke-width="0.3" x1="26.387840678322718" x2="22.05771365940052" y1="57.49999999999999" y2="54.99999999999999" /><path d="M 25.521815274538284 56.99999999999999 a86.0,86.0 0 0,1 29.574782752854787,-30.34633250058573" fill="none" id="id83" stroke="none" /><text fill="#e1ed5e" style="font-size:6.75px; font-family:Arial;" text-anchor="middle"><textPath startOffset="21.40746469413373" xlink:href="#id83">November</textPath></text><line stroke="#e1ed5e" stroke-width="0.3" x1="56.869717070023135" x2="54.33264160355391" y1="26.7553504044142" y2="22.446841604673864" /><path d="M 56.362301976729285 25.89364864446614 a86.0,86.0 0 0,1 42.16139366436587,-11.88097634709845" fill="none" id="id84" stroke="none" /><text fill="#e1ed5e" style="font-size:6.75px; font-family:Arial;" text-anchor="middle"><textPath startOffset="22.145653131862474" xlink:href="#id84">December</textPath></text></svg>