<?xml version="1.0" encoding="utf-8" ?>
<svg baseProfile="full" height="200mm" version="1.1" viewBox="0,0,200,200" width="200mm" xmlns="http://www.w3.org/2000/svg" xmlns:ev="http://www.w3.org/2001/xml-events" xmlns:xlink="http://www.w3.org/1999/xlink"><defs /><rect fill="#1a1a1a" height="200" width="200" x="0" y="0" /><text alignment-baseline="middle" fill="#e1ed5e" style="dominant-baseline: central; font-size:9.0px; font-family:Arial;" text-anchor="middle" x="100.0" y="100.0">2024</text><line stroke="#e1ed5e" stroke-width="0.3" x1="100.0" x2="100.0" y1="15.0" y2="10.0" /><path d="M 100.0 14.0 a86.0,86.0 0 0,1 42.35913384403234,11.155469271406648" fill="none" id="id73" stroke="none" /><text fill="#e1ed5e" style="font-size:6.75px; font-family:Arial;" text-anchor="middle"><textPath startOffset="22.145653131862478" xlink:href="#id73">January</textPath></text><path d="M 104.64783097203109 79.52079915486377 l 1.527053821126826 -6.728480896223924 a27.89959046201065,27.89959046201065 0 0,0 0.4661461531878535,0.11000922290216246 l -1.6423321280545646 6.7012755296755335" fill="#ff5908" stroke="none" /><path d="M 109.3889696526874 81.21577127319529 l 3.498379217993947 -6.999101907320487 a28.82470987717431,28.82470987717431 0 0,0 0.44070617540782864,0.22502771331905963 l -3.6180126151153544 6.938016242328593" fill="#ff6609" stroke="none" /><line stroke="#e1ed5e" stroke-width="0.3" x1="143.13028292997686" x2="145.6673583964461" y1="26.7553504044142" y2="22.446841604673864" /><path d="M 143.63769802327073 25.89364864446614 a86.0,86.0 0 0,1 29.32050498858742,28.57503671076993" fill="none" id="id74" stroke="none" /><text fill="#e1ed5e" style="font-size:6.75px; font-family:Arial;" text-anchor="middle"><textPath startOffset="20.669276256404974" xlink:href="#id74">February</textPath></text><path d="M 114.91283532996326 85.21462403516908 l 1.147920977342849 -1.1381097458931038 a22.616482713771052,22.616482713771052 0 0,0 0.27098121725377633,0.27805060104465995 l -1.167288995747437 1.1182364527807016" fill="#ff0f01" stroke="none" /><path d="M 115.16444852881244 85.47280134310134 l 5.364675907526206 -5.139238165531527 a28.429099307106345,28.429099307106345 0 0,0 0.3345755259944698,0.3553076142493383 l -5.4521072672569355 5.046389091337693" fill="#ff6008" stroke="none" /><line stroke="#e1ed5e" stroke-width="0.3" x1="172.87174338648825" x2="177.1583165268699" y1="56.24261187166439" y2="53.66864786411523" /><path d="M 173.72905801456457 55.72781907015455 a86.0,86.0 0 0,1 12.242430191666344,42.057860355516425" fill="none" id="id75" stroke="none" /><text fill="#e1ed5e" style="font-size:6.75px; font-family:Arial;" text-anchor="middle"><textPath startOffset="22.145653131862474" xlink:href="#id75">March</textPath></text><path d="M 118.18653347947321 89.5 l 0.9264088072680148 -0.5348623742558286 a22.069724748511657,22.069724748511657 0 0,0 0.18661175040465114,0.3297250821724513 l -0.9354539226940419 0.5188805219842593" fill="#ff0701" stroke="none" /><path d="M 119.0197475246899 91.09779779509293 l 20.395690276029374 -9.546212887956344 a43.5191998600728,43.5191998600728 0 0,0 0.31088362171851397,0.679336819015859 l -20.55655836260294 9.1946870867258" fill="#deff1b" stroke="none" /><path d="M 119.16976305983485 91.42560881287824 l 20.865225900303496 -9.332750150246682 a43.85733749231579,43.85733749231579 0 0,0 0.3015006456589149,0.6898924805882686 l -21.02236042797938 8.973195599882564" fill="#daff1b" stroke="none" /><path d="M 119.71291397450082 92.76114493625339 l 21.264695783053966 -7.808690838265034 a43.65309999433714,43.65309999433714 0 0,0 0.252272990112738,0.7056524520802789 l -21.395608943210647 7.442503429803838" fill="#ddff1b" stroke="none" /><path d="M 120.16314734710363 94.1308016681162 l 1.0148032240719775 -0.2953944286266956 a22.056921686810604,22.056921686810604 0 0,0 0.10270281251091401,0.3644560499245269 l -1.0197245286574737 0.27793045479915557" fill="#ff0701" stroke="none" /><path d="M 120.43855184770803 95.1765574152323 l 22.053918044210274 -5.204664608728121 a43.6597403954699,43.6597403954699 0 0,0 0.16588443194145203,0.730917414865837 l -22.14001333770939 4.825312859923258" fill="#ddff1b" stroke="none" /><path d="M 120.51834098615036 95.52812308129327 l 1.2183282289471373 -0.2655289669917774 a22.246927947301362,22.246927947301362 0 0,0 0.0781209235218749,0.3738368991448389 l -1.222706863293379 0.24457561656153404" fill="#ff0a01" stroke="none" /><path d="M 120.82617615685814 97.30363454192243 l 0.9422968010788719 -0.12199918633884096 a21.950161598250958,21.950161598250958 0 0,0 0.045173342406650156,0.3741000775508048 l -0.9442522297451857 0.10580543186462317" fill="#ff0500" stroke="none" /><path d="M 120.86939407059847 97.66154086499901 l 0.5735850302696004 -0.06427139902559223 a21.577174669993482,21.577174669993482 0 0,0 0.03808639247723119,0.36845129802718785 l -0.5746038152284976 0.054415578715472986" fill="#ff0000" stroke="none" /><path d="M 120.98066250479742 99.09900007780936 l 8.335694188868171 -0.35797057475462807 a29.34337704665927,29.34337704665927 0 0,0 0.017292070262948118,0.503439758402111 l -8.340610946127969 0.21482455178839718" fill="#ff6d0a" stroke="none" /><line stroke="#e1ed5e" stroke-width="0.3" x1="184.99686870605535" x2="189.99668451229388" y1="99.2704041080226" y2="99.22748670261217" /><path d="M 185.99683186730306 99.26182062694052 a86.0,86.0 0 0,1 -10.086455211305974,41.156179273409016" fill="none" id="id76" stroke="none" /><text fill="#e1ed5e" style="font-size:6.75px; font-family:Arial;" text-anchor="middle"><textPath startOffset="21.40746469413373" xlink:href="#id76">April</textPath></text><path d="M 120.99922638620191 99.81974689727618 l 23.42301520365012 -0.20105841462710053 a44.42387811009349,44.42387811009349 0 0,0 0.0,0.762623034701852 l -23.42301520365012 -0.2010584146270977" fill="#d4ff1c" stroke="none" /><path d="M 120.9064616781168 101.97986365728391 l 11.083756788587918 1.0496432916177596 a32.133347007446005,32.133347007446005 0 0,0 -0.0567193473867828,0.5487082343230208 l -11.064105048719469 -1.2397560482237118" fill="#ff920d" stroke="none" /><path d="M 120.86939407059847 102.33845913500097 l 11.616089538263392 1.3016070616065751 a32.68878595508431,32.68878595508431 0 0,0 -0.06727338722300724,0.55712015176295 l -11.59203406478072 -1.5008208902929339" fill="#ff990e" stroke="none" /><path d="M 120.82617615685814 102.69636545807757 l 22.655748257061884 2.933240195758465 a43.844842462432865,43.844842462432865 0 0,0 -0.10304682839495342,0.7455955175457214 l -22.60205691211172 -3.321724021504272" fill="#dbff1b" stroke="none" /><path d="M 120.77682067341334 103.0534771498775 l 22.35682583461292 3.2856834981078977 a43.59697717503282,43.59697717503282 0 0,0 -0.11517596385489665,0.7395123096100711 l -22.297128378619753 -3.668983989649419" fill="#ddff1b" stroke="none" /><path d="M 120.65975698304385 103.76489593502545 l 22.466856483414848 4.094209661644654 a43.8368604015496,43.8368604015496 0 0,0 -0.14126680371820263,0.7391676107229228 l -22.393263387414486 -4.479279837400891" fill="#dbff1b" stroke="none" /><path d="M 120.43855184770803 104.8234425847677 l 23.34240532881791 5.508744099526545 a44.98362249721454,44.98362249721454 0 0,0 -0.1838169482258657,0.7500358764489393 l -23.24440085407575 -5.908635800583585" fill="#cdff1d" stroke="none" /><path d="M 120.16314734710363 105.8691983318838 l 21.97722910583909 6.397251093140852 a43.889373532694876,43.889373532694876 0 0,0 -0.21677939693078138,0.721588108704767 l -21.86417338890468 -6.773576805436343" fill="#daff1c" stroke="none" /><path d="M 119.94978838288452 106.5578916946017 l 7.603465017356202 2.49940997521023 a29.00373228527416,29.00373228527416 0 0,0 -0.1595406622743539,0.4716536194962313 l -7.559438933509483 -2.6295652691806213" fill="#ff6809" stroke="none" /><path d="M 119.83427380445688 106.89939002012753 l 42.537699768244664 14.796820098059783 a66.037781768063,66.037781768063 0 0,0 -0.38163495076415765,1.0675008794477474 l -42.27742464743656 -15.524855933888452" fill="#37ff76" stroke="none" /><path d="M 119.31412917781788 108.2440532568976 l 5.559555226077663 2.3730435344238456 a27.044831670781104,27.044831670781104 0 0,0 -0.18592177903882326,0.4254254151136435 l -5.517999565021874 -2.468131019313334" fill="#ff4d07" stroke="none" /><line stroke="#e1ed5e" stroke-width="0.3" x1="174.33088141563837" x2="178.70328620479359" y1="141.23008692659167" y2="143.65538615756765" /><path d="M 175.20536237346943 141.71514677278685 a86.0,86.0 0 0,1 -30.301960400862466,31.631185727798858" fill="none" id="id77" stroke="none" /><text fill="#e1ed5e" style="font-size:6.75px; font-family:Arial;" text-anchor="middle"><textPath startOffset="22.145653131862474" xlink:href="#id77">May</textPath></text><path d="M 118.18653347947321 110.5 l 11.05467569966292 6.382419991004398 a33.7648399820088,33.7648399820088 0 0,0 -0.29411794790338236,0.49947657586506117 l -10.943484041629771 -6.571247735163008" fill="#ffa70f" stroke="none" /><path d="M 117.21940702142032 112.02048342749411 l 4.1659764817625184 2.9081751303086416 a26.08063407805995,26.08063407805995 0 0,0 -0.2594214609367478,0.3649087730471521 l -4.11543992229581 -2.9792611300652974" fill="#ff4006" stroke="none" /><path d="M 116.57777611688842 112.89097897827486 l 6.352483623710606 4.939729688451064 a29.047047755821776,29.047047755821776 0 0,0 -0.3094666511302392,0.39100100422517065 l -6.266750541938806 -5.048050636590918" fill="#ff6909" stroke="none" /><path d="M 116.1254893667686 113.45245675266167 l 2.653366916847018 2.213533052298342 a24.455442745732515,24.455442745732515 0 0,0 -0.27169465449618546,0.320055619830015 l -2.614977698843718 -2.258755454577914" fill="#ff2904" stroke="none" /><path d="M 115.89218393027572 113.72728997021213 l 4.347000115153577 3.75483516570547 a26.744144594520897,26.744144594520897 0 0,0 -0.30308621511370354,0.34485647603027286 l -4.281902836081288 -3.8289039195470362" fill="#ff4906" stroke="none" /><path d="M 115.16444852881244 114.52719865689866 l 4.171966971683576 3.996649985161937 a26.77741460488284,26.77741460488284 0 0,0 -0.32083575931646036,0.32920575314641454 l -4.1027444112163085 -4.0676784303760884" fill="#ff4a06" stroke="none" /><path d="M 114.91283532996324 114.78537596483092 l 5.249408040715945 5.204541574924169 a28.392126742896618,28.392126742896618 0 0,0 -0.3461244690893161,0.34316615806993134 l -5.159291651496664 -5.293887743222762" fill="#ff6008" stroke="none" /><path d="M 114.65682725009322 115.03919595460226 l 4.108369240960566 4.215548768801485 a26.886386773073497,26.886386773073497 0 0,0 -0.33329839203323697,0.31929232005319175 l -4.035398363062017 -4.285453219160257" fill="#ff4b07" stroke="none" /><path d="M 113.86319453409587 115.77377054828091 l 15.038185263540907 17.110694308316138 a43.77987874711411,43.77987874711411 0 0,0 -0.568764252176513,0.4912850146066974 l -14.742241531601538 -17.36632345538755" fill="#dbff1b" stroke="none" /><path d="M 113.59037401385872 116.0094264158162 l 4.137777119700585 4.874291042714714 a27.39374011525387,27.39374011525387 0 0,0 -0.36110906415243615,0.301250024604882 l -4.053493721386254 -4.944603251231466" fill="#ff5207" stroke="none" /><path d="M 113.03279911837588 116.46651593811092 l 3.561743240308819 4.500146231158423 a26.739105419113237,26.739105419113237 0 0,0 -0.3623658805538019,0.2817779004690719 l -3.4839674151197864 -4.560625183248288" fill="#ff4906" stroke="none" /><path d="M 112.45986205192187 116.90419585922612 l 16.775523919028668 22.75922002881667 a49.27366794524532,49.27366794524532 0 0,0 -0.6851831775494831,0.4960197807259048 l -16.38235973110522 -23.043840580915653" fill="#9dff22" stroke="none" /><path d="M 112.16784306229584 117.11559508785304 l 3.3209126986369366 4.671279599923984 a26.731432129287935,26.731432129287935 0 0,0 -0.376282978922525,0.26267474289676623 l -3.2402346285406534 -4.727599158625871" fill="#ff4906" stroke="none" /><path d="M 111.8722381534696 117.32195027204791 l 12.986707847099478 18.947994861384217 a43.971310149248296,43.971310149248296 0 0,0 -0.6262848610894322,0.4213924047462684 l -12.659526697913043 -19.168136940187605" fill="#d9ff1c" stroke="none" /><path d="M 111.5731344415666 117.5232005979908 l 6.1321160339511644 9.284805244043842 a32.12701467032667,32.12701467032667 0 0,0 -0.46280397764112613,0.29998394686795116 l -5.971826424053029 -9.388703032615688" fill="#ff920d" stroke="none" /><path d="M 110.96478420261333 117.91015095944535 l 11.803672217213087 19.280411486412238 a43.60665709247577,43.60665709247577 0 0,0 -0.6417804430150759,0.3853707161806848 l -11.470959017640574 -19.480196203128845" fill="#ddff1b" stroke="none" /><line stroke="#e1ed5e" stroke-width="0.3" x1="143.1302829299769" x2="145.66735839644613" y1="173.24464959558577" y2="177.55315839532614" /><path d="M 143.63769802327073 174.10635135553383 a86.0,86.0 0 0,1 -40.68552437913181,11.842963189579606" fill="none" id="id78" stroke="none" /><text fill="#e1ed5e" style="font-size:6.75px; font-family:Arial;" text-anchor="middle"><textPath startOffset="21.407464694133747" xlink:href="#id78">June</textPath></text><path d="M 110.34350942703117 118.27599006163325 l 31.03052828109348 54.82797018489977 a84.0,84.0 0 0,0 -1.2610232473756222,0.6994683382674252 l -30.084760845561767 -55.352571438600336" fill="#4dd2ff" stroke="none" /><path d="M 110.02825361518725 118.45085714620011 l 3.292156308712095 6.057196804737381 a27.894050064534895,27.894050064534895 0 0,0 -0.4226761287402289,0.22505123122654314 l -3.187691364185312 -6.112818503686493" fill="#ff5908" stroke="none" /><path d="M 109.71004243097381 118.62028667847754 l 0.45552065111838114 0.8735209111687029 a21.98515879219764,21.98515879219764 0 0,0 -0.33613504830852187,0.1716329507233731 l -0.44045838109627694 -0.8812118135649123" fill="#ff0601" stroke="none" /><path d="M 109.3889696526874 118.78422872680471 l 3.411325071541053 6.824935299153863 a28.629998727480956,28.629998727480956 0 0,0 -0.4415015072159382,0.21596051110197725 l -3.293663315063045 -6.882489560353064" fill="#ff6309" stroke="none" /><path d="M 109.06512990194946 118.94263497670748 l 9.804509245894574 20.48765343459608 a43.712823356178085,43.712823356178085 0 0,0 -0.6796538178253985,0.31811230447536815 l -9.45136671419767 -20.65294197064198" fill="#dcff1b" stroke="none" /><path d="M 108.73861861582097 119.09545874513695 l 3.271537123672101 7.148899033671307 a28.861915322947155,28.861915322947155 0 0,0 -0.4522890238427485,0.2023031274807304 l -3.1483346969737256 -7.204005912061888" fill="#ff6609" stroke="none" /><path d="M 108.07796709384702 119.3841803445677 l 2.2225019283253022 5.3331955545625025 a26.77775818502427,26.77775818502427 0 0,0 -0.42582442310523866,0.17317908579830874 l -2.130623044029623 -5.370561896940102" fill="#ff4a06" stroke="none" /><path d="M 107.407793817531 119.65005319985036 l 8.118973804983284 21.53654260983291 a44.0160900943482,44.0160900943482 0 0,0 -0.7093105899855595,0.2604686736181075 l -7.748074063343598 -21.67274213245974" fill="#d9ff1c" stroke="none" /><path d="M 107.06938296918513 119.77432235084164 l 4.072339334760405 11.391057901174445 a33.09711319965824,33.09711319965824 0 0,0 -0.5366369526883881,0.18667018880106268 l -3.8761966100269944 -11.4592865225441" fill="#ff9f0e" stroke="none" /><line stroke="#e1ed5e" stroke-width="0.3" x1="101.45913802915013" x2="101.54496967792366" y1="184.9874750549273" y2="189.98673829345242" /><path d="M 101.47630435890484 185.9873277026323 a86.0,86.0 0 0,1 -42.54439059252881,-10.42667462771756" fill="none" id="id79" stroke="none" /><text fill="#e1ed5e" style="font-size:6.75px; font-family:Arial;" text-anchor="middle"><textPath startOffset="22.145653131862474" xlink:href="#id79">July</textPath></text><path d="M 99.63950707515114 120.99690560180557 l -0.09939326460392904 5.789159371765796 a26.79001254340199,26.79001254340199 0 0,0 -0.4597506588818973,-0.011841546124934854 l 0.19875723755657027 -5.786600108290814" fill="#ff4a06" stroke="none" /><path d="M 97.12497278360702 120.80226474461374 l -0.21044107937692919 1.522646819265029 a22.537120289407188,22.537120289407188 0 0,0 -0.38278214281577194,-0.05625579316689073 l 0.236548327800386 -1.5188099527992558" fill="#ff0e01" stroke="none" /><path d="M 96.76829788921471 120.74984581791261 l -1.1327142628918534 7.272838122151427 a28.360517369884928,28.360517369884928 0 0,0 -0.48040352635821093,-0.07905021744726037 l 1.2573952923031277 -7.252321906208499" fill="#ff6008" stroke="none" /><path d="M 96.41257539226777 120.69131181640829 l -0.3465080835547572 1.9985665450039474 a23.028382628297187,23.028382628297187 0 0,0 -0.388922260035868,-0.0708745914606694 l 0.3807650771416824 -1.992323779611912" fill="#ff1502" stroke="none" /><path d="M 96.05791012581884 120.62667999033965 l -0.7518019516179808 3.9337454921313717 a25.004941918595136,25.004941918595136 0 0,0 -0.4209207070151261,-0.08419592997495087 l 0.8192191441640649 -3.9202601654935596" fill="#ff3104" stroke="none" /><path d="M 90.93487009805054 118.94263497670748 l -1.8837141854370898 3.9362381566652576 a25.363754112963335,25.363754112963335 0 0,0 -0.3911329433200099,-0.19132272249955737 l 1.9510073780191692 -3.903321684068479" fill="#ff3605" stroke="none" /><line stroke="#e1ed5e" stroke-width="0.3" x1="58.13341422392154" x2="55.67067388415222" y1="173.97424548756322" y2="178.32567169271397" /><path d="M 57.64086615596768 174.84453072859336 a86.0,86.0 0 0,1 -31.369924170532247,-30.572349798747897" fill="none" id="id80" stroke="none" /><text fill="#e1ed5e" style="font-size:6.75px; font-family:Arial;" text-anchor="middle"><textPath startOffset="22.145653131862474" xlink:href="#id80">August</textPath></text><path d="M 85.34317274990678 115.03919595460226 l -4.0267174256068765 4.131766813116274 a26.769397734916105,26.769397734916105 0 0,0 -0.32634200539967634,-0.32355277425054063 l 4.097051351136515 -4.062034028637074" fill="#ff4a06" stroke="none" /><path d="M 83.8745106332314 113.45245675266167 l -0.5401448255232395 0.45060802436791175 a21.703423076223892,21.703423076223892 0 0,0 -0.2362088751181281,-0.2881364206182594 l 0.5478005198799974 -0.44126932205115715" fill="#ff0200" stroke="none" /><path d="M 82.37810715431573 111.42229804090323 l -15.5965716593644 10.10950931716706 a39.58642585758694,39.58642585758694 0 0,0 -0.36472728834316576,-0.5734118768678368 l 15.767816639333455 -9.840283765620551" fill="#fff116" stroke="none" /><line stroke="#e1ed5e" stroke-width="0.3" x1="26.387840678322732" x2="22.057713659400548" y1="142.50000000000003" y2="145.00000000000006" /><path d="M 25.521815274538298 143.00000000000003 a86.0,86.0 0 0,1 -11.493303480769221,-40.785679425670985" fill="none" id="id81" stroke="none" /><text fill="#e1ed5e" style="font-size:6.75px; font-family:Arial;" text-anchor="middle"><textPath startOffset="21.40746469413373" xlink:href="#id81">September</textPath></text><path d="M 81.4637452351635 109.86951160357371 l -20.19890381222725 10.754778572229268 a43.88363994982639,43.88363994982639 0 0,0 -0.3483356516021249,-0.667979541724349 l 20.380547532804325 -10.406452787400417" fill="#daff1c" stroke="none" /><path d="M 81.1358732173502 109.22738970284198 l -1.417767262766257 0.693501013442519 a22.57829264302205,22.57829264302205 0 0,0 -0.1673166978621596,-0.3496275472488664 l 1.4294632185883285 -0.6690609641285479" fill="#ff0e01" stroke="none" /><path d="M 80.9802524753101 108.90220220490708 l -20.749103088449747 9.711627929028106 a43.90940846043375,43.90940846043375 0 0,0 -0.3136711146709475,-0.685427994179321 l 20.91275866797575 -9.354010952634097" fill="#daff1c" stroke="none" /><path d="M 80.83023694016515 108.57439118712176 l -1.8816051676138867 0.8416180584221725 a23.061251795160793,23.061251795160793 0 0,0 -0.15853635226174245,-0.3627621993519712 l 1.8957754018925972 -0.8091937892943519" fill="#ff1502" stroke="none" /><path d="M 80.5471966667186 107.91128576633889 l -21.300994696529134 8.66292910406373 a43.99518896907779,43.99518896907779 0 0,0 -0.27851327222214034,-0.7020353843349971 l 21.4465666437174 -8.295992702515168" fill="#d9ff1c" stroke="none" /><path d="M 79.56144815229197 104.8234425847677 l -11.360489398017068 2.681044564923146 a32.67256267156284,32.67256267156284 0 0,0 -0.12413883934605467,-0.546978631311757 l 11.404839098920789 -2.485631599672363" fill="#ff990e" stroke="none" /><path d="M 79.22317932658666 103.0534771498775 l -10.933637108382321 1.6068681344600204 a32.051083459070334,32.051083459070334 0 0,0 -0.07532841519293558,-0.5450388875280409 l 10.95961004013047 -1.418940938731894" fill="#ff910d" stroke="none" /><line stroke="#e1ed5e" stroke-width="0.3" x1="15.003131293944662" x2="10.003315487706104" y1="100.72959589197737" y2="100.7725132973878" /><path d="M 14.003168132696942 100.73817937305945 a86.0,86.0 0 0,1 10.791469493833604,-42.45332614584628" fill="none" id="id82" stroke="none" /><text fill="#e1ed5e" style="font-size:6.75px; font-family:Arial;" text-anchor="middle"><textPath startOffset="22.145653131862435" xlink:href="#id82">October</textPath></text><line stroke="#e1ed5e" stroke-width="0.3" x1="26.387840678322718" x2="22.05771365940052" y1="57.49999999999999" y2="54.99999999999999" /><path d="M 25.521815274538284 56.99999999999999 a86.0,86.0 0 0,1 29.574782752854787,-30.34633250058573" fill="none" id="id83" stroke="none" /><text fill="#e1ed5e" style="font-size:6.75px; font-family:Arial;" text-anchor="middle"><textPath startOffset="21.40746469413373" xlink:href="#id83">November</textPath></text><line stroke="#e1ed5e" stroke-width="0.3" x1="56.869717070023135" x2="54.33264160355391" y1="26.7553504044142" y2="22.446841604673864" /><path d="M 56.362301976729285 25.89364864446614 a86.0,86.0 0 0,1 42.16139366436587,-11.88097634709845" fill="none" id="id84" stroke="none" /><text fill="#e1ed5e" style="font-size:6.75px; font-family:Arial;" text-anchor="middle"><textPath startOffset="22.145653131862474" xlink:href="#id84">December</textPath></text></svg>