<?xml version="1.0" encoding="utf-8" ?>
<svg baseProfile="full" height="200mm" version="1.1" viewBox="0,0,200,200" width="200mm" xmlns="http://www.w3.org/2000/svg" xmlns:ev="http://www.w3.org/2001/xml-events" xmlns:xlink="http://www.w3.org/1999/xlink"><defs /><rect fill="#1a1a1a" height="200" width="200" x="0" y="0" /><text alignment-baseline="middle" fill="#e1ed5e" style="dominant-baseline: central; font-size:9.0px; font-family:Arial;" text-anchor="middle" x="100.0" y="100.0">2022</text><line stroke="#e1ed5e" stroke-width="0.3" x1="100.0" x2="100.0" y1="15.0" y2="10.0" /><path d="M 100.0 14.0 a86.0,86.0 0 0,1 42.46469731375804,11.215312516191453" fill="none" id="id49" stroke="none" /><text fill="#e1ed5e" style="font-size:6.75px; font-family:Arial;" text-anchor="middle"><textPath startOffset="22.20632615414155" xlink:href="#id49">January</textPath></text><path d="M 105.71112130821622 79.79150937346287 l 1.3675638144207605 -4.839049817617184 a26.02858170102604,26.02858170102604 0 0,0 0.430103450906716,0.12555899153285682 l -1.4506574830509036 4.814792497165623" fill="#ff3304" stroke="none" /><path d="M 106.0581310904928 79.89281104454417 l 1.4649195847438248 -4.862129005629683 a26.078020072543186,26.078020072543186 0 0,0 0.42869114189454305,0.13319642454818587 l -1.5483960993490862 4.836192446198976" fill="#ff3404" stroke="none" /><line stroke="#e1ed5e" stroke-width="0.3" x1="143.23703022742887" x2="145.7803849466894" y1="26.81831364943548" y2="22.513508569990506" /><path d="M 143.74570117128098 25.957352633546492 a86.0,86.0 0 0,1 28.547481713284135,27.462654790039103" fill="none" id="id50" stroke="none" /><text fill="#e1ed5e" style="font-size:6.75px; font-family:Arial;" text-anchor="middle"><textPath startOffset="19.985693538727396" xlink:href="#id50">February</textPath></text><line stroke="#e1ed5e" stroke-width="0.3" x1="172.23445277983987" x2="176.4835382374775" y1="55.19839476539836" y2="52.563006222186495" /><path d="M 173.08426987136738 54.67131705675599 a86.0,86.0 0 0,1 12.851231095245387,41.99856678651699" fill="none" id="id51" stroke="none" /><text fill="#e1ed5e" style="font-size:6.75px; font-family:Arial;" text-anchor="middle"><textPath startOffset="22.20632615414155" xlink:href="#id51">March</textPath></text><path d="M 118.3937258080291 89.86733742301442 l 1.3333322812573605 -0.7345007884746166 a22.522257002123094,22.522257002123094 0 0,0 0.1841375768849883,0.3411789643166212 l -1.3457779573608135 0.7114408408255367" fill="#ff0000" stroke="none" /><path d="M 119.34039704204932 91.81776055985345 l 5.605341112453407 -2.3714220047331236 a27.086336444158576,27.086336444158576 0 0,0 0.17796795290466258,0.43096351425003976 l -5.645330752244266 2.2745839200297806" fill="#ff4206" stroke="none" /><path d="M 120.28053869075195 94.5502522615342 l 4.40950623128003 -1.1849141178201212 a25.565935464973947,25.565935464973947 0 0,0 0.11054670092317871,0.4259815334943713 l -4.429249264073512 1.1088361587768996" fill="#ff2c04" stroke="none" /><path d="M 120.6074358757038 95.95851677861258 l 22.137206545180614 -4.341498348478055 a43.558912241813104,43.558912241813104 0 0,0 0.13796616738276984,0.7370207829238353 l -22.208658436473243 3.9597994880916563" fill="#e5ff1a" stroke="none" /><path d="M 120.67395015179393 96.31383870115 l 6.74564852806174 -1.2027478230921413 a27.852034470877566,27.852034470877566 0 0,0 0.08009202450337506,0.4727076623684732 l -6.7653524140853385 1.0864543724078304" fill="#ff4d07" stroke="none" /><path d="M 120.73433829027371 96.67025291283417 l 4.617131973082976 -0.741469610614244 a25.676289644614577,25.676289644614577 0 0,0 0.06632320912218448,0.4369870814030114 l -4.62921107564446 0.6618834168191505" fill="#ff2e04" stroke="none" /><path d="M 120.87857604477298 97.74499172005257 l 22.196557723170155 -2.397358006826849 a43.3256466909902,43.3256466909902 0 0,0 0.07370079197516229,0.742156917276362 l -22.23453564082755 2.014925558846052" fill="#e8ff1a" stroke="none" /><path d="M 120.91429891909075 98.10471618934814 l 8.94934623307703 -0.8110026110407405 a29.98601820800542,29.98601820800542 0 0,0 0.04215965075187567,0.5144545256523235 l -8.9619803676484 0.6568341681806481" fill="#ff6a09" stroke="none" /><line stroke="#e1ed5e" stroke-width="0.3" x1="184.98032266829074" x2="189.97916517819016" y1="98.17113171792111" y2="98.06355123074" /><path d="M 185.9800911702706 98.14961562048488 a86.0,86.0 0 0,1 -9.607161424134198,41.387399972396054" fill="none" id="id52" stroke="none" /><text fill="#e1ed5e" style="font-size:6.75px; font-family:Arial;" text-anchor="middle"><textPath startOffset="21.466115282336823" xlink:href="#id52">April</textPath></text><path d="M 120.9764740272857 100.99374915477107 l 21.95619523554272 1.0401629191315693 a42.9808200056232,42.9808200056232 0 0,0 -0.041371391150472774,0.7387139807202706 l -21.93503749350472 -1.4179486161872632" fill="#ecff1a" stroke="none" /><path d="M 120.92983693683757 101.71520430193887 l 4.695012607412006 0.38475721746865527 a25.710751691625436,25.710751691625436 0 0,0 -0.03994398352186419,0.4407785296853086 l -4.687694027613067 -0.4655171357025344" fill="#ff2e04" stroke="none" /><path d="M 120.8583938346157 102.4346265915055 l 4.721838634264832 0.5511408975652327 a25.753894863898967,25.753894863898967 0 0,0 -0.055185066661466824,0.43987927836331464 l -4.711652058356517 -0.6323379302159423" fill="#ff2f04" stroke="none" /><path d="M 120.41448212921028 104.9243191809786 l 10.589144930643743 2.5542812774819317 a31.892857439931582,31.892857439931582 0 0,0 -0.13332533514412304,0.5325684393453164 l -10.543608281204559 -2.7361775562246438" fill="#ff840c" stroke="none" /><path d="M 120.32669344350535 105.2749913415812 l 4.6084076654813035 1.195930395735736 a25.761057731503733,25.761057731503733 0 0,0 -0.11508068482204276,0.4282580392883855 l -4.5871389043174835 -1.2750793681996697" fill="#ff2f04" stroke="none" /><path d="M 120.23288151984713 105.62410040840565 l 5.004413348951553 1.3910684512268037 a26.19415290525443,26.19415290525443 0 0,0 -0.12449377764170301,0.43337917202002796 l -4.979726934423751 -1.4770050987514136" fill="#ff3505" stroke="none" /><path d="M 120.13307415673323 105.97154293290107 l 4.450057317660935 1.3199031662730785 a25.64167582870727,25.64167582870727 0 0,0 -0.12915251479780251,0.4220778910737134 l -4.4266780303569995 -1.396308029898849" fill="#ff2d04" stroke="none" /><path d="M 120.02730092923936 106.31721596034902 l 18.931897268136986 5.971692541322655 a40.85139405632212,40.85139405632212 0 0,0 -0.2173055844228577,0.668797819714481 l -18.82629943269788 -6.296689261014931" fill="#fff817" stroke="none" /><path d="M 119.9155931802556 106.66101706037122 l 13.171365716795709 4.405326567673885 a34.88854841275483,34.88854841275483 0 0,0 -0.19539110421052192,0.5678980093842887 l -13.093583781641955 -4.631397280147475" fill="#ffac0f" stroke="none" /><path d="M 119.67450827220406 107.3425965602758 l 8.652603039912899 3.2291822717650565 a30.235537748858572,30.235537748858572 0 0,0 -0.18617276145208947,0.48603833276864344 l -8.595735998867301 -3.377644171366844" fill="#ff6e0a" stroke="none" /><path d="M 119.54520255179757 107.68017299344265 l 5.413657669029726 2.127265108419246 a26.81660951061203,26.81660951061203 0 0,0 -0.1725168494935253,0.42817267243907775 l -5.376238205278807 -2.220137148701137" fill="#ff3e05" stroke="none" /><path d="M 119.26925614724726 108.34839909993367 l 4.472764398401258 1.937823753677318 a25.874503283814857,25.874503283814857 0 0,0 -0.18057805401871538,0.4071558405981921 l -4.43874525965127 -2.014527930768198" fill="#ff3104" stroke="none" /><line stroke="#e1ed5e" stroke-width="0.3" x1="174.80103733775053" x2="179.2010983576182" y1="140.37084112569926" y2="142.7455964860345" /><path d="M 175.68104954172406 140.8457921977663 a86.0,86.0 0 0,1 -30.038265399797805,32.042727171017184" fill="none" id="id53" stroke="none" /><text fill="#e1ed5e" style="font-size:6.75px; font-family:Arial;" text-anchor="middle"><textPath startOffset="22.206326154141568" xlink:href="#id53">May</textPath></text><path d="M 118.30583269289576 110.29060199501025 l 4.09248463958045 2.3005853545771378 a25.69479749285278,25.69479749285278 0 0,0 -0.22005514468373405,0.3836846932594358 l -4.052277498744336 -2.370689893694889" fill="#ff2e04" stroke="none" /><path d="M 118.12598468904814 110.60418214915192 l 4.313963510802618 2.523783156508238 a25.997975849642646,25.997975849642646 0 0,0 -0.2293010628804499,0.3843217707601284 l -4.269881572223941 -2.59766702115447" fill="#ff3204" stroke="none" /><path d="M 117.94076556474637 110.91462005526583 l 4.044489963245233 2.460545571862381 a25.734150776433193,25.734150776433193 0 0,0 -0.23348884242984147,0.376458358462832 l -4.001536481147429 -2.5298002616904864" fill="#ff2f04" stroke="none" /><path d="M 117.55443506779139 111.5257021239791 l 4.2920313170192355 2.8180157479130616 a26.134466435936638,26.134466435936638 0 0,0 -0.2501403140652859,0.37392583004410906 l -4.242887897543228 -2.8914784921629777" fill="#ff3405" stroke="none" /><path d="M 116.93607887273984 112.41649034213515 l 4.184691482064752 3.067958159754747 a26.18883513614289,26.18883513614289 0 0,0 -0.26966859697955264,0.36126515426640526 l -4.1312616183901065 -3.1395361935304673" fill="#ff3505" stroke="none" /><path d="M 116.498646956653 112.99209946851258 l 5.84936430156854 4.606166980432309 a28.445256005275393,28.445256005275393 0 0,0 -0.3062363271336603,0.38207690408711026 l -5.769210062380026 -4.706171718097669" fill="#ff5507" stroke="none" /><path d="M 116.0416608686014 113.55231037782055 l 5.280910059511351 4.461416607050638 a27.91319384932286,27.91319384932286 0 0,0 -0.3132358672569428,0.36436407950680844 l -5.20333168268363 -4.551657785718974" fill="#ff4e07" stroke="none" /><path d="M 115.32070863581623 114.36230785411682 l 3.844693141558112 3.604184885716109 a26.269896967035354,26.269896967035354 0 0,0 -0.3121031994869015,0.32723895688986804 l -3.7820833906922458 -3.6698309591884843" fill="#ff3605" stroke="none" /><path d="M 115.07121518719521 114.62390073753431 l 4.3650092453210325 4.23545554417062 a27.08213690888192,27.08213690888192 0 0,0 -0.3275125029304792,0.33176843633937964 l -4.291456117335018 -4.3099644744906636" fill="#ff4206" stroke="none" /><path d="M 114.0293411484842 115.62618273729858 l 4.382840098811526 4.881701825305482 a27.560510654129075,27.560510654129075 0 0,0 -0.3557374843143404,0.3138969690193311 l -4.298160261590598 -4.956421936097103" fill="#ff4906" stroke="none" /><path d="M 113.48314897796784 116.09983520530334 l 2.929394453174003 3.497904534355998 a25.562530875923457,25.562530875923457 0 0,0 -0.33977456940327994,0.279611338883986 l -2.868749755226032 -3.5478109920971623" fill="#ff2c04" stroke="none" /><path d="M 112.92097659922987 116.55440617244103 l 7.0662533324851005 9.053311635151132 a32.484528188916585,32.484528188916585 0 0,0 -0.4437560907544498,0.34025324766006654 l -6.9093685132371565 -9.17360422463857" fill="#ff8c0c" stroke="none" /><path d="M 112.34349029814194 116.9893568818739 l 2.888659744884178 3.975899047251454 a25.914481494079446,25.914481494079446 0 0,0 -0.3631392246034947,0.2590901948101795 l -2.8197931924317987 -4.025033503905853" fill="#ff3104" stroke="none" /><path d="M 111.7513745106137 117.40417183066458 l 2.834014014371079 4.197267888286362 a26.06445388563185,26.06445388563185 0 0,0 -0.3739942580603014,0.24786300095879787 l -2.761345057570813 -4.245428910336479" fill="#ff3304" stroke="none" /><line stroke="#e1ed5e" stroke-width="0.3" x1="143.8653032363475" x2="146.44561519142675" y1="172.8068346515853" y2="177.08958963109032" /><path d="M 144.38136562736335 173.6633856474863 a86.0,86.0 0 0,1 -40.68145358897372,12.25698825130547" fill="none" id="id54" stroke="none" /><text fill="#e1ed5e" style="font-size:6.75px; font-family:Arial;" text-anchor="middle"><textPath startOffset="21.466115282336833" xlink:href="#id54">June</textPath></text><path d="M 110.8373102113329 117.98757091392108 l 2.8701875297219894 4.763885200327435 a26.56170645195073,26.56170645195073 0 0,0 -0.39365983086475165,0.2325811668904298 l -2.7877598278288556 -4.8125849395116145" fill="#ff3a05" stroke="none" /><path d="M 109.89434966115114 118.52300852407294 l 2.3921417058680006 4.478279293338437 a26.077137714312748,26.077137714312748 0 0,0 -0.3977497355220857,0.2080838628117156 l -2.3147010678194193 -4.518792575094869" fill="#ff3404" stroke="none" /><path d="M 109.2508944713604 118.85261126421891 l 4.520007222103751 9.21142699590787 a31.260645817335785,31.260645817335785 0 0,0 -0.4851165934286306,0.23288544533257613 l -4.360777960674888 -9.287866717740005" fill="#ff7c0b" stroke="none" /><path d="M 108.59647513512805 119.15986991738527 l 2.308008368424347 5.144101438337776 a26.638145283391125,26.638145283391125 0 0,0 -0.41996853184732724,0.18410186262439 l -2.219119161919266 -5.18306785425662" fill="#ff3c05" stroke="none" /><path d="M 108.2653958097858 119.30500536409082 l 2.3516767082821137 5.492674823175851 a26.974935987391536,26.974935987391536 0 0,0 -0.4284243347630529,0.1790814066771985 l -2.2567809140215997 -5.532341272873023" fill="#ff4006" stroke="none" /><path d="M 106.91757812671514 119.82793768551818 l 1.5558250723574767 4.45948018499932 a25.72308746226213,25.72308746226213 0 0,0 -0.41932340003025065,0.14225726407740305 l -1.4788319393899991 -4.485600435974845" fill="#ff2f04" stroke="none" /><path d="M 106.2309692047433 120.05430185196036 l 1.5780081417394636 5.078800834901244 a26.31830119643384,26.31830119643384 0 0,0 -0.4337820321097605,0.1306949679064021 l -1.4903511351894572 -5.105211171913372" fill="#ff3705" stroke="none" /><path d="M 103.7750983002368 120.6578951692458 l 0.8917855461422904 4.879982151590708 a25.96079703879852,25.96079703879852 0 0,0 -0.44028402698921204,0.07654902168428847 l -0.8076525476810285 -4.894609751796002" fill="#ff3204" stroke="none" /><path d="M 102.70371172650421 120.8252237178851 l 0.7717641123096187 5.944480004554135 a26.994369221994337,26.994369221994337 0 0,0 -0.4613113736095054,0.05585838294925829 l -0.669325315648733 -5.956883916228745" fill="#ff4106" stroke="none" /><path d="M 101.62511606390274 120.93702456842531 l 0.4458423572719714 5.743966597333829 a26.76124358787446,26.76124358787446 0 0,0 -0.45957623836445705,0.03169506813492316 l -0.346903358128584 -5.750790009985037" fill="#ff3d05" stroke="none" /><path d="M 100.90346689309514 120.98055641714683 l 0.21940015143111868 5.094970596278833 a26.099692324385256,26.099692324385256 0 0,0 -0.4490136983025563,0.015464939648059933 l -0.13166610145391008 -5.097992334352988" fill="#ff3404" stroke="none" /><line stroke="#e1ed5e" stroke-width="0.3" x1="102.19456741930631" x2="102.32365962044197" y1="184.97166512339345" y2="189.96999836594603" /><path d="M 102.22038585953345 185.97133177190398 a86.0,86.0 0 0,1 -42.740103519485714,-10.115201625700543" fill="none" id="id55" stroke="none" /><text fill="#e1ed5e" style="font-size:6.75px; font-family:Arial;" text-anchor="middle"><textPath startOffset="22.20632615414155" xlink:href="#id55">July</textPath></text><path d="M 100.54218724476979 120.99299961872073 l 0.24215272230313525 9.375934340064191 a30.3790608639732,30.3790608639732 0 0,0 -0.522867484735428,0.009001637926850705 l -0.08072554767503927 -9.3787134552702" fill="#ff700a" stroke="none" /><path d="M 99.09653310690486 120.98055641714683 l -0.20265690130713016 4.70615424172568 a25.7105156370147,25.7105156370147 0 0,0 -0.44199061486685115,-0.022845866191910678 l 0.28363558458747024 -4.7019685687715675" fill="#ff2e04" stroke="none" /><path d="M 98.01472825383883 120.90594882070398 l -0.45416429740190756 4.782587359153612 a25.804103148036113,25.804103148036113 0 0,0 -0.4418244936124181,-0.045796915274285636 l 0.536421387619919 -4.774061075423566" fill="#ff3004" stroke="none" /><path d="M 97.65516085044442 120.86867818915974 l -1.467711107931925 13.062384595502675 a34.14458318917615,34.14458318917615 0 0,0 -0.5835025979969456,-0.07065403854185716 l 1.69234112898026 -13.03518502823547" fill="#ffa20f" stroke="none" /><path d="M 97.2962882734958 120.8252237178851 l -2.190304695987954 16.870728065103386 a38.01231613002574,38.01231613002574 0 0,0 -0.6481487423299934,-0.0898275097421424 l 2.4803820295047783 -16.830525989868637" fill="#ffd413" stroke="none" /><path d="M 96.22490169976321 120.6578951692458 l -2.2267298655931085 12.184994528689726 a33.38678398772348,33.38678398772348 0 0,0 -0.5644471219495716,-0.1081776343171052 l 2.4361446021143753 -12.144859696024152" fill="#ff980e" stroke="none" /><path d="M 95.16358092515715 120.4354850818985 l -5.6527848077103915 23.884902822012315 a45.54470531294383,45.54470531294383 0 0,0 -0.76134853321178,-0.18712094594567186 l 6.063086625665383 -23.784060617752612" fill="#ceff1d" stroke="none" /><path d="M 94.81253420990036 120.34920634021253 l -4.416756931997923 17.32589703730141 a38.88000139663086,38.88000139663086 0 0,0 -0.6470920034107205,-0.17090287942846932 l 4.714339378220132 -17.24730280856936" fill="#ffdf14" stroke="none" /><path d="M 94.46302465271185 120.25689768951611 l -4.617950468782829 16.894666187596904 a38.514428683872666,38.514428683872666 0 0,0 -0.6379985389227113,-0.18030475989471362 l 4.908080175810154 -16.81267263436367" fill="#ffdb14" stroke="none" /><path d="M 93.08242187328487 119.8279376855182 l -8.244152258429294 23.630313132102305 a46.02714017184887,46.02714017184887 0 0,0 -0.7458159752682806,-0.26742307386980096 l 8.649687794327301 -23.48490251719255" fill="#c8ff1d" stroke="none" /><path d="M 92.7421414339146 119.70592522655815 l -7.053660768596877 19.15150459516976 a41.40917094095816,41.40917094095816 0 0,0 -0.6667463727983757,-0.2521064269730978 l 7.382277362155535 -19.02724991809003" fill="#ffff18" stroke="none" /><path d="M 92.40401165467489 119.57807347666478 l -6.255913153099603 16.12413313540642 a38.29520507965823,38.29520507965823 0 0,0 -0.6125024892815227,-0.24372738109586434 l 6.532536718422984 -16.014058909904488" fill="#ffd814" stroke="none" /><path d="M 91.07499286063937 119.00905698771935 l -4.269010216632708 9.092413845950228 a31.044721886430796,31.044721886430796 0 0,0 -0.48176578991635355,-0.23127685601869222 l 4.424888674549304 -9.017582713431974" fill="#ff790b" stroke="none" /><path d="M 90.42595943632237 118.69057910512821 l -23.88783241362213 46.634168552691726 a73.39631870677708,73.39631870677708 0 0,0 -1.1195004096593073,-0.585669703476828 l 24.687023725807936 -46.21606943027018" fill="#40ffc4" stroke="none" /><line stroke="#e1ed5e" stroke-width="0.3" x1="58.666819895761336" x2="56.23545636021788" y1="174.27360380694188" y2="178.64263932499728" /><path d="M 58.180547188652646 175.14741091055294 a86.0,86.0 0 0,1 -31.652253787137756,-30.449443065178592" fill="none" id="id56" stroke="none" /><text fill="#e1ed5e" style="font-size:6.75px; font-family:Arial;" text-anchor="middle"><textPath startOffset="22.20632615414155" xlink:href="#id56">August</textPath></text><path d="M 86.79598089348748 116.32954008644616 l -15.972324317294142 19.75313032410948 a46.40278137720512,46.40278137720512 0 0,0 -0.6167810667137226,-0.5075688276641491 l 16.309975512552555 -19.475266377588152" fill="#c4ff1e" stroke="none" /><path d="M 84.19399662182784 113.82643327865904 l -3.527727063051425 3.0859086699904807 a25.686970295500906,25.686970295500906 0 0,0 -0.2882536645984617,-0.335304133864491 l 3.5803232372206653 -3.0247274369644592" fill="#ff2e04" stroke="none" /><path d="M 82.6465618267979 111.8261652097733 l -52.06031451960629 35.47849562931989 a84.0,84.0 0 0,0 -0.8039875783570785,-1.2018523431767165 l 52.6633052033741 -34.57710637193735" fill="#4dd2ff" stroke="none" /><line stroke="#e1ed5e" stroke-width="0.3" x1="26.63291911575756" x2="22.317208475507996" y1="142.92168965132927" y2="145.44649492493687" /><path d="M 25.769776987707644 143.4266507060508 a86.0,86.0 0 0,1 -11.730757126820373,-40.83630448921669" fill="none" id="id57" stroke="none" /><text fill="#e1ed5e" style="font-size:6.75px; font-family:Arial;" text-anchor="middle"><textPath startOffset="21.46611528233685" xlink:href="#id57">September</textPath></text><path d="M 81.35079622478065 109.6543875284942 l -16.83160589125572 8.71344685594532 a39.95328765649742,39.95328765649742 0 0,0 -0.3109152102493685,-0.6134652063556523 l 16.979099771291356 -8.422427437886983" fill="#ffed16" stroke="none" /><path d="M 81.18737489456691 109.33194174019688 l -45.43479332180858 22.53778204162237 a71.71757154627119,71.71757154627119 0 0,0 -0.5390659577180857,-1.1106355389617732 l 45.81601253614138 -21.75235754669531" fill="#3effb2" stroke="none" /><path d="M 80.73074385275274 108.34839909993369 l -20.65351848971023 8.948130319736942 a43.508595296548336,43.508595296548336 0 0,0 -0.2918163312961837,-0.6897676060334517 l 20.80448580219872 -8.591288188037332" fill="#e6ff1a" stroke="none" /><path d="M 80.58989483394504 108.01547362559985 l -17.7001200946087 7.309329062080582 a40.149948895528325,40.149948895528325 0 0,0 -0.2582930063564456,-0.6410620593214146 l 17.823315715222535 -7.0035676349163625" fill="#ffef16" stroke="none" /><path d="M 79.86692584326677 105.97154293290107 l -16.784124159811807 4.978232197984472 a38.506844936453504,38.506844936453504 0 0,0 -0.18301269785443333,-0.6370912102416415 l 16.867329494552344 -4.688583512238234" fill="#ffdb14" stroke="none" /><path d="M 79.76711848015287 105.62410040840567 l -16.79078066742793 4.667305362140283 a38.427393803008385,38.427393803008385 0 0,0 -0.17166417780154167,-0.6388262662411589 l 16.86863292157125 -4.377588162723585" fill="#ffda14" stroke="none" /><path d="M 79.67330655649465 105.27499134158121 l -4.730741917474143 1.2276774244315047 a25.887444214331833,25.887444214331833 0 0,0 -0.10822022399219917,-0.4322859997675824 l 4.751173455761401 -1.1460635852665306" fill="#ff3104" stroke="none" /><path d="M 79.50377843672027 104.57218783832718 l -22.671256094112508 5.0573829460748305 a44.228494896313926,44.228494896313926 0 0,0 -0.15936150390955997,-0.7444838920890334 l 22.754951636746508 -4.666385234569633" fill="#ddff1b" stroke="none" /><path d="M 79.4281124754447 104.21870165774334 l -36.68453430099206 7.522941464870914 a58.44795995998363,58.44795995998363 0 0,0 -0.19362992818341068,-0.9873148322231429 l 36.80859416215114 -6.890362905579816" fill="#42ff2d" stroke="none" /><path d="M 79.35854240842038 103.8639653848113 l -5.0939582040964755 0.9535604782258028 a26.182440329682148,26.182440329682148 0 0,0 -0.07911280891239224,-0.44370664635144624 l 5.109617455348056 -0.8657350811411428" fill="#ff3505" stroke="none" /><path d="M 79.1416061653843 102.43462659150553 l -17.74789945818993 2.0715644889477147 a38.86838869651899,38.86838869651899 0 0,0 -0.0718467330267332,-0.6652115171400422 l 17.780928492717717 -1.7657566499228905" fill="#ffdf14" stroke="none" /><path d="M 79.10278846688536 102.07522291339032 l -18.439882638173916 1.8311948898218973 a39.530584082379534,39.530584082379534 0 0,0 -0.061414345956697695,-0.6777021900572586 l 18.46867158040769 -1.5135113112160723" fill="#ffe815" stroke="none" /><path d="M 79.04373962182676 101.35467743843564 l -18.422958369214257 1.1909169671325275 a39.46141051752021,39.46141051752021 0 0,0 -0.03798376693734392,-0.6782256747176799 l 18.44072848703913 -0.87361957607941" fill="#ffe715" stroke="none" /><path d="M 79.0235259727143 100.99374915477108 l -36.592880466554746 1.7335679956019432 a57.63392087717256,57.63392087717256 0 0,0 -0.0384167603668125,-0.9913658840299884 l 36.61729935977276 -1.1034248645579579" fill="#4aff2c" stroke="none" /><path d="M 79.0095281055655 100.63252640178507 l -18.724805792539367 0.5642528710952712 a39.73330545501394,39.73330545501394 0 0,0 -0.014716340911740464,-0.6838105354173175 l 18.731744196136113 -0.24185251988782486" fill="#ffea16" stroke="none" /><line stroke="#e1ed5e" stroke-width="0.3" x1="15.007084014347285" x2="10.007500721073583" y1="101.09737516637583" y2="101.16192664675087" /><path d="M 14.007167355692545 101.11028546245083 a86.0,86.0 0 0,1 10.666146001902534,-42.60595125391555" fill="none" id="id58" stroke="none" /><text fill="#e1ed5e" style="font-size:6.75px; font-family:Arial;" text-anchor="middle"><textPath startOffset="22.20632615414155" xlink:href="#id58">October</textPath></text><path d="M 79.00175016825051 100.2711162175752 l -5.048481670653683 0.06518282552176578 a26.04890245297621,26.04890245297621 0 0,0 -0.001929730864360319,-0.4484014923784729 l 5.048855698807547 0.02172814506038249" fill="#ff3304" stroke="none" /><path d="M 79.54389044137918 95.25157060432595 l -4.961805866234776 -1.1517725187841452 a26.093731185410967,26.093731185410967 0 0,0 0.10532821539687323,-0.43665345236491276 l 4.941244850577088 1.237011202808455" fill="#ff3404" stroke="none" /><path d="M 81.26839172434947 90.50648371742162 l -28.210558662714206 -14.297618979852862 a52.626848223550326,52.626848223550326 0 0,0 0.4164802732032607,-0.8045073248202314 l 27.96026895635083 14.781099026933427" fill="#7eff26" stroke="none" /><path d="M 81.43458229118936 90.18545643968196 l -15.757487400190904 -8.330140959712557 a38.82385080659777,38.82385080659777 0 0,0 0.31741622574491607,-0.5881240591353175 l 15.611763075227516 8.600146002180347" fill="#ffdf14" stroke="none" /><path d="M 81.6062741919709 89.86733742301443 l -16.306707914658062 -8.982974453634885 a39.61726491858106,39.61726491858106 0 0,0 0.33418551205809943,-0.5944787365298597 l 16.149664761307534 9.26233670009953" fill="#ffe915" stroke="none" /><line stroke="#e1ed5e" stroke-width="0.3" x1="26.266209847984243" x2="21.928928074336255" y1="57.711370442889674" y2="55.22380399835377" /><path d="M 25.398753493254645 57.213857153982495 a86.0,86.0 0 0,1 29.58750427330803,-30.492523968695096" fill="none" id="id59" stroke="none" /><text fill="#e1ed5e" style="font-size:6.75px; font-family:Arial;" text-anchor="middle"><textPath startOffset="21.46611528233685" xlink:href="#id59">November</textPath></text><path d="M 81.78341655067845 89.55222093294921 l -23.523540654793695 -13.491484631012142 a48.117837717756345,48.117837717756345 0 0,0 0.4182593219420628,-0.7149407619502097 l 23.287821658381308 13.894404805316244" fill="#b0ff20" stroke="none" /><path d="M 81.96595687620814 89.24020034530311 l -16.248473505091688 -9.69446054938107 a39.92076786468172,39.92076786468172 0 0,0 0.3571657905741414,-0.5870866492825295 l 16.07919191623133 9.972714971870674" fill="#ffec16" stroke="none" /><path d="M 82.7489923806493 88.02491185347247 l -39.32844000457393 -27.300523315050167 a68.87530434857797,68.87530434857797 0 0,0 0.6844479440340614,-0.9681030773944336 l 38.85267944073599 27.97345289277639" fill="#3aff93" stroke="none" /><path d="M 82.95767976084542 87.72973835380427 l -14.49383652613271 -10.435384615308653 a38.85969062765868,38.85969062765868 0 0,0 0.3955127977754387,-0.5394790116794809 l 14.312061115843639 10.683326070659636" fill="#ffdf14" stroke="none" /><path d="M 83.17141714833178 87.43820079747576 l -15.009515437843397 -11.203945140198527 a39.73002777316247,39.73002777316247 0 0,0 0.4138053795026192,-0.5445193737040854 l 14.81443411811667 11.460649289783639" fill="#ffea16" stroke="none" /><path d="M 85.83668400450813 84.49514656593479 l -2.7685789473473523 -3.0308164283648384 a25.104982047480984,25.104982047480984 0 0,0 0.3215697298748942,-0.28870847853791043 l 2.715998229876487 3.078023915672028" fill="#ff2603" stroke="none" /><path d="M 86.10567301691215 84.25364557470407 l -26.81161869008693 -30.385440843869656 a61.523300853446294,61.523300853446294 0 0,0 0.8001140471807826,-0.693851017260425 l 26.284610844259372 30.842456854549763" fill="#31ff3e" stroke="none" /><path d="M 87.80319425747018 82.90503203632743 l -16.254181350318046 -22.781760677757358 a48.9858362559999,48.9858362559999 0 0,0 0.6906276531835861,-0.4838288061608562 l 15.8596225575508 23.058174326682156" fill="#a6ff21" stroke="none" /><line stroke="#e1ed5e" stroke-width="0.3" x1="56.762969772571076" x2="54.21961505331055" y1="26.818313649435495" y2="22.513508569990535" /><path d="M 56.25429882871897 25.957352633546506 a86.0,86.0 0 0,1 42.265352541879196,-11.944610805530505" fill="none" id="id60" stroke="none" /><text fill="#e1ed5e" style="font-size:6.75px; font-family:Arial;" text-anchor="middle"><textPath startOffset="22.20632615414155" xlink:href="#id60">December</textPath></text></svg>