<?xml version="1.0" encoding="utf-8" ?>
<svg baseProfile="full" height="200mm" version="1.1" viewBox="0,0,200,200" width="200mm" xmlns="http://www.w3.org/2000/svg" xmlns:ev="http://www.w3.org/2001/xml-events" xmlns:xlink="http://www.w3.org/1999/xlink"><defs /><rect fill="#1a1a1a" height="200" width="200" x="0" y="0" /><text alignment-baseline="middle" fill="#e1ed5e" style="dominant-baseline: central; font-size:9.0px; font-family:Arial;" text-anchor="middle" x="100.0" y="100.0">2021</text><line stroke="#e1ed5e" stroke-width="0.3" x1="100.0" x2="100.0" y1="15.0" y2="10.0" /><path d="M 100.0 14.0 a86.0,86.0 0 0,1 42.46469731375804,11.215312516191453" fill="none" id="id37" stroke="none" /><text fill="#e1ed5e" style="font-size:6.75px; font-family:Arial;" text-anchor="middle"><textPath startOffset="22.20632615414155" xlink:href="#id37">January</textPath></text><line stroke="#e1ed5e" stroke-width="0.3" x1="143.23703022742887" x2="145.7803849466894" y1="26.81831364943548" y2="22.513508569990506" /><path d="M 143.74570117128098 25.957352633546492 a86.0,86.0 0 0,1 28.547481713284135,27.462654790039103" fill="none" id="id38" stroke="none" /><text fill="#e1ed5e" style="font-size:6.75px; font-family:Arial;" text-anchor="middle"><textPath startOffset="19.985693538727396" xlink:href="#id38">February</textPath></text><line stroke="#e1ed5e" stroke-width="0.3" x1="172.23445277983987" x2="176.4835382374775" y1="55.19839476539836" y2="52.563006222186495" /><path d="M 173.08426987136738 54.67131705675599 a86.0,86.0 0 0,1 12.851231095245387,41.99856678651699" fill="none" id="id39" stroke="none" /><text fill="#e1ed5e" style="font-size:6.75px; font-family:Arial;" text-anchor="middle"><textPath startOffset="22.20632615414155" xlink:href="#id39">March</textPath></text><line stroke="#e1ed5e" stroke-width="0.3" x1="184.98032266829074" x2="189.97916517819016" y1="98.17113171792111" y2="98.06355123074" /><path d="M 185.9800911702706 98.14961562048488 a86.0,86.0 0 0,1 -9.607161424134198,41.387399972396054" fill="none" id="id40" stroke="none" /><text fill="#e1ed5e" style="font-size:6.75px; font-family:Arial;" text-anchor="middle"><textPath startOffset="21.466115282336823" xlink:href="#id40">April</textPath></text><line stroke="#e1ed5e" stroke-width="0.3" x1="174.80103733775053" x2="179.2010983576182" y1="140.37084112569926" y2="142.7455964860345" /><path d="M 175.68104954172406 140.8457921977663 a86.0,86.0 0 0,1 -30.038265399797805,32.042727171017184" fill="none" id="id41" stroke="none" /><text fill="#e1ed5e" style="font-size:6.75px; font-family:Arial;" text-anchor="middle"><textPath startOffset="22.206326154141568" xlink:href="#id41">May</textPath></text><path d="M 118.30583269289576 110.29060199501025 l 4.1770940623758746 2.3481484405957906 a25.79185933693887,25.79185933693887 0 0,0 -0.2208864008222413,0.3851340584037117 l -4.136055665401254 -2.4197023448578174" fill="#ff0000" stroke="none" /><path d="M 117.75023020441432 111.22182372390056 l 24.419390658799866 15.438115126527594 a49.89017201068561,49.89017201068561 0 0,0 -0.4651549069035547,0.7219307452500311 l -24.15003088851926 -15.856167471699077" fill="#b2ff20" stroke="none" /><path d="M 117.55443506779139 111.5257021239791 l 13.742569969582714 9.022948746323804 a37.43994627265135,37.43994627265135 0 0,0 -0.3583482349710652,0.5356819899547439 l -13.585218629200929 -9.258167650484355" fill="#ffab0f" stroke="none" /><path d="M 116.93607887273984 112.41649034213515 l 5.111782849951079 3.747644473342115 a27.338388044576135,27.338388044576135 0 0,0 -0.28150563815986585,0.37712280530905856 l -5.046515945096122 -3.8350801581604888" fill="#ff1802" stroke="none" /><path d="M 114.81725581225074 114.88116024355365 l 12.37023001031451 12.423580814533047 a38.53191235328649,38.53191235328649 0 0,0 -0.4740343519772994,0.46394238441547453 l -12.154545705961416 -12.634673301871095" fill="#ffba11" stroke="none" /><line stroke="#e1ed5e" stroke-width="0.3" x1="143.8653032363475" x2="146.44561519142675" y1="172.8068346515853" y2="177.08958963109032" /><path d="M 144.38136562736335 173.6633856474863 a86.0,86.0 0 0,1 -40.68145358897372,12.25698825130547" fill="none" id="id42" stroke="none" /><text fill="#e1ed5e" style="font-size:6.75px; font-family:Arial;" text-anchor="middle"><textPath startOffset="21.466115282336833" xlink:href="#id42">June</textPath></text><path d="M 104.13013068566511 120.58985236759428 l 4.4248696321871135 22.059208147771265 a43.49862518840985,43.49862518840985 0 0,0 -0.735400983975833,0.14094134884806186 l -4.044501033639576 -22.132106694967796" fill="#fffd17" stroke="none" /><path d="M 101.26447882468166 120.96189622390904 l 0.8182705902158924 13.564879743637096 a34.589537490957824,34.589537490957824 0 0,0 -0.5946302734426213,0.030735593027968345 l -0.5846522483597916 -13.576955143427266" fill="#ff830c" stroke="none" /><line stroke="#e1ed5e" stroke-width="0.3" x1="102.19456741930631" x2="102.32365962044197" y1="184.97166512339345" y2="189.96999836594603" /><path d="M 102.22038585953345 185.97133177190398 a86.0,86.0 0 0,1 -42.740103519485714,-10.115201625700543" fill="none" id="id43" stroke="none" /><text fill="#e1ed5e" style="font-size:6.75px; font-family:Arial;" text-anchor="middle"><textPath startOffset="22.20632615414155" xlink:href="#id43">July</textPath></text><path d="M 100.54218724476979 120.99299961872073 l 0.7425601241454719 28.751256237467935 a49.7608437075568,49.7608437075568 0 0,0 -0.8564559419458007,0.014744665741831298 l -0.24754449230700332 -28.759778380488925" fill="#b3ff20" stroke="none" /><path d="M 99.09653310690486 120.98055641714683 l -1.1539133714491197 26.796493347143624 a47.821326808573836,47.821326808573836 0 0,0 -0.8220985505806212,-0.042493104720756326 l 1.61499999044323 -26.772660435660665" fill="#cbff1d" stroke="none" /><line stroke="#e1ed5e" stroke-width="0.3" x1="58.666819895761336" x2="56.23545636021788" y1="174.27360380694188" y2="178.64263932499728" /><path d="M 58.180547188652646 175.14741091055294 a86.0,86.0 0 0,1 -31.652253787137756,-30.449443065178592" fill="none" id="id44" stroke="none" /><text fill="#e1ed5e" style="font-size:6.75px; font-family:Arial;" text-anchor="middle"><textPath startOffset="22.20632615414155" xlink:href="#id44">August</textPath></text><path d="M 84.9287848128048 114.62390073753433 l -13.41877050959541 13.020500703805302 a39.6975089401498,39.6975089401498 0 0,0 -0.4716318289115543,-0.4945040870545603 l 13.640908889885921 -12.787589500168242" fill="#ffca12" stroke="none" /><path d="M 83.28015986056508 112.70617746262583 l -28.497930399003167 21.656891330752373 a56.79319738635326,56.79319738635326 0 0,0 -0.5848042411029064,-0.7834408483005796 l 28.866495906801156 -21.163137602942488" fill="#62ff29" stroke="none" /><path d="M 82.85270091963577 112.12312394758628 l -28.581857244564855 20.20734556527701 a56.00370520878047,56.00370520878047 0 0,0 -0.5497406184427278,-0.7919423624595274 l 28.925458770169715 -19.71236194063047" fill="#6bff28" stroke="none" /><line stroke="#e1ed5e" stroke-width="0.3" x1="26.63291911575756" x2="22.317208475507996" y1="142.92168965132927" y2="145.44649492493687" /><path d="M 25.769776987707644 143.4266507060508 a86.0,86.0 0 0,1 -11.730757126820373,-40.83630448921669" fill="none" id="id45" stroke="none" /><text fill="#e1ed5e" style="font-size:6.75px; font-family:Arial;" text-anchor="middle"><textPath startOffset="21.46611528233685" xlink:href="#id45">September</textPath></text><path d="M 81.87401531095188 110.60418214915194 l -36.024026858567716 21.075011874251693 a62.735915427922,62.735915427922 0 0,0 -0.5372823409173835,-0.936797049052762 l 36.38146119563747 -20.451794979340626" fill="#31ff3e" stroke="none" /><path d="M 81.69416730710424 110.29060199501025 l -30.757091496370503 17.290062267208192 a56.283777157782346,56.283777157782346 0 0,0 -0.46748659530910064,-0.8486239611467191 l 31.050154501131118 -16.75806778766365" fill="#68ff28" stroke="none" /><path d="M 81.51974371655577 109.97397251340807 l -21.923107667486935 11.832112603324124 a45.912276862181145,45.912276862181145 0 0,0 -0.36936971512143346,-0.698708300398179 l 22.123529890833254 -11.452989287839818" fill="#e3ff1b" stroke="none" /><path d="M 81.02952815118164 109.00673069616217 l -27.0073630653849 12.822456282685977 a50.896706254484116,50.896706254484116 0 0,0 -0.3689414576752207,-0.7946670772595025 l 27.22407913989995 -12.355669138147647" fill="#a6ff21" stroke="none" /><path d="M 80.87730276802145 108.67885076344099 l -57.36809169593562 26.03655229032298 a84.0,84.0 0 0,0 -0.5862356610748805,-1.3218066540292166 l 57.80776844174178 -25.045197299801067" fill="#4dd2ff" stroke="none" /><path d="M 80.73074385275274 108.34839909993369 l -33.590851913039266 14.553225912505402 a57.60794608693791,57.60794608693791 0 0,0 -0.3863820324700812,-0.9132929893520073 l 33.836384926701655 -13.972858397487235" fill="#59ff2a" stroke="none" /><path d="M 80.58989483394504 108.01547362559985 l -20.67790745388526 8.53901719806594 a43.37164883016693,43.37164883016693 0 0,0 -0.27901887487153226,-0.6925019652597535 l 20.82182894301418 -8.181815864963381" fill="#fffb17" stroke="none" /><path d="M 80.45479744820244 107.68017299344265 l -20.398265038095545 8.015378906587936 a42.91655802311499,42.91655802311499 0 0,0 -0.26425506916885005,-0.6898865991067133 l 20.533214386857907 -7.663068740648064" fill="#fff517" stroke="none" /><path d="M 80.32549172779594 107.34259656027581 l -26.24086840380643 9.79318554825841 a49.00874252387108,49.00874252387108 0 0,0 -0.28816146192093645,-0.792896582783104 l 26.405554126732593 -9.340041168469188" fill="#bcff1f" stroke="none" /><path d="M 80.20201598880116 107.00284435728193 l -25.902221127181623 9.162004725276512 a48.474850134393876,48.474850134393876 0 0,0 -0.2714803259265521,-0.7890489042662521 l 26.056092284051402 -8.714783117920964" fill="#c3ff1e" stroke="none" /><path d="M 79.97269907076064 106.31721596034903 l -14.729856737977276 4.6462419677806714 a36.4452660690744,36.4452660690744 0 0,0 -0.1835682580475626,-0.5999116884877655 l 14.807651768530969 -4.3920033067408575" fill="#ff9e0e" stroke="none" /><path d="M 79.50377843672027 104.57218783832718 l -15.725850357669815 3.508038861245877 a37.112377419978564,37.112377419978564 0 0,0 -0.13372112917638274,-0.6247005974559061 l 15.783905525570638 -3.236824444373807" fill="#ffa70f" stroke="none" /><path d="M 79.4281124754447 104.21870165774334 l -5.432359167026315 1.1140204123727613 a26.54540959702329,26.54540959702329 0 0,0 -0.08794123451682369,-0.44841046018583736 l 5.450730334518806 -1.0203462251189692" fill="#ff0c01" stroke="none" /><path d="M 79.18660465613746 102.79330883721812 l -5.0998897043167455 0.6844422423420896 a26.145613294768488,26.145613294768488 0 0,0 -0.056024435146672595,-0.446569871052407 l 5.110915648710266 -0.5965546170022741" fill="#ff0500" stroke="none" /><path d="M 79.0095281055655 100.63252640178507 l -23.479271058814994 0.7075238190955788 a44.48992889320645,44.48992889320645 0 0,0 -0.016478089432373114,-0.7656720665132292 l 23.487971210932375 -0.30326193679222085" fill="#f5ff19" stroke="none" /><line stroke="#e1ed5e" stroke-width="0.3" x1="15.007084014347285" x2="10.007500721073583" y1="101.09737516637583" y2="101.16192664675087" /><path d="M 14.007167355692545 101.11028546245083 a86.0,86.0 0 0,1 10.666146001902534,-42.60595125391555" fill="none" id="id46" stroke="none" /><text fill="#e1ed5e" style="font-size:6.75px; font-family:Arial;" text-anchor="middle"><textPath startOffset="22.20632615414155" xlink:href="#id46">October</textPath></text><line stroke="#e1ed5e" stroke-width="0.3" x1="26.266209847984243" x2="21.928928074336255" y1="57.711370442889674" y2="55.22380399835377" /><path d="M 25.398753493254645 57.213857153982495 a86.0,86.0 0 0,1 29.58750427330803,-30.492523968695096" fill="none" id="id47" stroke="none" /><text fill="#e1ed5e" style="font-size:6.75px; font-family:Arial;" text-anchor="middle"><textPath startOffset="21.46611528233685" xlink:href="#id47">November</textPath></text><line stroke="#e1ed5e" stroke-width="0.3" x1="56.762969772571076" x2="54.21961505331055" y1="26.818313649435495" y2="22.513508569990535" /><path d="M 56.25429882871897 25.957352633546506 a86.0,86.0 0 0,1 42.265352541879196,-11.944610805530505" fill="none" id="id48" stroke="none" /><text fill="#e1ed5e" style="font-size:6.75px; font-family:Arial;" text-anchor="middle"><textPath startOffset="22.20632615414155" xlink:href="#id48">December</textPath></text></svg>