<?xml version="1.0" encoding="utf-8" ?>
<svg baseProfile="full" height="200mm" version="1.1" viewBox="0,0,200,200" width="200mm" xmlns="http://www.w3.org/2000/svg" xmlns:ev="http://www.w3.org/2001/xml-events" xmlns:xlink="http://www.w3.org/1999/xlink"><defs /><rect fill="#1a1a1a" height="200" width="200" x="0" y="0" /><text alignment-baseline="middle" fill="#e1ed5e" style="dominant-baseline: central; font-size:9.0px; font-family:Arial;" text-anchor="middle" x="100.0" y="100.0">2024</text><line stroke="#e1ed5e" stroke-width="0.3" x1="100.0" x2="100.0" y1="15.0" y2="10.0" /><path d="M 100.0 14.0 a86.0,86.0 0 0,1 42.35913384403234,11.155469271406648" fill="none" id="id73" stroke="none" /><text fill="#e1ed5e" style="font-size:6.75px; font-family:Arial;" text-anchor="middle"><textPath startOffset="22.145653131862478" xlink:href="#id73">January</textPath></text><path d="M 104.64783097203109 79.52079915486377 l 0.18771489849264977 -0.827106478481814 a21.848140324393725,21.848140324393725 0 0,0 0.3650385685908951,0.08614810823896014 l -0.20188562082342984 0.8237622265966263" fill="#ff0b01" stroke="none" /><path d="M 109.3889696526874 81.21577127319529 l 0.8954947177297902 -1.7915893035895687 a23.0029236186681,23.0029236186681 0 0,0 0.35169583785505254,0.1795784007408474 l -0.9261177772984216 1.7759529511758874" fill="#ff1b02" stroke="none" /><line stroke="#e1ed5e" stroke-width="0.3" x1="143.13028292997686" x2="145.6673583964461" y1="26.7553504044142" y2="22.446841604673864" /><path d="M 143.63769802327073 25.89364864446614 a86.0,86.0 0 0,1 29.32050498858742,28.57503671076993" fill="none" id="id74" stroke="none" /><text fill="#e1ed5e" style="font-size:6.75px; font-family:Arial;" text-anchor="middle"><textPath startOffset="20.669276256404974" xlink:href="#id74">February</textPath></text><path d="M 115.16444852881244 85.47280134310134 l 1.3316899803628692 -1.27572887714156 a22.844148142577414,22.844148142577414 0 0,0 0.26884752127155526,0.2855067509672642 l -1.3533933353706844 1.2526806662298011" fill="#ff1902" stroke="none" /><line stroke="#e1ed5e" stroke-width="0.3" x1="172.87174338648825" x2="177.1583165268699" y1="56.24261187166439" y2="53.66864786411523" /><path d="M 173.72905801456457 55.72781907015455 a86.0,86.0 0 0,1 12.242430191666344,42.057860355516425" fill="none" id="id75" stroke="none" /><text fill="#e1ed5e" style="font-size:6.75px; font-family:Arial;" text-anchor="middle"><textPath startOffset="22.145653131862474" xlink:href="#id75">March</textPath></text><path d="M 118.18653347947321 89.5 l 0.11387989919745432 -0.06574859045693772 a21.131497180913875,21.131497180913875 0 0,0 0.17867851649881697,0.31570781800863335 l -0.11499178071764729 0.0637840023491863" fill="#ff0100" stroke="none" /><path d="M 119.0197475246899 91.09779779509293 l 2.514443981784264 -1.1768867451945924 a23.776236832214757,23.776236832214757 0 0,0 0.16984785200560637,0.371148209289192 l -2.534276298644922 1.1335495536907163" fill="#ff2603" stroke="none" /><path d="M 119.16976305983485 91.42560881287824 l 2.5133259530453205 -1.1241787305816524 a23.753286248202926,23.753286248202926 0 0,0 0.1632937964282257,0.3736481626311017 l -2.5322536314905166 1.0808684981747014" fill="#ff2603" stroke="none" /><path d="M 119.71291397450082 92.76114493625339 l 2.579113403567086 -0.9470861662328698 a23.74750762596377,23.74750762596377 0 0,0 0.13723778511272022,0.3838785100996334 l -2.5949913587237496 0.9026726997523196" fill="#ff2603" stroke="none" /><path d="M 120.43855184770803 95.1765574152323 l 61.3156555431241 -14.470327754303117 a84.0,84.0 0 0,0 0.3191565537693344,1.406262664243895 l -61.555022958451104 13.415630756120196" fill="#4dd2ff" stroke="none" /><path d="M 120.98066250479742 99.09900007780936 l 2.053344092537727 -0.08817943032943178 a23.055236622458057,23.055236622458057 0 0,0 0.013586465217364205,0.39555511066969123 l -2.054555244751939 0.052918055095620586" fill="#ff1c02" stroke="none" /><line stroke="#e1ed5e" stroke-width="0.3" x1="184.99686870605535" x2="189.99668451229388" y1="99.2704041080226" y2="99.22748670261217" /><path d="M 185.99683186730306 99.26182062694052 a86.0,86.0 0 0,1 -10.086455211305974,41.156179273409016" fill="none" id="id76" stroke="none" /><text fill="#e1ed5e" style="font-size:6.75px; font-family:Arial;" text-anchor="middle"><textPath startOffset="21.40746469413373" xlink:href="#id76">April</textPath></text><path d="M 120.99922638620191 99.81974689727618 l 2.7519717949025213 -0.023622368058548362 a23.752073177844604,23.752073177844604 0 0,0 0.0,0.4077509415647501 l -2.7519717949025213 -0.02362236805854803" fill="#ff2603" stroke="none" /><path d="M 120.9064616781168 101.97986365728391 l 1.3595978513366926 0.12875533009014106 a22.36568087501655,22.36568087501655 0 0,0 -0.03947820383597243,0.3819158103735269 l -1.357187255019054 -0.15207566274659937" fill="#ff1202" stroke="none" /><path d="M 120.86939407059847 102.33845913500097 l 1.423239296854837 0.15947693180567388 a22.432146287182285,22.432146287182285 0 0,0 -0.04616526491666906,0.382314618874363 l -1.4202919456785044 -0.1838852276034455" fill="#ff1302" stroke="none" /><path d="M 120.82617615685814 102.69636545807757 l 2.700880072416782 0.3496829988771843 a23.723422729816622,23.723422729816622 0 0,0 -0.05575623799024829,0.40342436315854147 l -2.6944793178713238 -0.3959956702358108" fill="#ff2603" stroke="none" /><path d="M 120.77682067341334 103.0534771498775 l 2.7426857721943096 0.40308035894086414 a23.77214700561875,23.77214700561875 0 0,0 -0.06280205926388,0.4032342716316323 l -2.735362220792162 -0.450102812503947" fill="#ff2603" stroke="none" /><path d="M 120.65975698304385 103.76489593502545 l 2.7091374393973027 0.49369508757452124 a23.75375389333168,23.75375389333168 0 0,0 -0.07654783800851667,0.4005306344980317 l -2.7002633091066266 -0.5401282871058676" fill="#ff2603" stroke="none" /><path d="M 120.43855184770803 104.8234425847677 l 2.5991906424136384 0.6134019143804251 a23.670590553449966,23.670590553449966 0 0,0 -0.09672532972435918,0.3946723528750974 l -2.5882777861729833 -0.6579300918636221" fill="#ff2503" stroke="none" /><path d="M 120.16314734710363 105.8691983318838 l 2.5438810369138327 0.7404866949261375 a23.649462450259,23.649462450259 0 0,0 -0.11680996548937338,0.3888223847317916 l -2.5307947514208298 -0.7840466832486526" fill="#ff2503" stroke="none" /><path d="M 119.94978838288452 106.5578916946017 l 1.8678633809779357 0.6140037938083998 a22.966192836119955,22.966192836119955 0 0,0 -0.12633000397867467,0.37347220939230935 l -1.857047955426896 -0.6459776776748696" fill="#ff1b02" stroke="none" /><path d="M 119.83427380445688 106.89939002012753 l 5.32741761692411 1.8531523917451667 a26.64052765724486,26.64052765724486 0 0,0 -0.15395666221061255,0.43064418491437595 l -5.294820784669554 -1.944331533040464" fill="#ff4e07" stroke="none" /><path d="M 119.31412917781788 108.2440532568976 l 0.4601966707816264 0.19643059377111083 a21.500365820143386,21.500365820143386 0 0,0 -0.1478059213652009,0.33820887352801615 l -0.45675686739945986 -0.2043015370749717" fill="#ff0601" stroke="none" /><line stroke="#e1ed5e" stroke-width="0.3" x1="174.33088141563837" x2="178.70328620479359" y1="141.23008692659167" y2="143.65538615756765" /><path d="M 175.20536237346943 141.71514677278685 a86.0,86.0 0 0,1 -30.301960400862466,31.631185727798858" fill="none" id="id77" stroke="none" /><text fill="#e1ed5e" style="font-size:6.75px; font-family:Arial;" text-anchor="middle"><textPath startOffset="22.145653131862474" xlink:href="#id77">May</textPath></text><path d="M 118.18653347947321 110.5 l 2.7213381373077707 1.5711653061306354 a24.142330612261272,24.142330612261272 0 0,0 -0.21029842703435925,0.3571327047318972 l -2.693966000143646 -1.617649179156082" fill="#ff2b04" stroke="none" /><path d="M 117.21940702142032 112.02048342749411 l 0.5121075901697824 0.3574908702182512 a21.6245429578491,21.6245429578491 0 0,0 -0.21509716786118777,0.3025611039530804 l -0.505895323778634 -0.3662292008808356" fill="#ff0801" stroke="none" /><path d="M 116.57777611688842 112.89097897827486 l 0.7808865687007251 0.6072221189718694 a21.989192870448367,21.989192870448367 0 0,0 -0.23427240991507323,0.29599553685186664 l -0.7703477281440904 -0.6205375997384189" fill="#ff0d01" stroke="none" /><path d="M 116.1254893667686 113.45245675266167 l 0.3261682689691714 0.2721011705505572 a21.42476438962951,21.42476438962951 0 0,0 -0.23802447655617817,0.28039223487914466 l -0.32144922890587874 -0.27766018787925856" fill="#ff0500" stroke="none" /><path d="M 115.89218393027572 113.72728997021213 l 0.5343601345769594 0.4615675572370645 a21.70610577346379,21.70610577346379 0 0,0 -0.2459910961251929,0.2798927114277809 l -0.526357974493181 -0.47067254647613854" fill="#ff0901" stroke="none" /><path d="M 115.16444852881244 114.52719865689866 l 0.5128439782341041 0.49129293014814834 a21.710195528868308,21.710195528868308 0 0,0 -0.2601224640314285,0.2669085636345841 l -0.5043347130518685 -0.5000241858504698" fill="#ff0901" stroke="none" /><path d="M 114.91283532996324 114.78537596483092 l 0.6452896969815795 0.6397744335669524 a21.908685929722967,21.908685929722967 0 0,0 -0.26708574368304916,0.2648029732659879 l -0.6342120331685654 -0.650757417061602" fill="#ff0c01" stroke="none" /><path d="M 114.65682725009322 115.03919595460226 l 0.5050261519061338 0.5182013222313697 a21.723591061630433,21.723591061630433 0 0,0 -0.26929754567394176,0.25798095699870255 l -0.49605612036687996 -0.5267944095356524" fill="#ff0901" stroke="none" /><path d="M 113.86319453409587 115.77377054828091 l 1.84858672379747 2.103352351297098 a23.800243558890422,23.800243558890422 0 0,0 -0.30919975378605863,0.26707938302006373 l -1.8122074902485557 -2.13477586678188" fill="#ff2703" stroke="none" /><path d="M 113.59037401385872 116.0094264158162 l 0.508641150209529 0.5991779959868451 a21.78595807175783,21.78595807175783 0 0,0 -0.2871863023397809,0.2395810275466341 l -0.4982805137078532 -0.6078212074453494" fill="#ff0a01" stroke="none" /><path d="M 113.03279911837588 116.46651593811092 l 0.43783150375020224 0.553185802161602 a21.705486326862072,21.705486326862072 0 0,0 -0.2941507407371867,0.2287333951520871 l -0.4282708183777849 -0.5606202489344823" fill="#ff0901" stroke="none" /><path d="M 112.45986205192187 116.90419585922612 l 2.062151134462178 2.7977040614905646 a24.47557409891437,24.47557409891437 0 0,0 -0.3403491628039074,0.24638654689102824 l -2.0138209612843023 -2.8326913797546696" fill="#ff3004" stroke="none" /><path d="M 112.16784306229584 117.11559508785304 l 0.4082271243508518 0.5742225740828619 a21.70454307862764,21.70454307862764 0 0,0 -0.3055223560891884,0.21327833261218432 l -0.398309677087905 -0.5811457225001683" fill="#ff0901" stroke="none" /><path d="M 111.8722381534696 117.32195027204791 l 1.5964064341053192 2.3292046965439512 a23.82377549058973,23.82377549058973 0 0,0 -0.33932284194185824,0.2283115515557691 l -1.5561873040664576 -2.3562659221568416" fill="#ff2703" stroke="none" /><path d="M 111.5731344415666 117.5232005979908 l 0.7537976218866316 1.1413456747867716 a22.367801449084045,22.367801449084045 0 0,0 -0.32221815777001916,0.208857916937188 l -0.7340938318596028 -1.1541174334278543" fill="#ff1202" stroke="none" /><path d="M 110.96478420261333 117.91015095944535 l 1.4509803789755529 2.370067403647727 a23.778950081956406,23.778950081956406 0 0,0 -0.3499664073232659,0.21014477224601266 l -1.4100812150948503 -2.394626176429663" fill="#ff2603" stroke="none" /><line stroke="#e1ed5e" stroke-width="0.3" x1="143.1302829299769" x2="145.66735839644613" y1="173.24464959558577" y2="177.55315839532614" /><path d="M 143.63769802327073 174.10635135553383 a86.0,86.0 0 0,1 -40.68552437913181,11.842963189579606" fill="none" id="id78" stroke="none" /><text fill="#e1ed5e" style="font-size:6.75px; font-family:Arial;" text-anchor="middle"><textPath startOffset="21.407464694133747" xlink:href="#id78">June</textPath></text><path d="M 110.34350942703117 118.27599006163325 l 3.814464418916504 6.7397931333041825 a28.7443495713271,28.7443495713271 0 0,0 -0.43151539333494016,0.23935431463373977 l -3.698204837425469 -6.804280363371066" fill="#ff6b09" stroke="none" /><path d="M 110.02825361518725 118.45085714620011 l 0.4046922110812106 0.7445880869557417 a21.847459264476004,21.847459264476004 0 0,0 -0.3310526611716161,0.17626689545859084 l -0.39185073412304083 -0.7514254501369011" fill="#ff0b01" stroke="none" /><path d="M 109.71004243097381 118.62028667847754 l 0.055995415225702345 0.1073785919675325 a21.121101810635633,21.121101810635633 0 0,0 -0.32292432565767,0.1648874616077225 l -0.05414386785445005 -0.10832400524809126" fill="#ff0000" stroke="none" /><path d="M 109.3889696526874 118.78422872680471 l 0.4193411723086717 0.8389632501323392 a21.93792662499037,21.93792662499037 0 0,0 -0.3383034614258997,0.16548117558604758 l -0.4048774616207026 -0.8460381758156102" fill="#ff0c01" stroke="none" /><path d="M 109.06512990194946 118.94263497670748 l 1.2052309043732734 2.5184690491065447 a23.79200069558803,23.79200069558803 0 0,0 -0.36992174984221265,0.1731420573702976 l -1.1618204406595545 -2.5387873380473756" fill="#ff2703" stroke="none" /><path d="M 108.73861861582097 119.09545874513695 l 0.40215757335382174 0.8787868756646539 a21.966435247001204,21.966435247001204 0 0,0 -0.3442314012775163,0.15397032734477303 l -0.3870127692206785 -0.8855609539192771" fill="#ff0d01" stroke="none" /><path d="M 108.07796709384702 119.3841803445677 l 0.27320368025237696 0.6555893762980921 a21.71023776386388,21.71023776386388 0 0,0 -0.3452398594160553,0.14040604528696313 l -0.26190935964588075 -0.6601826781643465" fill="#ff0901" stroke="none" /><path d="M 107.407793817531 119.65005319985036 l 0.9980344651783851 2.6474049925131324 a23.829280118345896,23.829280118345896 0 0,0 -0.38400413811051803,0.1410116385257232 l -0.9524411754137401 -2.6641474800475775" fill="#ff2703" stroke="none" /><path d="M 107.06938296918513 119.77432235084164 l 0.5005971330388931 1.400259275776549 a22.487051959080457,22.487051959080457 0 0,0 -0.3646053045614562,0.12682865147357325 l -0.47648605643241504 -1.408646359818713" fill="#ff1402" stroke="none" /><line stroke="#e1ed5e" stroke-width="0.3" x1="101.45913802915013" x2="101.54496967792366" y1="184.9874750549273" y2="189.98673829345242" /><path d="M 101.47630435890484 185.9873277026323 a86.0,86.0 0 0,1 -42.54439059252881,-10.42667462771756" fill="none" id="id79" stroke="none" /><text fill="#e1ed5e" style="font-size:6.75px; font-family:Arial;" text-anchor="middle"><textPath startOffset="22.145653131862474" xlink:href="#id79">July</textPath></text><path d="M 99.63950707515114 120.99690560180557 l -0.012218034700448235 0.7116392682393444 a21.7117441453726,21.7117441453726 0 0,0 -0.3726011199187981,-0.009596883141942918 l 0.024432468689990213 -0.7113246677473541" fill="#ff0901" stroke="none" /><path d="M 97.12497278360702 120.80226474461374 l -0.025868718775592523 0.1871731625723439 a21.188952331021408,21.188952331021408 0 0,0 -0.3598841588071838,-0.05289057805301361 l 0.029077983190461214 -0.18670151122044787" fill="#ff0100" stroke="none" /><path d="M 96.76829788921471 120.74984581791261 l -0.13924024152797784 0.8940222348192812 a21.90480031013038,21.90480031013038 0 0,0 -0.3710490600687432,-0.061055981633583604 l 0.15456680464978456 -0.8915002546900292" fill="#ff0c01" stroke="none" /><path d="M 96.41257539226777 120.69131181640829 l -0.042594916322835845 0.24567615819158728 a21.249341335522868,21.249341335522868 0 0,0 -0.3588763479346549,-0.0653992253938357 l 0.0468059978085479 -0.2449087588663856" fill="#ff0200" stroke="none" /><path d="M 96.05791012581884 120.62667999033965 l -0.09241614478945355 0.48356032088408624 a21.49231222588035,21.49231222588035 0 0,0 -0.3617908526626029,-0.07236830307629324 l 0.10070348298301454 -0.48190262114493154" fill="#ff0600" stroke="none" /><path d="M 90.93487009805054 118.94263497670748 l -0.23155779594432552 0.4838667346224122 a21.53641963958896,21.53641963958896 0 0,0 -0.332111846089141,-0.16245254625904015 l 0.23982989129553597 -0.4798204382661509" fill="#ff0601" stroke="none" /><line stroke="#e1ed5e" stroke-width="0.3" x1="58.13341422392154" x2="55.67067388415222" y1="173.97424548756322" y2="178.32567169271397" /><path d="M 57.64086615596768 174.84453072859336 a86.0,86.0 0 0,1 -31.369924170532247,-30.572349798747897" fill="none" id="id80" stroke="none" /><text fill="#e1ed5e" style="font-size:6.75px; font-family:Arial;" text-anchor="middle"><textPath startOffset="22.145653131862474" xlink:href="#id80">August</textPath></text><path d="M 85.34317274990678 115.03919595460226 l -0.4949890058548261 0.5079023261584226 a21.709210045638304,21.709210045638304 0 0,0 -0.2646539609180567,-0.26239197484418086 l 0.5036348869028453 -0.4993303410855823" fill="#ff0901" stroke="none" /><path d="M 83.8745106332314 113.45245675266167 l -0.06639794203167401 0.05539152476746347 a21.086469114266922,21.086469114266922 0 0,0 -0.22949426605200454,-0.279945689337751 l 0.06733902732230845 -0.05424355373121728" fill="#ff0000" stroke="none" /><path d="M 82.37810715431573 111.42229804090323 l -1.9172270324503358 1.242723399154446 a23.284758398773118,23.284758398773118 0 0,0 -0.21453280023466997,-0.33728119491989167 l 1.9382775243108958 -1.2096285295558822" fill="#ff1f03" stroke="none" /><line stroke="#e1ed5e" stroke-width="0.3" x1="26.387840678322732" x2="22.057713659400548" y1="142.50000000000003" y2="145.00000000000006" /><path d="M 25.521815274538298 143.00000000000003 a86.0,86.0 0 0,1 -11.493303480769221,-40.785679425670985" fill="none" id="id81" stroke="none" /><text fill="#e1ed5e" style="font-size:6.75px; font-family:Arial;" text-anchor="middle"><textPath startOffset="21.40746469413373" xlink:href="#id81">September</textPath></text><path d="M 81.4637452351635 109.86951160357371 l -2.4829741599920534 1.322043886120025 a23.81299852755304,23.81299852755304 0 0,0 -0.18902070038354793,-0.36247211629901294 l 2.5053029293505507 -1.2792255267165094" fill="#ff2703" stroke="none" /><path d="M 81.1358732173502 109.22738970284198 l -0.1742807189467528 0.08524943295505501 a21.19401349132407,21.19401349132407 0 0,0 -0.15705848125368993,-0.3281918199258138 l 0.1757184581603547 -0.08224511096413652" fill="#ff0200" stroke="none" /><path d="M 80.9802524753101 108.90220220490708 l -2.5506080572771035 1.1938133585564614 a23.816166152220912,23.816166152220912 0 0,0 -0.17013309097268192,-0.37177150790969593 l 2.5707256131048415 -1.1498528684320766" fill="#ff2703" stroke="none" /><path d="M 80.83023694016515 108.57439118712176 l -0.23129854243202336 0.1034568960311572 a21.253381816765884,21.253381816765884 0 0,0 -0.14610801080465002,-0.3343237218863829 l 0.2330404352536414 -0.09947110436892495" fill="#ff0200" stroke="none" /><path d="M 80.5471966667186 107.91128576633889 l -2.618449986458828 1.0649008141824283 a23.826710822781955,23.826710822781955 0 0,0 -0.15083592895141032,-0.3802050742790842 l 2.636344590376363 -1.0197947226897788" fill="#ff2703" stroke="none" /><path d="M 79.56144815229197 104.8234425847677 l -1.396501606342849 0.329570576620181 a22.434863582885814,22.434863582885814 0 0,0 -0.08524087792141641,-0.37558703611925404 l 1.4019533458219318 -0.3055492065619007" fill="#ff1302" stroke="none" /><path d="M 79.22317932658666 103.0534771498775 l -2.7455652590574795 0.40350354434917535 a23.77505742319789,23.77505742319789 0 0,0 -0.055877593002357846,-0.4043024275732529 l 2.7520873686150495 -0.3563128085758368" fill="#ff2603" stroke="none" /><line stroke="#e1ed5e" stroke-width="0.3" x1="15.003131293944662" x2="10.003315487706104" y1="100.72959589197737" y2="100.7725132973878" /><path d="M 14.003168132696942 100.73817937305945 a86.0,86.0 0 0,1 10.791469493833604,-42.45332614584628" fill="none" id="id82" stroke="none" /><text fill="#e1ed5e" style="font-size:6.75px; font-family:Arial;" text-anchor="middle"><textPath startOffset="22.145653131862435" xlink:href="#id82">October</textPath></text><line stroke="#e1ed5e" stroke-width="0.3" x1="26.387840678322718" x2="22.05771365940052" y1="57.49999999999999" y2="54.99999999999999" /><path d="M 25.521815274538284 56.99999999999999 a86.0,86.0 0 0,1 29.574782752854787,-30.34633250058573" fill="none" id="id83" stroke="none" /><text fill="#e1ed5e" style="font-size:6.75px; font-family:Arial;" text-anchor="middle"><textPath startOffset="21.40746469413373" xlink:href="#id83">November</textPath></text><line stroke="#e1ed5e" stroke-width="0.3" x1="56.869717070023135" x2="54.33264160355391" y1="26.7553504044142" y2="22.446841604673864" /><path d="M 56.362301976729285 25.89364864446614 a86.0,86.0 0 0,1 42.16139366436587,-11.88097634709845" fill="none" id="id84" stroke="none" /><text fill="#e1ed5e" style="font-size:6.75px; font-family:Arial;" text-anchor="middle"><textPath startOffset="22.145653131862474" xlink:href="#id84">December</textPath></text></svg>