<?xml version="1.0" encoding="utf-8" ?>
<svg baseProfile="full" height="200mm" version="1.1" viewBox="0,0,200,200" width="200mm" xmlns="http://www.w3.org/2000/svg" xmlns:ev="http://www.w3.org/2001/xml-events" xmlns:xlink="http://www.w3.org/1999/xlink"><defs /><rect fill="#1a1a1a" height="200" width="200" x="0" y="0" /><text alignment-baseline="middle" fill="#e1ed5e" style="dominant-baseline: central; font-size:9.0px; font-family:Arial;" text-anchor="middle" x="100.0" y="100.0">2023</text><line stroke="#e1ed5e" stroke-width="0.3" x1="100.0" x2="100.0" y1="15.0" y2="10.0" /><path d="M 100.0 14.0 a86.0,86.0 0 0,1 42.46469731375804,11.215312516191453" fill="none" id="id61" stroke="none" /><text fill="#e1ed5e" style="font-size:6.75px; font-family:Arial;" text-anchor="middle"><textPath startOffset="22.20632615414155" xlink:href="#id61">January</textPath></text><line stroke="#e1ed5e" stroke-width="0.3" x1="143.23703022742887" x2="145.7803849466894" y1="26.81831364943548" y2="22.513508569990506" /><path d="M 143.74570117128098 25.957352633546492 a86.0,86.0 0 0,1 28.547481713284135,27.462654790039103" fill="none" id="id62" stroke="none" /><text fill="#e1ed5e" style="font-size:6.75px; font-family:Arial;" text-anchor="middle"><textPath startOffset="19.985693538727396" xlink:href="#id62">February</textPath></text><line stroke="#e1ed5e" stroke-width="0.3" x1="172.23445277983987" x2="176.4835382374775" y1="55.19839476539836" y2="52.563006222186495" /><path d="M 173.08426987136738 54.67131705675599 a86.0,86.0 0 0,1 12.851231095245387,41.99856678651699" fill="none" id="id63" stroke="none" /><text fill="#e1ed5e" style="font-size:6.75px; font-family:Arial;" text-anchor="middle"><textPath startOffset="22.20632615414155" xlink:href="#id63">March</textPath></text><path d="M 119.04729006885535 91.15688171328212 l 3.4074911623623065 -1.582001812372594 a24.756823892056612,24.756823892056612 0 0,0 0.17612438708665296,0.38806674077323905 l -3.434217866412306 1.5231130627572922" fill="#ff2a04" stroke="none" /><path d="M 119.61058180528143 92.48833698450437 l 31.29407268682278 -11.986922710397645 a54.51127125898381,54.51127125898381 0 0,0 0.3280940267656565,0.8791288736445574 l -31.495771302090063 11.446470699723754" fill="#67ff28" stroke="none" /><path d="M 119.7369772167798 92.82701384747503 l 3.7554349479673186 -1.3648332560051935 a24.995755431093354,24.995755431093354 0 0,0 0.14348387190713213,0.40564822762745023 l -3.77837190068426 1.2999874019511286" fill="#ff2d04" stroke="none" /><path d="M 120.37134235888165 94.90015583598534 l 44.997772221134845 -11.264924127867493 a67.38639908929929,67.38639908929929 0 0,0 0.2720074453003223,1.1276464678701388 l -45.18501246669599 10.488692428337949" fill="#38ff85" stroke="none" /><line stroke="#e1ed5e" stroke-width="0.3" x1="184.98032266829074" x2="189.97916517819016" y1="98.17113171792111" y2="98.06355123074" /><path d="M 185.9800911702706 98.14961562048488 a86.0,86.0 0 0,1 -9.607161424134198,41.387399972396054" fill="none" id="id64" stroke="none" /><text fill="#e1ed5e" style="font-size:6.75px; font-family:Arial;" text-anchor="middle"><textPath startOffset="21.466115282336823" xlink:href="#id64">April</textPath></text><path d="M 120.92983693683757 101.71520430193887 l 4.432163820079687 0.36321670704077375 a25.447021756670065,25.447021756670065 0 0,0 -0.03953425515987659,0.43625721135288914 l -4.425254968642736 -0.4394553069422334" fill="#ff3404" stroke="none" /><path d="M 120.8583938346157 102.4346265915055 l 3.8021165229291505 0.4437893954885296 a24.827928823982877,24.827928823982877 0 0,0 -0.05320092026694792,0.42406367937994743 l -3.7939140934153546 -0.509170829155872" fill="#ff2b04" stroke="none" /><path d="M 120.64145759157962 103.86396538481128 l 3.923270911131233 0.7344143662622036 a24.99141818198755,24.99141818198755 0 0,0 -0.08279307799781335,0.42216012100784095 l -3.910047900157756 -0.8018382143379894" fill="#ff2d04" stroke="none" /><path d="M 120.32669344350535 105.2749913415812 l 3.952673411454944 1.0257604405494214 a25.083602769493993,25.083602769493993 0 0,0 -0.11205433467071219,0.41699586454539433 l -3.9344310004424545 -1.093647238270364" fill="#ff2f04" stroke="none" /><path d="M 120.02730092923936 106.31721596034902 l 27.98576132119741 8.827554881480534 a50.34499210960159,50.34499210960159 0 0,0 -0.2678059876746858,0.824222079423345 l -27.829663082506475 -9.307975860881674" fill="#93ff23" stroke="none" /><path d="M 119.41010516605496 108.01547362559984 l 27.29071496909234 11.26980014724887 a50.526115878712716,50.526115878712716 0 0,0 -0.33888351646097076,0.8010205283412771 l -27.09268047143906 -11.737895201256311" fill="#91ff24" stroke="none" /><path d="M 119.26925614724726 108.34839909993367 l 3.8694079076838976 1.676419745886206 a25.216953962333932,25.216953962333932 0 0,0 -0.17598901995719482,0.3968087802590742 l -3.83997780299543 -1.7427768626379678" fill="#ff3104" stroke="none" /><line stroke="#e1ed5e" stroke-width="0.3" x1="174.80103733775053" x2="179.2010983576182" y1="140.37084112569926" y2="142.7455964860345" /><path d="M 175.68104954172406 140.8457921977663 a86.0,86.0 0 0,1 -30.038265399797805,32.042727171017184" fill="none" id="id65" stroke="none" /><text fill="#e1ed5e" style="font-size:6.75px; font-family:Arial;" text-anchor="middle"><textPath startOffset="22.206326154141568" xlink:href="#id65">May</textPath></text><path d="M 117.14729908036423 112.12312394758627 l 23.88450966638852 16.88632534814339 a50.25094504058214,50.25094504058214 0 0,0 -0.5054292878473301,0.7019970747251877 l -23.59030058616559 -17.29495602831971" fill="#94ff23" stroke="none" /><path d="M 116.71984013943494 112.70617746262583 l 23.382439347323565 17.769393808702944 a50.36817709971179,50.36817709971179 0 0,0 -0.5305284477909166,0.6857795347242155 l -23.073104082314583 -18.16925133754041" fill="#93ff23" stroke="none" /><path d="M 116.498646956653 112.99209946851258 l 2.9845194660963665 2.3502032543099016 a24.79879083131422,24.79879083131422 0 0,0 -0.2669791623646887,0.3330975549727917 l -2.943622391676824 -2.4012286428609433" fill="#ff2b04" stroke="none" /><path d="M 115.07121518719521 114.62390073753431 l 2.9110561455246335 2.824655847904729 a25.05622096803159,25.05622096803159 0 0,0 -0.3030124864529374,0.30695004899748185 l -2.8620030340161606 -2.8743463908828755" fill="#ff2e04" stroke="none" /><path d="M 114.55890576462653 115.13401014063108 l 2.8726551503444906 2.9861304742750248 a25.143564024145725,25.143564024145725 0 0,0 -0.3144911078496926,0.2973709720171016 l -2.8208282081039906 -3.035136083038048" fill="#ff3004" stroke="none" /><path d="M 113.48314897796784 116.09983520530334 l 18.613624937742916 22.225987012431005 a49.990714582426506,49.990714582426506 0 0,0 -0.664471511207226,0.546814816733381 l -18.228283297991 -22.543096948021567" fill="#97ff23" stroke="none" /><path d="M 113.20401910651253 116.32954008644616 l 5.892440984884278 7.287239627078981 a30.37148452182546,30.37148452182546 0 0,0 -0.40935338709303054,0.32521508810841854 l -5.766130105073896 -7.387588629192526" fill="#ff780b" stroke="none" /><line stroke="#e1ed5e" stroke-width="0.3" x1="143.8653032363475" x2="146.44561519142675" y1="172.8068346515853" y2="177.08958963109032" /><path d="M 144.38136562736335 173.6633856474863 a86.0,86.0 0 0,1 -40.68145358897372,12.25698825130547" fill="none" id="id66" stroke="none" /><text fill="#e1ed5e" style="font-size:6.75px; font-family:Arial;" text-anchor="middle"><textPath startOffset="21.466115282336833" xlink:href="#id66">June</textPath></text><path d="M 108.59647513512805 119.15986991738527 l 1.5607960624160342 3.4787106405110215 a24.8128089473324,24.8128089473324 0 0,0 -0.39119085933946957,0.171486576694783 l -1.5006845284188108 -3.505061770500259" fill="#ff2b04" stroke="none" /><path d="M 107.59598834532513 119.57807347666477 l 4.519532140574936 11.648745140950684 a33.4947762736478,33.4947762736478 0 0,0 -0.5393133955758341,0.20392217899394155 l -4.318348524238826 -11.724815570051257" fill="#ffa10e" stroke="none" /><path d="M 107.2578585660854 119.70592522655815 l 10.137803830922586 27.525309626063116 a50.33287808117218,50.33287808117218 0 0,0 -0.8155854222967267,0.29243991529617674 l -9.662498847996124 -27.69573708239925" fill="#93ff23" stroke="none" /><path d="M 106.91757812671514 119.82793768551818 l 1.4021257649656609 4.018930004943836 a25.256495629672184,25.256495629672184 0 0,0 -0.41171728066549707,0.13967685542146366 l -1.332738751362937 -4.042469847263423" fill="#ff3104" stroke="none" /><path d="M 106.2309692047433 120.05430185196036 l 3.7009437932053126 11.911444516461238 a33.47315098237809,33.47315098237809 0 0,0 -0.5517092971114822,0.16622548547931515 l -3.495359521653585 -11.973385371046279" fill="#ffa10e" stroke="none" /><path d="M 105.88484417918355 120.15858648285463 l 1.2381778713353304 4.241389396300548 a25.418423751986133,25.418423751986133 0 0,0 -0.42106082758216956,0.11899599573764787 l -1.1649858756485552 -4.262074185376714" fill="#ff3304" stroke="none" /><path d="M 104.83641907484287 120.43548508189849 l 0.9508007102912182 4.017450396737169 a25.128429444829344,25.128429444829344 0 0,0 -0.4217745265097835,0.09599450905366211 l -0.8815060343885726 -4.033221639368516" fill="#ff2f04" stroke="none" /><path d="M 103.7750983002368 120.6578951692458 l 5.113846089231013 27.983720693144615 a49.44714477159832,49.44714477159832 0 0,0 -0.8386024508654851,0.14580178534928406 l -4.631394666893478 -28.067601057014905" fill="#9dff22" stroke="none" /><path d="M 102.70371172650421 120.8252237178851 l 0.974552804056591 7.506451213129786 a28.56944931834491,28.56944931834491 0 0,0 -0.4882281856608297,0.059117634035074355 l -0.845197195344381 -7.522114375890212" fill="#ff5f08" stroke="none" /><path d="M 101.98527174616119 120.90594882070398 l 0.36835551826980256 3.878976078545938 a24.89642672275143,24.89642672275143 0 0,0 -0.42698045486334546,0.03684167028566505 l -0.30153074566491544 -3.8847420011102667" fill="#ff2c04" stroke="none" /><line stroke="#e1ed5e" stroke-width="0.3" x1="102.19456741930631" x2="102.32365962044197" y1="184.97166512339345" y2="189.96999836594603" /><path d="M 102.22038585953345 185.97133177190398 a86.0,86.0 0 0,1 -42.740103519485714,-10.115201625700543" fill="none" id="id67" stroke="none" /><text fill="#e1ed5e" style="font-size:6.75px; font-family:Arial;" text-anchor="middle"><textPath startOffset="22.20632615414155" xlink:href="#id67">July</textPath></text><path d="M 96.93821686468263 120.77559828337769 l -1.273785148120226 8.643214547569691 a29.736571771518392,29.736571771518392 0 0,0 -0.5057541417151292,-0.07898839557664616 l 1.4223751534438724 -8.62000784464594" fill="#ff6f0a" stroke="none" /><path d="M 93.76903079525671 120.05430185196036 l -0.24700334190221904 0.7949773805942196 a21.832466027275174,21.832466027275174 0 0,0 -0.35792628748657324,-0.11459669431358131 l 0.2606509744797326 -0.7906078396209317" fill="#ff0000" stroke="none" /><path d="M 92.7421414339146 119.70592522655815 l -7.369938253452182 20.010234537432073 a42.32429309737458,42.32429309737458 0 0,0 -0.6814811372139212,-0.257677854071385 l 7.7132896114263865 -19.880408433254054" fill="#eeff19" stroke="none" /><path d="M 90.42595943632237 118.69057910512821 l -4.626876832545004 9.03265521732328 a31.14873634984076,31.14873634984076 0 0,0 -0.4751058870313159,-0.2485529452038399 l 4.781673622102816 -8.951672853174724" fill="#ff820c" stroke="none" /><line stroke="#e1ed5e" stroke-width="0.3" x1="58.666819895761336" x2="56.23545636021788" y1="174.27360380694188" y2="178.64263932499728" /><path d="M 58.180547188652646 175.14741091055294 a86.0,86.0 0 0,1 -31.652253787137756,-30.449443065178592" fill="none" id="id68" stroke="none" /><text fill="#e1ed5e" style="font-size:6.75px; font-family:Arial;" text-anchor="middle"><textPath startOffset="22.20632615414155" xlink:href="#id68">August</textPath></text><path d="M 87.65650970185807 116.9893568818739 l -1.7959726024733667 2.4719442197059047 a24.055491092144173,24.055491092144173 0 0,0 -0.332899393111402,-0.24627101252334102 l 1.838256966003333 -2.440663258442797" fill="#ff2003" stroke="none" /><path d="M 85.70375840098266 115.38237550388516 l -2.3741397393587316 2.554511178100283 a24.487415498767195,24.487415498767195 0 0,0 -0.3062841219004315,-0.28961075454783997 l 2.41775969564998 -2.5132657868065125" fill="#ff2603" stroke="none" /><path d="M 82.85270091963577 112.12312394758628 l -3.0212203948849257 2.1359999116191735 a24.700036256160978,24.700036256160978 0 0,0 -0.24245919366225843,-0.3492805519316472 l 3.057540495709318 -2.083678097500514" fill="#ff2904" stroke="none" /><line stroke="#e1ed5e" stroke-width="0.3" x1="26.63291911575756" x2="22.317208475507996" y1="142.92168965132927" y2="145.44649492493687" /><path d="M 25.769776987707644 143.4266507060508 a86.0,86.0 0 0,1 -11.730757126820373,-40.83630448921669" fill="none" id="id69" stroke="none" /><text fill="#e1ed5e" style="font-size:6.75px; font-family:Arial;" text-anchor="middle"><textPath startOffset="21.46611528233685" xlink:href="#id69">September</textPath></text><path d="M 81.35079622478065 109.6543875284942 l -3.4374802837484353 1.779527275312602 a24.870786486586507,24.870786486586507 0 0,0 -0.19354366719522423,-0.3818800168686474 l 3.467602620729926 -1.7200930467412694" fill="#ff2c04" stroke="none" /><path d="M 80.32549172779594 107.34259656027581 l -6.744367571746868 2.5170219986390854 a28.198742507164972,28.198742507164972 0 0,0 -0.1658028842759803,-0.4562183280222165 l 6.786694717028072 -2.4005558736107515" fill="#ff5a08" stroke="none" /><path d="M 79.76711848015287 105.62410040840567 l -60.698644559541364 16.872301225217015 a84.0,84.0 0 0,0 -0.3752476946329004,-1.3964362672978443 l 60.98008033051604 -15.824974024743632" fill="#4dd2ff" stroke="none" /><line stroke="#e1ed5e" stroke-width="0.3" x1="15.007084014347285" x2="10.007500721073583" y1="101.09737516637583" y2="101.16192664675087" /><path d="M 14.007167355692545 101.11028546245083 a86.0,86.0 0 0,1 10.666146001902534,-42.60595125391555" fill="none" id="id70" stroke="none" /><text fill="#e1ed5e" style="font-size:6.75px; font-family:Arial;" text-anchor="middle"><textPath startOffset="22.20632615414155" xlink:href="#id70">October</textPath></text><path d="M 79.00019446554 99.90962569577889 l -1.1948532906248437 -0.0051421445122116945 a22.19486435538399,22.19486435538399 0 0,0 0.0049325368557069475,-0.3820304153208261 l 1.1945877466514212 0.025708817893509768" fill="#ff0500" stroke="none" /><path d="M 79.16333360222342 97.38593545837743 l -29.27384456333226 -3.672550954606775 a50.50331517020284,50.50331517020284 0 0,0 0.11563816448697842,-0.8616386424005387 l 29.206290399787452 4.1759079390719736" fill="#91ff24" stroke="none" /><path d="M 79.26566170972629 96.67025291283419 l -29.328825900265205 -4.709944018672229 a50.70460572616801,50.70460572616801 0 0,0 0.14580746438830125,-0.8605639085070917 l 29.24340657435668 5.2140937154951486" fill="#8fff24" stroke="none" /><path d="M 79.46518482838121 95.60439243477599 l -1.0568969318978843 -0.22623549862446382 a22.080839315297617,22.080839315297617 0 0,0 0.08275647589619084,-0.3709810545284062 l 1.0528460689996557 0.24439472270282925" fill="#ff0400" stroke="none" /><path d="M 80.14247586403 93.16781622104843 l -6.981305084472797 -2.4019892423369944 a28.382965054961886,28.382965054961886 0 0,0 0.1629275711837376,-0.4606181837991221 l 6.938924432479249 2.5218050525627276" fill="#ff5d08" stroke="none" /><path d="M 80.38941819471856 92.48833698450439 l -27.412226878260356 -10.500015392625833 a50.354394997522924,50.354394997522924 0 0,0 0.3170083719275065,-0.8067517287994467 l 27.227424956451156 10.970316126321043" fill="#93ff23" stroke="none" /><path d="M 80.65960295795068 91.81776055985345 l -27.375555124913028 -11.581631253586437 a50.72465644698357,50.72465644698357 0 0,0 0.3471240176890427,-0.8012100920959677 l 27.172140397381302 12.051140490269004" fill="#8fff24" stroke="none" /><path d="M 81.10775173730289 90.83032412892265 l -18.659012079139018 -9.056470699575454 a41.740742351751166,41.740742351751166 0 0,0 0.3192967767000115,-0.6436828180738058 l 18.500355289485594 9.376313106148222" fill="#f5ff19" stroke="none" /><path d="M 81.43458229118936 90.18545643968196 l -26.477078299358343 -13.997015439931706 a50.94915886124415,50.94915886124415 0 0,0 0.41655037752890706,-0.7718045865226963 l 26.23221982261096 14.450701009786876" fill="#8cff24" stroke="none" /><line stroke="#e1ed5e" stroke-width="0.3" x1="26.266209847984243" x2="21.928928074336255" y1="57.711370442889674" y2="55.22380399835377" /><path d="M 25.398753493254645 57.213857153982495 a86.0,86.0 0 0,1 29.58750427330803,-30.492523968695096" fill="none" id="id71" stroke="none" /><text fill="#e1ed5e" style="font-size:6.75px; font-family:Arial;" text-anchor="middle"><textPath startOffset="21.46611528233685" xlink:href="#id71">November</textPath></text><line stroke="#e1ed5e" stroke-width="0.3" x1="56.762969772571076" x2="54.21961505331055" y1="26.818313649435495" y2="22.513508569990535" /><path d="M 56.25429882871897 25.957352633546506 a86.0,86.0 0 0,1 42.265352541879196,-11.944610805530505" fill="none" id="id72" stroke="none" /><text fill="#e1ed5e" style="font-size:6.75px; font-family:Arial;" text-anchor="middle"><textPath startOffset="22.20632615414155" xlink:href="#id72">December</textPath></text></svg>